<svg width="242" height="60" viewBox="0 0 242 60" fill="none" xmlns="http://www.w3.org/2000/svg">
<path d="M90.816 14.1533H77.4728C77.0311 14.153 76.6038 14.3105 76.2679 14.5974C75.932 14.8843 75.7096 15.2817 75.6408 15.7181L70.2442 49.9334C70.2194 50.0922 70.2293 50.2544 70.2732 50.409C70.3172 50.5636 70.3941 50.7068 70.4986 50.8288C70.6032 50.9508 70.733 51.0487 70.879 51.1158C71.0251 51.1828 71.1839 51.2174 71.3446 51.2172H77.7148C78.1568 51.2174 78.5843 51.0596 78.9202 50.7723C79.2562 50.4851 79.4784 50.0872 79.5468 49.6505L81.0023 40.4221C81.0706 39.9857 81.2925 39.5881 81.6281 39.3009C81.9636 39.0136 82.3907 38.8557 82.8323 38.8554H87.0563C95.8458 38.8554 100.918 34.6021 102.243 26.1737C102.84 22.4862 102.269 19.5889 100.542 17.5598C98.6455 15.3317 95.2819 14.1533 90.816 14.1533ZM92.3553 26.6497C91.6257 31.4376 87.9675 31.4376 84.4302 31.4376H82.4168L83.8293 22.496C83.8707 22.2344 84.004 21.9961 84.2054 21.8241C84.4067 21.652 84.6629 21.5575 84.9278 21.5575H85.8506C88.2601 21.5575 90.5331 21.5575 91.7076 22.931C92.408 23.7505 92.6226 24.9679 92.3553 26.6497ZM130.701 26.4956H124.311C124.047 26.4956 123.79 26.5901 123.589 26.7621C123.388 26.9342 123.254 27.1724 123.213 27.434L122.93 29.2212L122.483 28.5734C121.1 26.5658 118.015 25.8947 114.937 25.8947C107.876 25.8947 101.845 31.2425 100.671 38.7442C100.06 42.4863 100.928 46.0645 103.051 48.5599C104.998 50.8543 107.784 51.8103 111.099 51.8103C116.788 51.8103 119.943 48.1521 119.943 48.1521L119.658 49.9275C119.633 50.0863 119.642 50.2486 119.686 50.4034C119.729 50.5582 119.805 50.7017 119.91 50.8241C120.014 50.9465 120.143 51.0449 120.289 51.1124C120.435 51.1799 120.594 51.215 120.755 51.2152H126.51C126.952 51.2154 127.38 51.0577 127.716 50.7704C128.052 50.4831 128.274 50.0852 128.342 49.6485L131.796 27.7794C131.821 27.621 131.812 27.459 131.768 27.3045C131.725 27.1501 131.649 27.0069 131.545 26.8848C131.441 26.7627 131.311 26.6647 131.166 26.5975C131.02 26.5303 130.861 26.4955 130.701 26.4956ZM121.795 38.9315C121.178 42.5819 118.281 45.0324 114.585 45.0324C112.73 45.0324 111.247 44.4373 110.295 43.3096C109.351 42.1897 108.992 40.5957 109.292 38.8203C109.868 35.2011 112.814 32.6706 116.453 32.6706C118.267 32.6706 119.742 33.2735 120.714 34.4109C121.687 35.5601 122.074 37.1639 121.795 38.9315ZM164.731 26.4956H158.31C158.007 26.4961 157.709 26.5704 157.442 26.7122C157.174 26.854 156.945 27.0589 156.775 27.3092L147.919 40.3538L144.165 27.8184C144.05 27.4361 143.815 27.101 143.494 26.8627C143.174 26.6245 142.785 26.4958 142.386 26.4956H136.076C135.899 26.4951 135.724 26.5369 135.567 26.6176C135.409 26.6983 135.273 26.8154 135.17 26.9594C135.066 27.1033 134.999 27.2697 134.973 27.445C134.947 27.6202 134.963 27.799 135.021 27.9667L142.093 48.7218L135.444 58.1082C135.326 58.2747 135.256 58.4704 135.241 58.674C135.227 58.8776 135.269 59.0812 135.363 59.2626C135.456 59.4439 135.598 59.5959 135.773 59.702C135.947 59.8082 136.147 59.8643 136.351 59.8642H142.764C143.064 59.8646 143.359 59.7924 143.624 59.6537C143.89 59.5151 144.117 59.3141 144.288 59.0681L165.644 28.2418C165.76 28.075 165.828 27.8797 165.84 27.6771C165.853 27.4745 165.81 27.2723 165.716 27.0924C165.622 26.9125 165.48 26.7617 165.307 26.6565C165.133 26.5513 164.934 26.4957 164.731 26.4956Z" fill="#253B80"/>
<path d="M185.99 14.1533H172.644C172.203 14.1535 171.776 14.3112 171.441 14.598C171.105 14.8849 170.883 15.282 170.814 15.718L165.418 49.9334C165.393 50.0919 165.402 50.2539 165.446 50.4084C165.489 50.5628 165.566 50.706 165.67 50.828C165.774 50.95 165.904 51.048 166.05 51.1152C166.195 51.1824 166.354 51.2172 166.514 51.2172H173.362C173.671 51.2167 173.97 51.106 174.205 50.905C174.439 50.704 174.594 50.4259 174.642 50.1207L176.174 40.4221C176.242 39.9857 176.464 39.5881 176.8 39.3009C177.135 39.0136 177.562 38.8557 178.004 38.8554H182.226C191.017 38.8554 196.088 34.6021 197.415 26.1737C198.014 22.4862 197.438 19.5889 195.712 17.5598C193.817 15.3317 190.455 14.1533 185.99 14.1533ZM187.529 26.6497C186.801 31.4376 183.143 31.4376 179.604 31.4376H177.592L179.007 22.496C179.047 22.2343 179.18 21.9959 179.381 21.8238C179.582 21.6516 179.839 21.5572 180.103 21.5575H181.026C183.434 21.5575 185.709 21.5575 186.883 22.931C187.584 23.7505 187.796 24.9679 187.529 26.6497ZM225.873 26.4956H219.487C219.222 26.4948 218.966 26.5892 218.765 26.7614C218.563 26.9336 218.431 27.1722 218.39 27.434L218.107 29.2212L217.659 28.5734C216.275 26.5658 213.193 25.8947 210.114 25.8947C203.053 25.8947 197.025 31.2425 195.85 38.7442C195.241 42.4863 196.106 46.0645 198.228 48.5599C200.179 50.8543 202.962 51.8103 206.276 51.8103C211.966 51.8103 215.12 48.1521 215.12 48.1521L214.836 49.9275C214.81 50.0866 214.82 50.2493 214.863 50.4043C214.907 50.5594 214.984 50.7031 215.088 50.8256C215.193 50.9481 215.323 51.0463 215.469 51.1136C215.616 51.1809 215.775 51.2155 215.936 51.2152H221.69C222.131 51.215 222.558 51.057 222.894 50.7697C223.229 50.4825 223.451 50.0849 223.52 49.6485L226.975 27.7794C226.999 27.6205 226.989 27.4582 226.945 27.3036C226.901 27.149 226.824 27.0058 226.719 26.8839C226.614 26.7619 226.485 26.664 226.338 26.597C226.192 26.53 226.033 26.4954 225.873 26.4956ZM216.966 38.9315C216.354 42.5819 213.452 45.0324 209.757 45.0324C207.906 45.0324 206.419 44.4373 205.467 43.3096C204.522 42.1897 204.167 40.5957 204.464 38.8203C205.043 35.2011 207.986 32.6706 211.624 32.6706C213.439 32.6706 214.914 33.2735 215.885 34.4109C216.863 35.5601 217.249 37.1638 216.966 38.9315ZM233.406 15.0918L227.929 49.9334C227.904 50.0919 227.913 50.2539 227.957 50.4084C228.001 50.5628 228.077 50.706 228.181 50.828C228.286 50.95 228.415 51.048 228.561 51.1152C228.706 51.1824 228.865 51.2172 229.026 51.2172H234.531C235.446 51.2172 236.223 50.5538 236.363 49.6505L241.764 15.4371C241.789 15.2785 241.779 15.1164 241.736 14.9618C241.692 14.8073 241.616 14.664 241.512 14.5418C241.407 14.4197 241.278 14.3215 241.132 14.2541C240.987 14.1867 240.828 14.1517 240.667 14.1514H234.502C234.237 14.1523 233.982 14.2475 233.781 14.4198C233.58 14.5921 233.447 14.8303 233.406 15.0918Z" fill="#179BD7"/>
<path d="M14.8328 57.8666L15.8532 51.3852L13.5803 51.3325H2.72664L10.2693 3.50677C10.2918 3.36064 10.366 3.22745 10.4785 3.13147C10.5909 3.03549 10.7341 2.98312 10.882 2.9839H29.1827C35.2582 2.9839 39.451 4.24817 41.6401 6.74354C42.6663 7.91417 43.3199 9.13747 43.636 10.4837C43.9677 11.8962 43.9735 13.5839 43.6496 15.6422L43.6262 15.7925V17.1114L44.6525 17.6928C45.4359 18.0897 46.1401 18.6266 46.7303 19.277C47.6083 20.2779 48.176 21.55 48.416 23.0581C48.6638 24.6092 48.5819 26.4549 48.176 28.5444C47.7078 30.9481 46.9508 33.0416 45.9285 34.7546C45.0264 36.2892 43.8136 37.6183 42.3678 38.6567C41.0099 39.6205 39.3964 40.3521 37.5722 40.8204C35.8045 41.2808 33.7891 41.513 31.5786 41.513H30.1543C29.1359 41.513 28.1467 41.8798 27.3702 42.5373C26.5948 43.2018 26.0804 44.1199 25.9186 45.1282L25.8113 45.7116L24.0086 57.1349L23.9266 57.5544C23.9051 57.6871 23.8681 57.7534 23.8134 57.7983C23.7605 57.8416 23.6945 57.8656 23.6261 57.8666H14.8328Z" fill="#253B80"/>
<path d="M45.6241 15.9446C45.5695 16.2938 45.507 16.6509 45.4368 17.0177C43.0234 29.4087 34.7666 33.6893 24.2212 33.6893H18.852C17.5623 33.6893 16.4756 34.6258 16.2746 35.8978L13.5256 53.3323L12.7472 58.2743C12.7162 58.4703 12.728 58.6707 12.7819 58.8617C12.8357 59.0528 12.9304 59.2298 13.0592 59.3808C13.1881 59.5317 13.3482 59.6529 13.5284 59.7361C13.7086 59.8192 13.9047 59.8623 14.1031 59.8624H23.6261C24.7538 59.8624 25.7118 59.043 25.8893 57.9309L25.983 57.447L27.776 46.0686L27.8911 45.4443C28.0667 44.3283 29.0266 43.5088 30.1543 43.5088H31.5786C40.805 43.5088 48.0278 39.7628 50.1388 28.9229C51.0207 24.3945 50.5641 20.6134 48.2307 17.9541C47.4911 17.1315 46.6078 16.4505 45.6241 15.9446Z" fill="#179BD7"/>
<path d="M43.0994 14.9378C42.3288 14.7148 41.5449 14.5408 40.7523 14.4168C39.1863 14.1762 37.6035 14.0607 36.0191 14.0715H21.6751C21.1292 14.0711 20.6012 14.266 20.1864 14.6209C19.7717 14.9759 19.4977 15.4675 19.4138 16.0069L16.3624 35.3339L16.2746 35.8977C16.3697 35.2825 16.6818 34.7216 17.1545 34.3165C17.6273 33.9114 18.2294 33.6889 18.8519 33.6892H24.2212C34.7665 33.6892 43.0233 29.4066 45.4368 17.0176C45.509 16.6508 45.5694 16.2937 45.6241 15.9445C44.9872 15.6105 44.3235 15.3306 43.6399 15.1075C43.4606 15.048 43.2805 14.9914 43.0994 14.9378Z" fill="#222D65"/>
<path d="M19.4139 16.0069C19.497 15.4673 19.7709 14.9755 20.1859 14.6207C20.6008 14.2659 21.1292 14.0717 21.6751 14.0734H36.0192C37.7185 14.0734 39.3047 14.1846 40.7524 14.4187C41.732 14.5727 42.6981 14.803 43.6419 15.1074C44.354 15.3435 45.0154 15.6225 45.6261 15.9444C46.3441 11.3654 45.6202 8.2476 43.1444 5.42445C40.4149 2.31645 35.4885 0.98584 29.1847 0.98584H10.884C9.59628 0.98584 8.49784 1.92234 8.29884 3.19637L0.676134 51.5138C0.640628 51.7381 0.654137 51.9675 0.71573 52.1861C0.777323 52.4047 0.885539 52.6074 1.03293 52.7802C1.18033 52.953 1.3634 53.0918 1.56957 53.1871C1.77573 53.2824 2.00009 53.3319 2.22721 53.3322H13.5257L16.3625 35.3339L19.4139 16.0069Z" fill="#253B80"/>
</svg>
