<svg width="104" height="63" viewBox="0 0 104 63" fill="none" xmlns="http://www.w3.org/2000/svg">
<path fill-rule="evenodd" clip-rule="evenodd" d="M51.9345 54.8505C57.3531 59.8434 64.6298 62.8718 72.5448 62.8718C89.5434 62.8718 103.301 49.0074 103.301 31.9551C103.301 14.8509 89.5434 0.98584 72.5448 0.98584C64.6298 0.98584 57.3531 4.01368 51.9345 9.00715C45.7194 14.6908 41.7881 22.8716 41.7881 31.9551C41.7887 41.0386 45.7194 49.22 51.9345 54.8505Z" fill="#E9B040"/>
<path fill-rule="evenodd" clip-rule="evenodd" d="M99.2126 49.1664C99.2126 48.635 99.6378 48.2104 100.169 48.2104C100.752 48.2104 101.177 48.6356 101.177 49.1664C101.177 49.7516 100.752 50.1761 100.169 50.1761C99.6378 50.1761 99.2126 49.7516 99.2126 49.1664ZM100.169 49.9641C100.594 49.9641 100.964 49.5915 100.964 49.167C100.964 48.7425 100.593 48.4236 100.169 48.4236C99.7959 48.4236 99.4252 48.7425 99.4252 49.167C99.4252 49.5915 99.7966 49.9641 100.169 49.9641ZM100.062 49.6453H99.8497V48.7419H100.221C100.275 48.7419 100.381 48.7419 100.434 48.7956C100.54 48.8482 100.54 48.9019 100.54 49.0082C100.54 49.1145 100.487 49.2208 100.381 49.2208L100.594 49.6459H100.327L100.221 49.2733H100.062V49.6453V49.1139H100.275C100.327 49.1139 100.327 49.0601 100.327 49.0076C100.327 48.9538 100.327 48.9538 100.275 48.9013H100.062V49.6453Z" fill="#E9B040"/>
<path fill-rule="evenodd" clip-rule="evenodd" d="M61.8682 28.6622C61.762 27.5468 61.5494 26.4846 61.3368 25.3686H42.5321C42.7446 24.2533 43.0635 23.1911 43.3817 22.1282H60.434C60.0639 21.0099 59.6384 19.9107 59.1593 18.8347H44.7103C45.2417 17.7095 45.8268 16.6104 46.4633 15.5411H57.3537C56.653 14.4066 55.872 13.3237 55.0167 12.3007H48.8009C49.7624 11.1265 50.81 10.0256 51.9351 9.00715C46.4639 4.06682 39.2391 0.98584 31.271 0.98584C14.3256 0.98584 0.514282 14.8509 0.514282 31.9551C0.514282 49.0074 14.3256 62.8718 31.271 62.8718C39.2391 62.8718 46.4633 59.8434 51.9351 54.8505C53.0429 53.8499 54.0731 52.7664 55.0167 51.6095H48.8009C47.9507 50.5473 47.2073 49.4851 46.4633 48.3159H57.3537C58.0384 47.2655 58.6423 46.1645 59.1599 45.0224H44.7103C44.232 43.9602 43.7543 42.898 43.3817 41.7814H60.434C60.8054 40.7191 61.0717 39.6044 61.3362 38.4878C61.5488 37.4256 61.7613 36.3109 61.8676 35.1943C61.9753 34.1173 62.0287 33.0356 62.0277 31.9532C62.0277 30.8397 61.9745 29.7244 61.8682 28.6622Z" fill="#CC2131"/>
<path fill-rule="evenodd" clip-rule="evenodd" d="M99.2126 39.1269C99.2126 38.5429 99.6378 38.1184 100.169 38.1184C100.752 38.1184 101.177 38.5435 101.177 39.1269C101.177 39.6583 100.752 40.1366 100.169 40.1366C99.6378 40.1366 99.2126 39.6576 99.2126 39.1269ZM100.169 39.8702C100.594 39.8702 100.964 39.5514 100.964 39.1269C100.964 38.7023 100.593 38.3835 100.169 38.3835C99.7959 38.3835 99.4252 38.7023 99.4252 39.1269C99.4252 39.5514 99.7966 39.8702 100.169 39.8702ZM100.062 39.5514H99.8497V38.7017H100.434C100.54 38.7555 100.54 38.8618 100.54 38.9681C100.54 39.0206 100.487 39.1269 100.381 39.1806L100.594 39.552H100.327L100.221 39.2331H100.062V39.5514V39.0737H100.169C100.221 39.0737 100.275 39.0737 100.275 39.0199C100.327 39.0199 100.327 38.9674 100.327 38.9137C100.327 38.9137 100.327 38.8611 100.275 38.8611C100.275 38.8074 100.221 38.8611 100.169 38.8611H100.062V39.5514Z" fill="white"/>
<path fill-rule="evenodd" clip-rule="evenodd" d="M41.4698 40.8797C40.4608 41.1448 39.7168 41.3048 38.9734 41.3048C37.3798 41.3048 36.4232 40.2951 36.4232 38.4889C36.4232 38.1175 36.4764 37.7455 36.5295 37.3204L36.7421 36.0994L36.9015 35.0897L38.3357 26.3782H41.523L41.151 28.2906H43.1698L42.6915 31.4779H40.6727L39.8231 36.6833C39.7699 36.9497 39.7699 37.1085 39.7699 37.2147C39.7699 37.9056 40.0888 38.1707 40.8853 38.1707C41.2573 38.1707 41.5755 38.1182 41.8944 38.0644L41.4698 40.8797ZM51.7756 40.7734C50.6071 41.0922 49.5449 41.251 48.3758 41.251C44.7634 41.251 42.6915 39.3386 42.6915 35.568C42.6915 31.1584 45.1354 27.9712 48.5346 27.9712C51.2436 27.9712 52.9966 29.7774 52.9966 32.592C52.9966 33.5492 52.8904 34.452 52.6253 35.7268H45.985C45.9319 35.9393 45.9319 36.0456 45.9319 36.1519C45.9319 37.6393 46.941 38.3826 48.8534 38.3826C50.0751 38.3826 51.1373 38.1175 52.3064 37.5867L51.7756 40.7734ZM49.81 33.1772V32.5395C49.81 31.4773 49.2254 30.8927 48.2164 30.8927C47.1535 30.8927 46.4102 31.6892 46.0913 33.1766H49.81V33.1772ZM15.9717 41.0385H12.6782L14.5906 28.9809L10.288 41.0385H8.00417L7.73846 29.034L5.71969 41.0385H2.47928L5.08198 25.3685H9.91603L10.0223 35.0372L13.2627 25.3685H18.575L15.9717 41.0385ZM23.9936 35.3554C23.6748 35.3016 23.5685 35.3016 23.3559 35.3016C21.4435 35.3016 20.4875 36.045 20.4875 37.2141C20.4875 38.0113 20.9658 38.5427 21.7092 38.5427C23.3028 38.5427 23.9399 37.2141 23.9936 35.3554ZM26.6495 41.0385H23.7811L23.8342 39.7112C23.0902 40.7196 22.0812 41.251 20.3281 41.251C18.7345 41.251 17.3534 39.8175 17.3534 37.7455C17.3534 37.1616 17.4597 36.6308 17.6191 36.0994C18.1499 34.1331 20.1155 32.9121 23.1434 32.8584C23.5154 32.8584 24.0993 32.8584 24.6307 32.9121C24.7364 32.487 24.7364 32.3269 24.7364 32.0619C24.7364 31.2116 24.0462 30.9459 22.5057 30.9459C21.5497 30.9459 20.4869 31.1053 19.7435 31.371L19.2653 31.4773L19.0527 31.5298L19.531 28.6614C21.0715 28.1831 22.1868 27.9712 23.4091 27.9712C26.2775 27.9712 27.818 29.2991 27.818 31.7424C27.818 32.3801 27.8711 32.8584 27.6586 34.2394L26.9152 38.8078L26.8089 39.6049L26.7558 40.2426L26.7026 40.6677L26.6495 41.0385ZM67.8182 28.3963C68.7742 28.3963 69.6244 28.662 70.7929 29.246L71.3769 25.8461C71.058 25.6867 70.9517 25.6867 70.5272 25.5273L69.1999 25.1553C68.7748 25.049 68.244 24.9958 67.6588 24.9958C66.0114 24.9958 65.0555 25.049 64.047 25.6336C63.5156 26.0055 62.8248 26.4838 62.0808 27.3335L61.6557 27.2272L58.2558 29.6173L58.4159 28.2894H54.9091L52.8385 41.0378H56.1858L57.4068 34.1863C57.4068 34.1863 57.8857 33.2291 58.0976 32.9115C58.7353 32.1144 59.2661 32.1144 59.9564 32.1144H60.2227C60.1112 32.9239 60.0577 33.7405 60.0626 34.5577C60.0626 38.7008 62.3996 41.3042 66.012 41.3042C66.9155 41.3042 67.7132 41.1979 68.9342 40.879L69.5194 37.2673C68.4572 37.8512 67.5006 38.1169 66.7035 38.1169C64.7385 38.1169 63.5688 36.6296 63.5688 34.2926C63.5675 30.8396 65.3212 28.3963 67.8182 28.3963ZM96.0241 25.3685L95.2814 29.8305C94.4843 28.6089 93.5277 28.0243 92.2529 28.0243C90.4992 28.0243 88.8531 29.0334 87.8434 30.9459V30.8934L85.7189 29.6179L85.9315 28.29H82.3723L80.3535 41.0385H83.647L84.763 34.1869C84.763 34.1869 85.6127 33.2297 85.8252 32.9121C86.3567 32.2744 86.8875 32.1675 87.3126 32.115C86.9412 33.1772 86.7287 34.452 86.7287 35.8868C86.7287 39.0741 88.3748 41.1985 90.8181 41.1985C92.0403 41.1985 92.9963 40.7734 93.8991 39.7637L93.7403 41.0385H96.875L99.4246 25.3685H96.0241ZM91.9347 38.0113C90.8187 38.0113 90.2348 37.1616 90.2348 35.5142C90.2348 33.0172 91.297 31.2116 92.8369 31.2116C94.0053 31.2116 94.5905 32.115 94.5905 33.7086C94.5905 36.2582 93.5283 38.0113 91.9347 38.0113ZM76.5835 35.3554C76.2647 35.3016 76.1584 35.3016 75.9458 35.3016C74.0321 35.3016 73.0762 36.045 73.0762 37.2141C73.0762 38.0113 73.5551 38.5427 74.2984 38.5427C75.8921 38.5427 76.5298 37.2141 76.5835 35.3554ZM79.2394 41.0385H76.3172L76.4235 39.7112C75.6801 40.7196 74.6698 41.251 72.918 41.251C71.2706 41.251 69.837 39.87 69.837 37.7455C69.837 34.7183 72.1202 32.859 75.7326 32.859C76.1053 32.859 76.6886 32.859 77.1675 32.9128C77.2738 32.4876 77.3275 32.3276 77.3275 32.0625C77.3275 31.2122 76.6367 30.9465 75.0431 30.9465C74.1396 30.9465 73.0243 31.1059 72.2809 31.3716L71.8558 31.4779L71.6432 31.5304L72.1209 28.662C73.662 28.1837 74.778 27.9718 75.999 27.9718C78.8674 27.9718 80.3548 29.2997 80.3548 31.743C80.3548 32.3807 80.461 32.859 80.1959 34.24L79.5051 38.8084L79.3988 39.6055L79.2925 40.2432L79.24 40.6684V41.0385H79.2394ZM33.608 30.999C34.2457 30.999 35.1484 31.0522 36.105 31.2116L36.5833 28.2369C35.6267 28.1306 34.3519 27.9712 33.608 27.9712C29.8899 27.9712 28.6683 29.9899 28.6683 32.3269C28.6683 33.8681 29.3585 34.9828 31.1647 35.8324C32.4926 36.4701 32.7052 36.5758 32.7052 37.161C32.7052 37.9569 32.015 38.4358 30.7395 38.4358C29.7305 38.4358 28.7739 38.2757 27.7117 37.9043L27.3397 40.8253L27.3922 40.879L28.0299 40.9853C28.2425 41.0378 28.5082 41.0916 28.8802 41.1441C29.6767 41.1979 30.3676 41.2504 30.7927 41.2504C34.5114 41.2504 36.0519 39.8168 36.0519 37.0009C36.0519 35.2485 35.2016 34.1863 33.5548 33.4429C32.1206 32.8046 31.9612 32.6996 31.9612 32.1144C31.9612 31.5304 32.5989 30.999 33.608 30.999Z" fill="#1B3771"/>
<path fill-rule="evenodd" clip-rule="evenodd" d="M72.2803 24.8373L71.6951 28.2371C70.5266 27.6525 69.6764 27.3875 68.7204 27.3875C66.2234 27.3875 64.4709 29.8307 64.4709 33.2837C64.4709 35.6745 65.6394 37.1081 67.6057 37.1081C68.4016 37.1081 69.3581 36.843 70.4203 36.3122L69.8364 39.8702C68.6141 40.1891 67.8176 40.3491 66.9142 40.3491C63.3024 40.3491 61.0711 37.7458 61.0711 33.5501C61.0711 27.972 64.1521 24.0408 68.561 24.0408C69.1449 24.0408 69.6757 24.0939 70.1009 24.2002L71.4294 24.519C71.8552 24.6785 71.9615 24.7316 72.2803 24.8373ZM61.5494 27.1749H61.2305C60.1158 27.1749 59.4781 27.7063 58.4684 29.2462L58.7873 27.2806H55.7588L53.6881 40.0296H57.0354C58.2565 32.2209 58.5753 30.893 60.1689 30.893H60.3815C60.7004 29.3525 61.1249 28.2365 61.6563 27.2274L61.5494 27.1749ZM42.3201 39.8702C41.4173 40.1891 40.6734 40.2953 39.93 40.2953C38.2301 40.2953 37.2735 39.3394 37.2735 37.4807C37.2735 37.1618 37.3267 36.7373 37.3798 36.3647L37.5924 35.0899L37.7518 34.0815L39.186 25.3687H42.4795L42.1076 27.2812H43.8075L43.3823 30.4153H41.6824L40.7796 35.7276C40.7265 35.9402 40.7265 36.1002 40.7265 36.259C40.7265 36.8967 41.0453 37.1625 41.8418 37.1625C42.2138 37.1625 42.5321 37.1625 42.7446 37.0562L42.3201 39.8702ZM29.5179 31.3181C29.5179 32.9124 30.2613 34.0271 32.0143 34.8774C33.3954 35.5151 33.608 35.727 33.608 36.2584C33.608 37.0556 33.0234 37.4269 31.6955 37.4269C30.6864 37.4269 29.783 37.2681 28.7208 36.9493L28.2425 39.8702L28.4019 39.924L28.9865 40.0302C29.1984 40.0828 29.4648 40.1365 29.8893 40.1365C30.6326 40.2428 31.2703 40.2428 31.6955 40.2428C35.201 40.2428 36.8484 38.9143 36.8484 35.9933C36.8484 34.2396 36.1582 33.23 34.5114 32.4341C33.0772 31.7964 32.9177 31.6376 32.9177 31.053C32.9177 30.3628 33.5023 30.0439 34.5645 30.0439C35.2022 30.0439 36.105 30.0971 36.9553 30.2034L37.4329 27.2818C36.5833 27.1224 35.2554 27.0161 34.5114 27.0161C30.7927 27.0155 29.4648 28.9811 29.5179 31.3181ZM97.7253 40.0302H94.5906L94.7506 38.808C93.8472 39.7639 92.8906 40.189 91.6684 40.189C89.2251 40.189 87.6315 38.1184 87.6315 34.9311C87.6315 30.681 90.1285 27.0686 93.0494 27.0686C94.378 27.0686 95.3339 27.6532 96.238 28.8217L96.9813 24.3596H100.275L97.7253 40.0302ZM92.8375 37.0556C94.3786 37.0556 95.4408 35.2493 95.4408 32.7523C95.4408 31.1055 94.8556 30.2553 93.6871 30.2553C92.1998 30.2553 91.0851 32.0083 91.0851 34.5054C91.0851 36.2059 91.669 37.0556 92.8375 37.0556ZM52.519 39.7639C51.3499 40.1365 50.2877 40.2953 49.066 40.2953C45.3473 40.2953 43.4349 38.3303 43.4349 34.5585C43.4349 30.2027 45.8788 26.9623 49.2255 26.9623C51.9876 26.9623 53.74 28.7685 53.74 31.5838C53.74 32.5404 53.6337 33.4438 53.3149 34.7711H46.729C46.6759 34.9311 46.6759 35.0374 46.6759 35.1437C46.6759 36.631 47.6856 37.3744 49.5974 37.3744C50.8191 37.3744 51.8813 37.1618 53.0504 36.5773L52.519 39.7639ZM50.6597 32.1677V31.5307C50.6597 30.4684 50.0751 29.8839 49.066 29.8839C48.0038 29.8839 47.2598 30.681 46.941 32.1677H50.6597ZM16.822 40.0302H13.5284L15.4409 27.9714L11.1383 40.0302H8.85382L8.58811 28.0777L6.56997 40.0302H3.48898L6.09169 24.3596H10.8726L11.032 34.0808L14.2187 24.3596H19.4247L16.822 40.0302ZM25.0559 34.3459C24.737 34.3459 24.5776 34.2934 24.3119 34.2934C22.4525 34.2934 21.4966 34.9836 21.4966 36.2584C21.4966 37.0556 21.9217 37.5332 22.6651 37.5332C24.0462 37.5332 25.0027 36.2584 25.0559 34.3459ZM27.4991 40.0302H24.7364L24.7895 38.7017C23.9393 39.7639 22.8239 40.2428 21.2834 40.2428C19.4772 40.2428 18.2556 38.8618 18.2556 36.7898C18.2556 33.6563 20.38 31.8501 24.0987 31.8501C24.4707 31.8501 24.949 31.9033 25.4797 31.9558C25.586 31.5313 25.586 31.3719 25.586 31.1593C25.586 30.3096 25.0015 29.9908 23.461 29.9908C22.5051 29.9908 21.4422 30.0971 20.6989 30.3096L20.2206 30.4691L19.9017 30.5222L20.38 27.6538C22.0268 27.1755 23.1421 27.0161 24.3644 27.0161C27.2328 27.0161 28.7733 28.2909 28.7733 30.7342C28.7733 31.3719 28.7202 31.8501 28.5076 33.2843L27.7636 37.8002L27.6573 38.596L27.6042 39.2337L27.551 39.7126L27.4991 40.0302ZM77.6458 34.3459C77.2732 34.3459 77.1144 34.2934 76.9024 34.2934C74.9899 34.2934 74.0327 34.9836 74.0327 36.2584C74.0327 37.0556 74.5116 37.5332 75.255 37.5332C76.5835 37.5332 77.592 36.2584 77.6458 34.3459ZM80.0891 40.0302H77.3269L77.3794 38.7017C76.5298 39.7639 75.4144 40.2428 73.8739 40.2428C72.0677 40.2428 70.8455 38.8618 70.8455 36.7898C70.8455 33.6563 72.9699 31.8501 76.6886 31.8501C77.0612 31.8501 77.5395 31.9033 78.0171 31.9558C78.1234 31.5313 78.1772 31.3719 78.1772 31.1593C78.1772 30.3096 77.592 29.9908 76.0528 29.9908C75.0956 29.9908 73.9809 30.0971 73.2369 30.3096L72.8117 30.4691L72.4929 30.5222L72.9705 27.6538C74.6179 27.1755 75.7327 27.0161 76.9549 27.0161C79.8233 27.0161 81.3107 28.2909 81.3107 30.7342C81.3107 31.3719 81.3107 31.8501 81.0456 33.2843L80.3548 37.8002L80.2485 38.596L80.1422 39.2337L80.0897 39.7126V40.0302H80.0891ZM89.0132 27.1749H88.6943C87.5796 27.1749 86.9419 27.7063 85.9322 29.2462L86.251 27.2806H83.2225L81.2038 40.0296H84.4973C85.7196 32.2209 86.0384 30.893 87.6321 30.893H87.8447C88.1635 29.3525 88.588 28.2365 89.1194 27.2274L89.0132 27.1749Z" fill="white"/>
</svg>
