<svg width="75" height="71" viewBox="0 0 75 71" fill="none" xmlns="http://www.w3.org/2000/svg">
<path fill-rule="evenodd" clip-rule="evenodd" d="M2.68692 69.6196H2.45675C2.45675 69.5048 2.3991 69.3318 2.3991 69.2738C2.3991 69.2165 2.3991 69.1016 2.22615 69.1016H1.88027V69.6196H1.70732V68.4099H2.22615C2.45675 68.4099 2.62927 68.4679 2.62927 68.6977C2.62927 68.8706 2.57162 68.9287 2.51439 68.9855C2.57204 69.0436 2.62927 69.1012 2.62927 69.2165V69.4467C2.62927 69.5048 2.62927 69.5048 2.68692 69.5048V69.6196ZM2.45675 68.7558C2.45675 68.5828 2.34145 68.5828 2.2838 68.5828H1.88027V68.9287H2.22615C2.34145 68.9287 2.45675 68.8706 2.45675 68.7558V68.7558ZM3.43635 68.9859C3.43635 68.295 2.86028 67.7181 2.11086 67.7181C1.4195 67.7181 0.843018 68.295 0.843018 68.9859C0.843018 69.7349 1.4195 70.3118 2.11086 70.3118C2.85986 70.3114 3.43635 69.7349 3.43635 68.9859ZM3.2634 68.9859C3.2634 69.6201 2.74499 70.0808 2.11086 70.0808C1.47673 70.0808 1.01596 69.6196 1.01596 68.9859C1.01596 68.4099 1.47715 67.891 2.11086 67.891C2.74457 67.891 3.2634 68.4099 3.2634 68.9859ZM74.2599 45.7049C74.2599 47.4339 73.165 48.2397 71.2054 48.2397H67.4604V46.5107H71.2054C71.5513 46.5107 71.8395 46.4535 71.9553 46.3386C72.0701 46.2229 72.1854 46.0499 72.1854 45.8198C72.1854 45.5887 72.0706 45.3586 71.9553 45.2437C71.8395 45.128 71.6094 45.0707 71.2635 45.0707C69.4776 45.0127 67.2298 45.128 67.2298 42.5927C67.2298 41.4398 67.9788 40.1719 69.9956 40.1719H73.8564V41.9009H70.2835C69.9384 41.9009 69.7074 41.9009 69.5345 42.0158C69.3615 42.1888 69.2466 42.3617 69.2466 42.6499C69.2466 42.9382 69.4196 43.1111 69.6498 43.2268C69.8808 43.2841 70.1114 43.3417 70.3996 43.3417H71.4364C72.5313 43.3417 73.2231 43.5719 73.6843 43.9759C74.0293 44.379 74.2599 44.8982 74.2599 45.7049V45.7049ZM66.1345 43.9759C65.6733 43.5719 64.9815 43.3417 63.8866 43.3417H62.8498C62.562 43.3417 62.331 43.2837 62.1008 43.2268C61.8698 43.1111 61.6977 42.9382 61.6977 42.6499C61.6977 42.3617 61.7549 42.1888 61.9855 42.0158C62.1584 41.9009 62.3886 41.9009 62.7345 41.9009H66.3074V40.1719H62.4467C60.3718 40.1719 59.68 41.4398 59.68 42.5927C59.68 45.1276 61.9278 45.0127 63.7145 45.0707C64.0596 45.0707 64.2906 45.128 64.4054 45.2437C64.5203 45.3586 64.6365 45.5887 64.6365 45.8198C64.6365 46.0499 64.5207 46.2229 64.4054 46.3386C64.2325 46.4535 64.0023 46.5107 63.6564 46.5107H59.9106V48.2397H63.6564C65.6152 48.2397 66.7105 47.4335 66.7105 45.7049C66.7105 44.8982 66.4804 44.379 66.1345 43.9759V43.9759ZM58.758 46.5692H54.2063V44.9555H58.6432V43.3426H54.2063V41.8437H58.758V40.1727H52.3044V48.2401H58.758V46.5692ZM50.2295 40.5763C49.5953 40.2304 48.8463 40.1723 47.8667 40.1723H43.4299V48.2397H45.3887V45.3009H47.4636C48.1545 45.3009 48.5585 45.359 48.8467 45.6468C49.1926 46.0499 49.1926 46.7417 49.1926 47.2605V48.2397H51.0938V46.6836C51.0938 45.9346 51.0365 45.5887 50.8059 45.1856C50.633 44.9546 50.2879 44.6668 49.8268 44.4938C50.3448 44.3217 51.2099 43.63 51.2099 42.3617C51.2095 41.4402 50.8636 40.9213 50.2295 40.5763V40.5763ZM39.2805 40.1723H33.1142L30.6362 42.8233L28.2735 40.1723H20.4939V48.2397H28.1586L30.6366 45.5887L32.9994 48.2397H36.7452V45.5319H39.1656C40.8366 45.5319 42.5084 45.0707 42.5084 42.8233C42.508 40.6335 40.7789 40.1723 39.2805 40.1723ZM48.6734 43.5151C48.3856 43.63 48.0973 43.63 47.7514 43.63L45.3887 43.688V41.8433H47.7514C48.0973 41.8433 48.4432 41.8433 48.6734 42.0162C48.9044 42.1319 49.0765 42.3621 49.0765 42.708C49.0765 43.0539 48.9044 43.3421 48.6734 43.5151V43.5151ZM39.2805 43.9182H36.7448V41.8433H39.2805C39.9723 41.8433 40.433 42.1319 40.433 42.8233C40.433 43.5151 39.9719 43.9182 39.2805 43.9182ZM31.8464 44.206L34.8429 41.0371V47.5488L31.8464 44.206ZM27.1786 46.5692H22.3955V44.9555H26.6597V43.3426H22.3955V41.8437H27.2362L29.3684 44.2064L27.1786 46.5692V46.5692ZM68.9003 34.352H66.1345L62.5039 28.301V34.352H58.5859L57.8361 32.5653H53.8024L53.0534 34.352H50.8055C49.8836 34.352 48.6734 34.1214 47.9824 33.4296C47.3483 32.7382 47.0024 31.8163 47.0024 30.3755C47.0024 29.1653 47.1754 28.0704 48.0392 27.2061C48.6153 26.572 49.653 26.2842 50.978 26.2842H52.8219V28.0132H50.978C50.2871 28.0132 49.8832 28.1285 49.48 28.4744C49.1341 28.8203 48.9612 29.454 48.9612 30.3183C48.9612 31.1826 49.1341 31.8167 49.48 32.2202C49.7679 32.5081 50.2871 32.6234 50.8051 32.6234H51.6698L54.4357 26.2846H57.3172L60.5443 33.8912V26.2842H63.5411L66.9411 31.8739V26.2842H68.8999V34.352H68.9003V34.352ZM46.0228 26.2842H44.064V34.352H46.0228V26.2842V26.2842ZM41.9311 26.63C41.2969 26.2842 40.606 26.2842 39.6264 26.2842H35.1887V34.352H37.0903V31.4127H39.1648C39.8566 31.4127 40.3177 31.4704 40.6056 31.7586C40.9515 32.1622 40.8934 32.8539 40.8934 33.3147V34.352H42.8522V32.7382C42.8522 32.0469 42.7949 31.701 42.5071 31.2975C42.3342 31.0669 41.9883 30.7786 41.5852 30.6061C42.1032 30.3755 42.9683 29.7418 42.9683 28.4739C42.9687 27.552 42.5648 27.0332 41.9311 26.63ZM33.8056 32.681H29.3107V31.0673H33.748V29.3963H29.3107V27.9555H33.8056V26.2846H27.3515V34.3524H33.8056V32.681ZM25.9107 26.2842H22.7414L20.3786 31.7586L17.8429 26.2842H14.7312V33.8908L11.4465 26.2842H8.56535L5.10772 34.352H7.18222L7.93122 32.5653H11.9649L12.7139 34.352H16.6327V28.0132L19.4562 34.352H21.1272L23.9511 28.0132V34.352H25.9103V26.2842H25.9107ZM57.1451 30.8367L55.8192 27.6673L54.4942 30.8367H57.1451ZM40.433 29.5693C40.1452 29.7422 39.857 29.7422 39.4534 29.7422H37.0903V27.956H39.453C39.7989 27.956 40.2016 27.956 40.4326 28.0712C40.6628 28.2442 40.7785 28.4748 40.7785 28.8203C40.7785 29.1657 40.6632 29.4535 40.433 29.5693V29.5693ZM8.62258 30.8367L9.94807 27.6673L11.2736 30.8367H8.62258V30.8367ZM73.7992 0.98584H5.04966V30.03L7.41239 24.6708H12.4257L13.1175 25.9963V24.6708H18.9955L20.321 27.552L21.5888 24.6708H40.3177C41.1816 24.6708 41.9306 24.8438 42.5075 25.3046V24.6708H47.6361V25.3046C48.5 24.8434 49.5949 24.6708 50.8632 24.6708H58.2968L58.9886 25.9963V24.6708H64.4631L65.2702 25.9963V24.6708H70.6289V35.9657H65.2125L64.1757 34.2371V35.9657H57.433L56.684 34.1218H55.0122L54.2632 35.9657H50.7483C49.3652 35.9657 48.3275 35.6198 47.6365 35.2743V35.9657H39.2805V33.3724C39.2805 33.0265 39.2229 32.9688 38.9923 32.9688H38.7044V35.9653H22.5684V34.5245L21.9923 35.9653H18.5924L18.0163 34.5821V35.9653H11.5042L10.8128 34.1214H9.14142L8.39241 35.9653H5.04966V70.0232H73.7992V49.3346C73.0502 49.6805 72.0125 49.8535 70.9752 49.8535H65.9615V49.1617C65.3855 49.6233 64.3478 49.8535 63.3686 49.8535H47.5785V47.2605C47.5785 46.9147 47.5213 46.9147 47.2326 46.9147H46.9448V49.8535H41.7581V46.7994C40.8942 47.2025 39.9142 47.2025 39.0499 47.2025H38.4734V49.8535H32.1346L30.6366 48.1244L28.9657 49.8535H18.7649V38.559H29.1378L30.6362 40.2872L32.2499 38.559H39.2229C40.0291 38.559 41.355 38.6739 41.9311 39.25V38.559H48.1545C48.7887 38.559 49.9993 38.6739 50.8055 39.25V38.559H60.1988V39.2504C60.7176 38.7892 61.6977 38.5594 62.5615 38.5594H67.8054V39.2504C68.3823 38.8473 69.1886 38.5594 70.2262 38.5594H73.7992V0.98584V0.98584Z" fill="#0077A6"/>
</svg>
