<svg width="120" height="67" viewBox="0 0 120 67" fill="none" xmlns="http://www.w3.org/2000/svg">
<path fill-rule="evenodd" clip-rule="evenodd" d="M8.62036 66.6606C32.9146 56.2491 67.0027 46.8121 112.15 56.2613L112.623 44.8103C64.9908 39.6097 30.8126 54.7803 8.62036 65.5318V66.6606Z" fill="#E7A83A"/>
<path fill-rule="evenodd" clip-rule="evenodd" d="M34.0252 36.4656L44.5545 1.74766H53.9496L43.4196 36.4656H34.0252ZM29.8253 1.75714L21.3742 16.4741C19.2229 20.3286 17.9654 22.2754 17.3606 24.7112H17.232C17.3816 21.6233 16.951 17.8325 16.9103 15.6899L15.9772 1.75714H0.162522L0 2.69096C4.06303 2.69096 6.47241 4.73195 7.13536 8.90671L10.2178 36.4656H19.9508L39.6308 1.75714H29.8253ZM102.886 36.4656L102.627 31.3021L90.8954 31.2927L88.4962 36.4649H78.2966L96.7908 1.81334H109.31L112.442 36.4649H102.886V36.4656ZM101.809 15.9865C101.704 13.4207 101.617 9.93805 101.792 7.83069H101.653C101.081 9.55409 98.6253 14.7297 97.5452 17.2752L94.0496 24.8853H102.287L101.809 15.9865ZM63.8126 37.4522C57.1797 37.4522 52.7781 35.3482 49.6353 33.4725L54.1107 26.6378C56.9318 28.2156 59.1469 30.0365 64.2433 30.0365C65.882 30.0365 67.4612 29.6106 68.3577 28.0578C69.6647 25.7994 68.0564 24.5846 64.3861 22.507L62.574 21.3288C57.1336 17.6111 54.7805 14.0803 57.3415 7.91669C58.9803 3.9742 63.3027 0.98584 70.4333 0.98584C75.3509 0.98584 79.9611 3.11283 82.6474 5.19107L77.5023 11.2254C74.8809 9.10513 72.7079 8.03249 70.2213 8.03249C68.2386 8.03249 66.7325 8.79701 66.2125 9.82834C65.234 11.7671 66.5287 13.0889 69.3877 14.8638L71.5425 16.2344C78.1476 20.4003 79.7214 24.7688 78.0657 28.8528C75.2189 35.8825 69.6444 37.4522 63.8126 37.4522ZM115.012 7.11763H114.393V3.35391H115.821C116.73 3.35391 117.194 3.67218 117.194 4.43603C117.194 5.11726 116.775 5.39897 116.211 5.46262L117.266 7.11763H116.566L115.594 5.50867H115.012V7.11763ZM115.702 4.98115C116.167 4.98115 116.575 4.93578 116.575 4.38998C116.575 3.9356 116.129 3.88075 115.758 3.88075H115.011V4.98115H115.702ZM115.684 8.57219C113.73 8.57219 112.339 7.10882 112.339 5.17211C112.339 3.12638 113.884 1.77204 115.684 1.77204C117.467 1.77204 119.012 3.12638 119.012 5.17211C119.012 7.21717 117.467 8.57219 115.684 8.57219ZM115.684 2.36321C114.212 2.36321 113.067 3.51711 113.067 5.17211C113.067 6.71742 114.067 7.98102 115.684 7.98102C117.138 7.98102 118.284 6.83592 118.284 5.17211C118.284 3.51711 117.138 2.36321 115.684 2.36321Z" fill="#1D5B99"/>
</svg>
