<svg width="138" height="86" viewBox="0 0 138 86" fill="none" xmlns="http://www.w3.org/2000/svg">
<path d="M69.0955 0.00241128H131.167C136.011 0.00241128 138 2.04164 138 6.97701C138 30.7247 138 54.4741 138 78.2254C138 83.1825 136.021 85.2 131.172 85.2H6.82785C1.94702 85.2 0 83.1879 0 78.2363C0 54.3729 0 30.5095 0 6.64619C0 2.16638 2.06374 0.0349456 6.46709 0.0295221C27.3521 0.00421249 48.2282 -0.00482004 69.0955 0.00241128ZM3.05583 20.9805V78.2417C3.05583 81.4199 3.83038 82.2442 6.92865 82.2442H131.098C134.175 82.2442 134.971 81.409 134.971 78.2363V20.9805H3.05583ZM100.789 6.87939V15.6546H103.208V10.7735C103.431 11.0284 103.532 11.0989 103.574 11.1965C103.935 12.0697 104.28 12.9428 104.635 13.816C105.548 16.1047 105.909 16.2675 108.429 15.4702V6.79263H106.025V11.1856C105.518 10.5306 105.113 9.79866 104.826 9.01625C103.744 6.33162 103.702 6.3045 100.762 6.87396L100.789 6.87939ZM11.0137 6.6299V15.801C13.6292 15.5733 16.4463 16.6525 18.2447 13.9082C18.7912 13.1282 19.092 12.1964 19.1072 11.2372C19.1224 10.2779 18.8511 9.33664 18.3296 8.53898C16.5311 5.74046 13.6663 6.91737 10.9871 6.62451L11.0137 6.6299ZM24.0009 12.509C25.55 12.6174 25.5501 12.6174 25.6933 13.7835C25.9798 16.0505 26.2238 16.1861 28.5528 15.4105C28.4414 14.4018 28.4998 13.3008 28.1549 12.3463C27.997 12.0434 27.9256 11.7011 27.9491 11.3587C27.9725 11.0163 28.0898 10.6875 28.2876 10.4101C28.4983 10.07 28.62 9.68029 28.641 9.27829C28.6619 8.87629 28.5815 8.47552 28.4073 8.11448C28.2331 7.75343 27.971 7.44422 27.6463 7.21654C27.3215 6.98886 26.945 6.85036 26.5527 6.81431C24.804 6.70436 23.0508 6.68986 21.3005 6.77092V15.6655H23.8152C23.8736 14.5808 23.9319 13.5991 24.0009 12.509ZM54.8562 15.7631C55.6997 15.7034 56.8828 15.8987 57.0526 15.557C57.4929 14.6892 57.4823 13.5828 57.6468 12.5795C59.1694 12.5036 59.1694 12.5036 59.2914 13.7943C59.493 15.9637 59.5354 15.9637 62.1244 15.519C62.0183 14.4614 62.0873 13.3171 61.7424 12.3246C61.4719 11.5436 61.3923 11.088 61.8485 10.3287C62.0581 9.98814 62.1774 9.59772 62.1949 9.19576C62.2123 8.7938 62.1273 8.39411 61.948 8.03589C61.7688 7.67767 61.5016 7.37323 61.1726 7.15242C60.8436 6.93161 60.464 6.80201 60.0713 6.77635C58.3349 6.66646 56.5941 6.65196 54.8562 6.73295V15.7631ZM117.829 9.52606C117.644 7.35666 116.519 6.77634 115.134 6.53228C113.543 6.25568 112.089 6.49432 111.113 7.92069C110.931 8.20587 110.81 8.52684 110.757 8.86289C110.704 9.19894 110.721 9.5426 110.806 9.87171C110.891 10.2008 111.042 10.5081 111.25 10.7736C111.459 11.0392 111.719 11.2571 112.015 11.4134C112.715 11.7985 113.543 11.9558 114.254 12.3137C114.667 12.5845 115.027 12.9322 115.315 13.3388C115.347 13.3713 115.076 13.8323 114.949 13.8323C114.466 13.8323 113.776 13.892 113.543 13.6099C112.646 12.5252 111.675 12.8561 110.62 13.0676C111.15 15.237 112.667 16.2132 114.943 15.9258C116.938 15.6763 117.978 14.8411 118.127 13.2629C118.275 11.4134 117.065 10.6921 115.612 10.1769C114.859 9.91113 114.137 9.54776 113.405 9.22777L113.617 8.49558L117.829 9.52606ZM46.0071 15.7522C47.779 15.7522 49.4449 15.7088 51.1054 15.7522C52.4636 15.801 52.8031 15.1502 52.5644 13.713C51.5033 13.713 50.4422 13.7727 49.4502 13.675C49.1371 13.6425 48.8666 13.1598 48.5801 12.8886C48.8772 12.6337 49.1531 12.1944 49.4767 12.1619C50.3984 12.0972 51.3229 12.0845 52.246 12.1239V10.0738L48.2512 9.8352C49.4555 7.96952 51.1638 9.21692 52.3628 8.40882V6.78177H45.9965L46.0071 15.7522ZM126.535 9.97622C125.554 9.97622 124.641 10.025 123.745 9.94907C123.437 9.94907 123.161 9.57485 122.869 9.37419C123.14 9.16267 123.4 8.80472 123.692 8.76676C124.434 8.67456 125.214 8.83184 125.931 8.66914C126.136 8.58636 126.318 8.45213 126.46 8.27873C126.602 8.10533 126.699 7.89832 126.742 7.67666C126.742 7.32956 126.244 6.70043 125.941 6.68416C124.116 6.59196 122.281 6.64076 120.334 6.64076V15.7522C122.1 15.7522 123.761 15.6926 125.416 15.7522C126.817 15.8173 127.114 15.1556 126.822 13.7022C125.809 13.7022 124.779 13.7672 123.766 13.6696C123.442 13.6371 123.156 13.1761 122.848 12.9103C123.145 12.6446 123.421 12.1944 123.745 12.1564C124.674 12.0916 125.605 12.079 126.535 12.1185V9.97622ZM98.078 9.97622C97.2776 10.0234 96.4752 10.0234 95.6747 9.97622C95.2364 9.85591 94.8168 9.67334 94.428 9.43387C94.8206 9.20066 95.1867 8.821 95.6005 8.77219C96.4834 8.70906 97.369 8.6982 98.2531 8.73965V6.81431H91.8232V15.7739C93.6853 15.7739 95.3405 15.7197 96.9905 15.7739C98.5449 15.839 98.6988 15.0743 98.3168 13.7401C97.3797 13.784 96.4409 13.7731 95.505 13.7076C95.1177 13.6588 94.7782 13.2195 94.444 12.9591C94.7888 12.688 95.1018 12.2378 95.4731 12.1836C96.3555 12.1095 97.2417 12.0968 98.1258 12.1456L98.078 9.97622ZM89.5896 10.166C89.1971 7.34581 87.7063 6.234 85.4463 6.44552C82.9528 6.67331 81.4461 8.55526 81.5204 11.3267C81.5946 14.0981 83.0217 15.7793 85.5258 15.9203C87.7859 16.0451 89.2766 14.8682 89.5313 12.2541C88.4172 12.7151 87.5365 13.1598 86.6134 13.431C86.0784 13.6335 85.4876 13.618 84.9635 13.3876C84.1783 12.8127 84.104 9.81892 84.8574 9.04879C85.0893 8.87888 85.3548 8.76272 85.6351 8.7084C85.9155 8.65407 86.2041 8.66287 86.4808 8.73422C87.5533 9.14803 88.5958 9.6392 89.6003 10.204L89.5896 10.166ZM35.3647 6.81974C36.2136 9.63996 36.9882 12.3517 37.8635 15.0201C38.1924 16.0071 41.0467 16.1644 41.4021 15.1936C42.3995 12.4819 43.2377 9.66706 44.1449 6.86854C41.4923 6.32619 41.4552 6.37502 40.861 8.71796C40.548 9.9491 40.2191 11.1748 39.8901 12.4222C39.7044 12.3354 39.6355 12.3246 39.6302 12.2975C39.3225 11.1043 39.0254 9.91113 38.7177 8.71796C38.1447 6.45095 38.1394 6.45095 35.3754 6.85771L35.3647 6.81974ZM68.2572 15.7414C69.9602 15.7414 71.4404 15.6709 72.9471 15.7414C74.4538 15.8119 74.8305 15.2316 74.4485 13.6967C73.9069 13.6242 73.3601 13.6006 72.8145 13.6262C71.329 13.8106 70.6924 13.29 70.8462 11.6846C71.0001 10.0792 70.8462 8.4305 70.8462 6.69498H68.2307L68.2572 15.7414ZM33.5504 6.76009H30.8977V15.6329H33.5504V6.76009ZM76.6767 6.76009V15.6437H79.255V6.76009H76.6767Z" fill="#F4A640"/>
<path d="M32.8067 73.661C27.2154 73.661 21.6188 73.661 16.0275 73.661C12.7423 73.661 11.2121 72.0568 11.2121 68.6994C11.2121 57.306 11.2121 45.898 11.2121 34.4752C11.2121 30.7265 12.646 29.2876 16.3165 29.2876H49.1846C52.9299 29.2876 54.3371 30.7595 54.3371 34.6186C54.3371 45.8465 54.3371 57.0745 54.3371 68.3024C54.3371 72.2001 52.9513 73.65 49.2274 73.661C43.7645 73.6665 38.2856 73.6555 32.8067 73.661ZM45.8887 64.879C46.3274 59.4818 40.5756 54.3658 33.8554 54.0791C25.8778 53.7318 19.6231 58.4288 19.6231 64.879H45.8887ZM32.8495 51.7417C33.7225 51.7446 34.5874 51.5694 35.3943 51.2262C36.2012 50.883 36.9342 50.3786 37.551 49.7421C38.1678 49.1055 38.6562 48.3495 38.988 47.5175C39.3197 46.6855 39.4884 45.7941 39.4841 44.8946C39.4799 43.0475 38.764 41.2776 37.4938 39.9741C36.2237 38.6705 34.5031 37.9399 32.7104 37.9428C30.95 37.9893 29.2748 38.7331 28.0331 40.0197C26.7914 41.3063 26.0789 43.0365 26.0437 44.8505C26.0457 45.7652 26.224 46.6703 26.5682 47.5133C26.9124 48.3564 27.4157 49.1206 28.0488 49.7617C28.6819 50.4028 29.4323 50.9079 30.2564 51.2478C31.0805 51.5876 31.9619 51.7555 32.8495 51.7417Z" fill="#F4A640"/>
<path d="M65.5502 33.7251V29.2876H125.925V33.7251H65.5502Z" fill="#F4A640"/>
<path d="M121.613 69.2251V73.6626H65.5502V69.2251H121.613Z" fill="#F4A640"/>
<path d="M65.5502 53.2497V49.6997H111.997C114.776 49.6997 114.781 49.6997 114.686 52.23C114.686 52.5322 114.611 52.8343 114.559 53.2497H65.5502Z" fill="#F4A640"/>
<path d="M65.5502 59.4624H104.363V63.8999H65.5502V59.4624Z" fill="#F4A640"/>
<path d="M94.8752 39.9375V43.4875H65.5502V39.9375H94.8752Z" fill="#F4A640"/>
<path d="M13.8002 13.3125V8.88049C15.7259 8.81732 16.3154 9.2887 16.3828 10.8243C16.4502 12.5204 15.827 13.1861 13.8002 13.3125Z" fill="#F4A640"/>
<path d="M24.1496 10.65V8.91112C24.5484 8.85395 24.9551 8.86472 25.3498 8.9429C25.5976 9.04733 25.7045 9.44686 25.8746 9.71473L24.1496 10.65Z" fill="#F4A640"/>
<path d="M58.3217 8.875L59.5119 9.91857C59.2144 10.1795 58.7917 10.7264 58.6494 10.6411C58.2958 10.4354 58.0672 9.93363 57.7869 9.5473L58.3217 8.875Z" fill="#F4A640"/>
</svg>
