<svg width="141" height="108" viewBox="0 0 141 108" fill="none" xmlns="http://www.w3.org/2000/svg">
<g clip-path="url(#clip0_1_1252)">
<path d="M36.3099 0C40.2272 0.626884 43.8221 1.19653 47.4143 1.77659C57.9785 3.48297 68.5428 5.18935 79.107 6.89572C80.3296 7.09081 81.4169 7.43155 81.8045 8.76335C82.192 10.0952 81.5677 10.99 80.5715 11.7885C75.2339 16.077 69.9049 20.3776 64.5847 24.6904C59.0546 29.154 53.5062 33.5942 48.0126 38.102C46.8134 39.0853 45.6715 39.4469 44.0926 39.1867C30.2491 36.8908 16.3909 34.6416 2.51796 32.4393C1.33963 32.2494 0.457828 31.7604 0.119675 30.5743C-0.218478 29.3881 0.293954 28.4933 1.21477 27.7416C12.3825 18.7346 23.5493 9.73015 34.7153 0.728342C35.2304 0.319958 35.9379 0.163874 36.3099 0ZM8.68535 28.2618C8.83828 28.3393 8.99752 28.4037 9.16137 28.4543C20.78 30.341 32.4046 32.213 44.0354 34.0702C44.5739 34.1084 45.1072 33.9442 45.531 33.6098C54.5814 26.3456 63.6153 19.0623 72.6327 11.7599C72.8503 11.5517 73.0528 11.3283 73.2388 11.0914C72.846 10.99 72.5989 10.9093 72.344 10.8677C60.9768 9.0287 49.6097 7.17926 38.2321 5.40525C37.4869 5.34181 36.7448 5.55886 36.1512 6.01392C27.2552 13.1221 18.3851 20.2666 9.54114 27.4476C9.28102 27.6765 9.0209 27.9445 8.68535 28.2618Z" fill="#F4A640"/>
<path d="M57.1427 65.4144C57.1427 62.3346 57.1427 59.221 57.1427 56.1074C57.1427 54.3698 58.1831 53.2825 59.6996 53.3372C61.1355 53.3892 62.0901 54.5207 62.0901 56.1724C62.0901 59.2938 62.0901 62.3867 62.0901 65.5809H89.9825L90.4039 65.1725C90.078 65.0924 89.7627 64.9736 89.4649 64.8187C85.251 61.9418 81.1125 58.9453 76.7998 56.2349C75.5694 55.4545 73.85 55.3088 72.3284 55.1944C70.263 55.0253 68.1665 55.1554 66.0855 55.1632C64.1971 55.1632 63.0968 54.271 63.0812 52.6973C63.0656 51.1235 64.1502 50.1741 66.0361 50.1611C68.2445 50.1455 70.4581 50.1611 72.6665 50.1611C75.057 50.1611 77.3252 50.6814 79.3697 51.9221C85.3993 55.6028 91.2701 59.5097 96.4881 64.3089C97.284 65.0425 98.1737 65.7656 98.6835 66.6786C99.0711 67.3731 99.2375 68.515 98.9228 69.1835C98.608 69.852 97.5962 70.224 96.8419 70.6272C96.5817 70.7729 96.1603 70.6584 95.8144 70.6584L35.8859 70.674C33.5448 70.674 31.6277 69.8208 30.5014 67.6983C29.3751 65.5757 29.6092 63.4219 30.9046 61.4138C31.4361 60.5714 32.0272 59.7682 32.6734 59.0103C33.7373 57.7956 35.2252 57.6421 36.2448 58.5499C37.3867 59.567 37.4388 60.9222 36.4269 62.241C35.9135 62.8837 35.4459 63.5617 35.0275 64.2699C34.5931 65.0346 34.7387 65.6797 35.761 65.6797C42.779 65.6797 49.797 65.6615 56.8149 65.6251C56.8566 65.6043 56.8826 65.5627 57.1427 65.4144Z" fill="#F4A640"/>
<path d="M128.277 98.6028C127.583 98.6028 126.888 98.6314 126.196 98.6028C124.617 98.5222 123.579 97.5233 123.569 96.1083C123.559 94.6933 124.609 93.671 126.17 93.6034C127.51 93.5461 128.86 93.6034 130.197 93.5305C134 93.2964 135.605 91.5536 135.17 87.8079C134.725 83.8345 133.53 79.9816 131.648 76.4538C130.41 74.1518 128.311 72.7471 125.926 71.9902C122.385 70.8639 118.796 69.7454 115.141 69.1575C107.392 67.9115 100.907 64.2725 94.8519 59.5175C91.0802 56.56 87.2409 53.6337 83.1466 51.147C80.6521 49.6305 77.6633 48.8709 74.8359 47.9683C73.0488 47.3987 72.0994 46.4492 72.4011 44.8989C72.6899 43.4188 73.9046 42.7009 75.6864 43.0131C80.4726 43.848 84.7906 45.8379 88.6923 48.642C92.0739 51.0611 95.4086 53.5504 98.6496 56.1542C104.07 60.506 110.095 63.3517 117.006 64.4546C120.367 64.9904 123.686 65.9503 126.927 67.0141C132.176 68.7335 135.945 72.1723 137.592 77.5489C138.614 80.8888 139.673 84.2807 140.099 87.7273C140.833 93.684 137.347 97.7106 131.362 98.4312C130.322 98.556 129.281 98.5768 128.241 98.6444L128.277 98.6028Z" fill="#F4A640"/>
<path d="M32.78 107.358C30.6828 107.362 28.6058 106.95 26.6683 106.147C24.7308 105.345 22.9712 104.167 21.4907 102.681C20.0102 101.196 18.8381 99.4325 18.0417 97.4924C17.2453 95.5524 16.8405 93.4739 16.8504 91.3768C16.8504 82.6499 24.0218 75.5278 32.8034 75.533C37.0177 75.5337 41.0602 77.2034 44.0464 80.177C47.0327 83.1506 48.7197 87.186 48.7382 91.4002C48.743 93.4972 48.3335 95.5745 47.5333 97.5128C46.733 99.4511 45.5577 101.212 44.0749 102.695C42.5921 104.178 40.8309 105.353 38.8926 106.153C36.9543 106.954 34.877 107.363 32.78 107.358ZM32.7306 102.38C34.1748 102.391 35.6069 102.116 36.9437 101.569C38.2805 101.022 39.4954 100.216 40.5178 99.1955C41.5403 98.1755 42.3499 96.9625 42.8997 95.627C43.4495 94.2915 43.7285 92.86 43.7206 91.4158C43.744 85.4331 38.8121 80.5169 32.7956 80.5091C29.9243 80.5188 27.1711 81.6529 25.126 83.6683C23.081 85.6838 21.9067 88.4201 21.8551 91.2909C21.8369 92.7343 22.1042 94.167 22.6416 95.5066C23.1791 96.8463 23.9761 98.0665 24.9868 99.097C25.9975 100.128 27.202 100.948 28.531 101.511C29.8599 102.075 31.2872 102.37 32.7306 102.38Z" fill="#F4A640"/>
<path d="M122.817 91.4938C122.807 95.7066 121.126 99.7431 118.143 102.718C115.16 105.693 111.119 107.362 106.906 107.361C104.808 107.371 102.73 106.966 100.79 106.168C98.85 105.369 97.0878 104.195 95.605 102.711C94.1222 101.228 92.9482 99.4647 92.151 97.5246C91.3538 95.5844 90.9492 93.5055 90.9606 91.408C90.9646 89.3118 91.3831 87.2372 92.1921 85.3034C93.001 83.3696 94.1844 81.6148 95.674 80.1401C97.1637 78.6654 98.9304 77.4999 100.872 76.7105C102.814 75.9212 104.893 75.5237 106.989 75.5408C111.201 75.5642 115.233 77.2564 118.199 80.2467C121.166 83.237 122.827 87.2815 122.817 91.4938ZM117.805 91.473C117.815 88.5791 116.677 85.7993 114.64 83.7438C112.603 81.6882 109.833 80.5249 106.94 80.5091C104.045 80.5034 101.266 81.6405 99.2053 83.6731C97.1449 85.7058 95.9702 88.4697 95.9366 91.3638C95.9277 92.808 96.2047 94.2396 96.7515 95.5763C97.2984 96.913 98.1044 98.1282 99.1231 99.152C100.142 100.176 101.353 100.988 102.687 101.541C104.021 102.095 105.451 102.379 106.895 102.377C108.329 102.381 109.748 102.101 111.073 101.554C112.398 101.008 113.602 100.205 114.615 99.1914C115.629 98.1782 116.432 96.9748 116.98 95.6503C117.527 94.3258 117.807 92.9062 117.805 91.473Z" fill="#F4A640"/>
<path d="M36.6402 56.9164C33.7399 56.4976 29.9604 56.0554 26.2199 55.3817C23.6655 54.9213 22.0138 53.2539 21.3296 50.6996C20.5545 47.8157 19.7906 44.9267 19.038 42.0324C18.6166 40.4041 19.2565 39.1217 20.6533 38.7003C22.0996 38.2633 23.3846 39.0411 23.8528 40.7266C24.6045 43.4397 25.3303 46.1631 26.0066 48.8943C26.2667 49.9062 26.7713 50.4108 27.8118 50.6241C42.805 53.6849 56.071 50.1967 67.6098 40.1596C68.5176 39.3792 68.7569 38.5989 68.4084 37.431C67.628 34.7752 66.9387 32.0855 66.2676 29.3959C65.8644 27.778 66.5979 26.467 67.9974 26.1262C69.298 25.8063 70.5751 26.4202 70.9653 27.7884C71.8965 31.0789 72.8043 34.3824 73.5665 37.7171C74.0269 39.7512 73.3376 41.6189 71.8185 43.0443C63.989 50.4499 54.734 54.9187 44.0353 56.3103C41.8737 56.6016 39.7148 56.6719 36.6402 56.9164Z" fill="#F4A640"/>
<path d="M20.2475 62.7456H19.4672C15.2117 62.7456 13.9735 63.8901 13.5625 68.1743C12.9625 74.5524 12.3478 80.9296 11.7183 87.306C11.492 89.595 12.2385 91.3586 14.2882 92.5395C15.8802 93.4551 16.3172 94.904 15.5004 96.2202C14.72 97.4766 13.279 97.7211 11.7365 96.8211C8.07403 94.6881 6.38327 91.4392 6.73442 87.2721C7.32229 80.3357 8.00033 73.3992 8.76855 66.4627C9.25236 62.0251 11.8718 58.8361 15.7033 58.0297C17.29 57.6941 18.9782 57.871 20.6117 57.715C21.4976 57.6365 22.3676 57.4307 23.1947 57.1037C24.5473 56.5418 25.9155 56.8436 26.5944 58.0375C27.2733 59.2314 26.8988 60.5659 25.6918 61.4347C23.9282 62.7014 21.9357 62.8861 20.2475 62.7456Z" fill="#F4A640"/>
<path d="M69.7428 93.5878C75.4133 93.5878 81.0848 93.5878 86.7571 93.5878C87.3185 93.5604 87.881 93.6085 88.4296 93.7308C89.6106 94.0612 90.227 94.9065 90.2036 96.1343C90.1802 97.3621 89.5221 98.1658 88.3412 98.4754C87.8754 98.5736 87.399 98.6121 86.9235 98.5898C75.5356 98.5898 64.1476 98.5898 52.7597 98.5898C52.4996 98.5898 52.2394 98.5898 51.9793 98.5898C50.5019 98.4884 49.5056 97.4921 49.4952 96.1161C49.4848 94.7401 50.4758 93.6918 51.9429 93.6112C52.8923 93.5591 53.8496 93.5955 54.8042 93.5955L69.7428 93.5878Z" fill="#F4A640"/>
<path d="M5.02025 44.3813C5.02025 46.327 5.05667 48.2831 5.00725 50.2158C4.97603 51.4019 4.39597 52.2967 3.20723 52.6322C2.16676 52.9236 1.17051 52.6868 0.57224 51.7478C0.235815 51.1989 0.0509216 50.5706 0.0363976 49.927C-0.0104236 46.2108 -0.0104236 42.4928 0.0363976 38.7731C0.0520047 37.0538 1.01444 36.0237 2.4737 36.0003C3.99539 35.9717 4.99945 37.0408 5.03066 38.7992C5.06447 40.6564 5.03066 42.5163 5.03066 44.3761L5.02025 44.3813Z" fill="#F4A640"/>
<path d="M76.1755 74.62C77.0417 74.62 77.9131 74.5524 78.7767 74.62C80.1995 74.7579 81.0839 75.7801 81.0605 77.1302C81.0345 78.4308 80.1761 79.4452 78.8053 79.5258C77.0786 79.6247 75.3478 79.6247 73.6211 79.5258C72.1853 79.4452 71.3191 78.3865 71.3425 77.0235C71.3659 75.6605 72.3023 74.6825 73.72 74.5914C74.5367 74.5316 75.3613 74.5914 76.1833 74.5914L76.1755 74.62Z" fill="#F4A640"/>
<path d="M39.7824 91.3976C39.7948 92.3204 39.6237 93.2366 39.279 94.0927C38.9343 94.9489 38.423 95.728 37.7746 96.3848C37.1262 97.0416 36.3538 97.5631 35.5022 97.9189C34.6506 98.2746 33.7368 98.4576 32.8138 98.4572C30.9512 98.4572 29.1648 97.7172 27.8477 96.4001C26.5306 95.083 25.7906 93.2967 25.7906 91.434C25.7959 89.5919 26.5247 87.8257 27.8199 86.5159C29.1151 85.206 30.8731 84.4575 32.715 84.4316C33.6377 84.4203 34.5535 84.592 35.4095 84.9368C36.2654 85.2816 37.0445 85.7926 37.7017 86.4404C38.3589 87.0882 38.8812 87.8598 39.2383 88.7107C39.5955 89.5615 39.7804 90.4748 39.7824 91.3976ZM32.8242 89.4155C32.2987 89.4256 31.7968 89.6357 31.4208 90.003C31.0447 90.3703 30.8229 90.8672 30.8005 91.3924C30.78 91.9192 30.9677 92.4329 31.3231 92.8224C31.6784 93.2118 32.1729 93.4457 32.6994 93.4733C32.9692 93.4806 33.2377 93.4339 33.4892 93.336C33.7407 93.2381 33.9701 93.0909 34.1639 92.9031C34.3578 92.7153 34.5121 92.4907 34.618 92.2425C34.7238 91.9942 34.779 91.7273 34.7803 91.4574C34.7714 90.9332 34.565 90.4317 34.2024 90.0532C33.8397 89.6746 33.3475 89.4469 32.8242 89.4155Z" fill="#F4A640"/>
<path d="M113.88 91.4314C113.887 92.3544 113.711 93.2697 113.361 94.124C113.012 94.9783 112.496 95.7547 111.844 96.4082C111.192 97.0616 110.417 97.5789 109.563 97.9303C108.71 98.2816 107.795 98.4598 106.872 98.4546C105.949 98.4529 105.035 98.2693 104.183 97.9142C103.332 97.5592 102.558 97.0398 101.907 96.3856C101.256 95.7314 100.74 94.9553 100.389 94.1016C100.038 93.248 99.859 92.3336 99.8618 91.4106C99.8878 89.5475 100.649 87.7701 101.978 86.4651C103.308 85.16 105.1 84.4329 106.963 84.442C108.801 84.4699 110.555 85.2175 111.849 86.5243C113.142 87.8311 113.871 89.5929 113.88 91.4314ZM108.901 91.4132C108.871 90.8902 108.647 90.397 108.275 90.029C107.902 89.661 107.406 89.4443 106.882 89.4207C106.611 89.4294 106.345 89.4916 106.098 89.6036C105.851 89.7156 105.628 89.8753 105.443 90.0734C105.258 90.2716 105.114 90.5044 105.019 90.7584C104.924 91.0124 104.88 91.2826 104.89 91.5536C104.922 92.0803 105.156 92.5742 105.544 92.9319C105.932 93.2897 106.443 93.4837 106.971 93.4733C107.493 93.4367 107.983 93.2042 108.342 92.8223C108.701 92.4404 108.902 91.9372 108.906 91.4132H108.901Z" fill="#F4A640"/>
</g>
<defs>
<clipPath id="clip0_1_1252">
<rect width="140.224" height="107.364" fill="white"/>
</clipPath>
</defs>
</svg>
