<svg width="97" height="105" viewBox="0 0 97 105" fill="none" xmlns="http://www.w3.org/2000/svg">
<path d="M82.902 34.4412C82.902 53.4266 67.4724 68.8073 48.4159 68.8023C29.4543 68.8023 14.1047 53.3392 14.0997 34.2488C14.0997 15.4957 29.6092 0.00510725 48.3984 0.000111081C52.9273 -0.0113953 57.4138 0.871121 61.601 2.59707C65.7881 4.32302 69.5934 6.85846 72.7988 10.0581C76.0042 13.2576 78.5466 17.0585 80.2803 21.2426C82.0141 25.4268 82.905 29.912 82.902 34.4412ZM48.4784 6.73495C36.2136 6.73495 25.2828 14.9636 21.9456 26.6796C21.3261 28.848 22.7399 30.3094 24.9431 29.8722C29.859 28.8979 34.7699 27.8737 39.7132 27.0768C44.0914 26.3202 48.5501 26.143 52.9746 26.5497C59.3249 27.2242 65.6258 28.303 71.8388 29.7798C72.3122 29.903 72.8074 29.9184 73.2876 29.8247C74.7863 29.4625 75.4682 28.0436 74.9811 26.3824C71.594 14.8312 60.6557 6.72496 48.4784 6.73495ZM28.7024 40.7963L28.6875 41.0037C27.6458 41.0037 26.6042 41.0037 25.5626 41.0037C25.2065 41.0191 24.8523 41.0634 24.5035 41.136C22.5051 41.4883 21.9656 42.4625 22.6925 44.3461C24.0353 47.8361 26.0751 51.0159 28.6875 53.6914C31.5638 56.6955 35.0989 58.99 39.0138 60.3938C41.9913 61.453 44.6716 59.6444 44.5616 56.5093C44.4841 54.1844 44.1796 51.8727 43.6524 49.6071C42.5808 45.0456 39.6058 42.2877 34.9822 41.4783C32.9139 41.1036 30.7982 41.0111 28.7024 40.7963ZM52.6249 54.5657C52.4375 59.2147 55.5824 61.443 59.0245 60.0041C65.9262 57.1188 70.7647 52.1351 73.8896 45.3978C74.1494 44.8244 74.3527 44.227 74.4965 43.6142C74.8937 41.9579 74.4366 41.2959 72.748 41.1336C69.2514 40.7715 65.7216 40.8892 62.2568 41.4833C57.4458 42.3426 54.3634 45.0855 53.3518 49.9368C52.9871 51.7554 52.7748 53.6065 52.6249 54.5657ZM48.4484 38.1209C49.46 38.1209 50.4742 38.1558 51.4858 38.1209C52.3729 38.1078 53.2192 37.7467 53.8425 37.1154C54.4658 36.4841 54.8162 35.6331 54.818 34.746C54.8006 32.8674 53.3193 31.4285 51.3759 31.411C49.46 31.3935 47.5441 31.396 45.6307 31.411C43.6324 31.426 42.1736 32.8149 42.1562 34.696C42.1337 36.6395 43.5625 38.0809 45.5758 38.1284C46.5325 38.1409 47.4792 38.1209 48.4484 38.1209Z" fill="#F4A640"/>
<path d="M16.1359 68.7924C17.1078 68.1797 17.8832 67.532 18.7745 67.1609C20.4059 66.4859 22.0475 66.71 23.5228 67.6591C29.4571 71.4651 35.4215 75.2264 41.2953 79.1171C44.5104 81.2468 46.1166 84.3828 46.2174 88.2213C46.2677 90.1617 46.235 92.1046 46.2174 94.045C46.2174 95.1584 45.6383 95.826 44.7067 95.826C43.7752 95.826 43.2112 95.1534 43.1961 94.0425C43.1961 92.2366 43.1961 90.4332 43.1961 88.6273C43.181 85.4564 41.829 82.9954 39.1401 81.2668C33.5072 77.6367 27.8608 74.0075 22.2011 70.3791C20.5419 69.313 19.497 69.6144 18.1727 71.5199C17.2236 72.8725 17.4552 74.0606 18.8651 75.1267L30.0059 83.5384C30.094 83.6032 30.1847 83.668 30.2577 83.7377C31.0558 84.3903 31.1943 85.2497 30.6177 85.9571C30.0412 86.6645 29.2128 86.7043 28.4047 86.0891C25.9188 84.2209 23.4381 82.347 20.9623 80.4672C19.5776 79.421 18.1954 78.3732 16.8157 77.3237C15.1062 76.0309 14.371 74.3197 14.7008 72.2224C14.794 71.6171 14.6001 71.3381 14.1268 71.0566C13.2255 70.5236 12.3644 69.9332 11.4656 69.3902C10.9107 69.0785 10.4413 68.6373 10.0981 68.105C9.75498 67.5728 9.54853 66.9656 9.49675 66.3364C9.19967 63.4536 8.89167 60.5725 8.57276 57.6931C8.48149 56.6769 8.03068 55.7253 7.29975 55.0058C6.56881 54.2863 5.60467 53.8451 4.57718 53.76C3.5273 53.6578 2.97844 54.1361 3.06656 55.1698C3.45428 60.1839 3.84453 65.2006 4.27253 70.2122C4.39842 71.7068 5.22422 72.8476 6.32949 73.8389C10.9772 78.007 15.6131 82.1867 20.2372 86.3781C23.1762 89.035 26.1035 91.7011 29.019 94.3763C29.2858 94.6254 29.3966 95.0388 29.5804 95.3726C29.2139 95.5661 28.8262 95.7174 28.4248 95.8235C27.0124 96.0427 25.9323 95.5021 24.8673 94.5357C18.1534 88.4347 11.3985 82.3735 4.60235 76.3523C2.4321 74.4343 1.28403 72.1601 1.10275 69.2906C0.805665 64.6252 0.387727 59.9672 0.0151081 55.3093C-0.188825 52.7362 1.69441 50.7286 4.29519 50.756C6.09639 50.7806 7.82688 51.4533 9.1632 52.6484C10.4995 53.8435 11.3502 55.4792 11.5562 57.2497C11.8735 60.0727 12.1722 62.8998 12.4525 65.7311C12.4616 65.9886 12.539 66.2392 12.6768 66.4578C12.8147 66.6764 13.0083 66.8553 13.2381 66.9766C14.2602 67.5843 15.2472 68.2345 16.1359 68.7924Z" fill="#F4A640"/>
<path d="M80.7056 68.9378C81.8237 68.2278 82.9721 67.5953 83.9794 66.8053C84.337 66.5277 84.5083 65.8777 84.5662 65.3752C84.8885 62.6777 85.1353 59.9726 85.4325 57.2725C85.6382 55.4381 86.5337 53.7484 87.9399 52.541C89.3461 51.3336 91.1595 50.6975 93.0176 50.7599C93.5658 50.7716 94.106 50.8932 94.6057 51.1174C95.1053 51.3415 95.5542 51.6636 95.9254 52.0643C96.2965 52.465 96.5823 52.936 96.7655 53.4491C96.9487 53.9622 97.0256 54.5067 96.9915 55.05C96.6138 60.2501 96.1941 65.4469 95.7324 70.6404C95.546 72.7504 94.5211 74.4955 92.9471 75.913C85.8656 82.2881 78.7589 88.6433 71.7026 95.0485C70.5719 96.0735 69.3077 95.8885 68.036 95.7985C67.4089 95.756 67.3434 95.0835 67.905 94.5484C69.4412 93.1251 70.9866 91.7084 72.5412 90.2983C78.5617 84.8432 84.588 79.3922 90.6202 73.9454C91.9423 72.7579 92.6978 71.3704 92.8288 69.5953C93.1788 64.8077 93.5843 60.0226 93.9494 55.235C94.0376 54.0774 93.5263 53.6149 92.3704 53.7349C91.3561 53.8314 90.4072 54.2754 89.6866 54.9907C88.9661 55.706 88.5189 56.648 88.4217 57.655C88.1296 60.3551 87.8072 63.0527 87.5882 65.7602C87.4496 67.4928 86.742 68.7778 85.1958 69.6303C84.3273 70.1124 83.4903 70.6484 82.69 71.2354C82.5682 71.3382 82.471 71.4668 82.4056 71.6117C82.3403 71.7566 82.3084 71.9142 82.3123 72.0729C82.6497 74.3679 81.8439 76.138 79.998 77.523C76.2507 80.3331 72.5311 83.1832 68.7839 85.9982C68.4207 86.2904 67.9864 86.4827 67.5247 86.5557C66.8649 86.6257 66.3663 86.2407 66.1246 85.6107C65.835 84.8607 66.1044 84.2732 66.7164 83.8082L73.8306 78.4431C75.324 77.3105 76.8198 76.193 78.3056 75.038C79.5497 74.0854 79.7235 72.8729 78.8093 71.5954C78.6834 71.4154 78.5575 71.2354 78.4265 71.0579C77.4419 69.7078 76.2482 69.4703 74.848 70.3703C71.2602 72.6854 67.6725 75.003 64.0847 77.323C61.9769 78.683 59.864 80.0381 57.7612 81.4081C55.0742 83.1582 53.7647 85.6582 53.7596 88.8233C53.7596 90.5733 53.7596 92.3359 53.7596 94.0909C53.7596 95.186 53.1452 95.8735 52.2285 95.856C51.3118 95.8385 50.7427 95.181 50.7578 94.1234C50.788 91.6584 50.6621 89.1683 50.9467 86.7282C51.3295 83.4232 53.1326 80.8406 55.9355 79.0156C61.7108 75.2521 67.5029 71.512 73.3118 67.7953C75.7722 66.2077 78.2024 66.5753 80.7056 68.9378Z" fill="#F4A640"/>
<path d="M61.1726 104.328C58.1572 104.328 55.1418 104.328 52.1264 104.328C50.7612 104.328 50.2212 103.804 50.2037 102.466C50.1911 101.594 50.1861 100.728 50.2037 99.8513C50.2337 98.6942 50.7887 98.1355 51.9339 98.1355C58.1013 98.1256 64.2688 98.1256 70.4363 98.1355C71.6189 98.1355 72.1865 98.7141 72.1865 99.9134C72.1865 100.782 72.1865 101.651 72.1865 102.526C72.1865 103.767 71.6314 104.326 70.3763 104.328C67.3134 104.336 64.243 104.328 61.1726 104.328Z" fill="#F4A640"/>
<path d="M35.5189 104.329C32.5789 104.329 29.6398 104.329 26.7015 104.329C25.2901 104.329 24.822 103.832 24.8147 102.414C24.8147 101.623 24.8147 100.832 24.8147 100.041C24.8147 98.6529 25.3364 98.1355 26.721 98.1281C28.2983 98.1281 29.8755 98.1281 31.4527 98.1281H44.2777C45.7403 98.1281 46.2279 98.6255 46.2449 100.143C46.2449 100.852 46.2449 101.561 46.2449 102.27C46.2449 103.911 45.8208 104.332 44.1802 104.332L35.5189 104.329Z" fill="#F4A640"/>
<path d="M2.31791 31.7865C2.81979 23.1339 5.85756 14.7956 11.0789 7.73894C11.2169 7.53134 11.3722 7.3349 11.5432 7.15157C12.0102 6.69666 12.5472 6.63417 13.0765 7.02659C13.1899 7.10021 13.287 7.19469 13.3624 7.30461C13.4378 7.41453 13.4899 7.53773 13.5157 7.6671C13.5415 7.79648 13.5405 7.92948 13.5127 8.05849C13.485 8.18749 13.4311 8.30995 13.3541 8.41881C13.1595 8.75124 12.9026 9.05117 12.6769 9.36861C7.68551 16.3672 4.93815 24.0956 4.56976 32.5938C4.56976 32.8113 4.55419 33.0312 4.53603 33.2512C4.47636 33.951 4.11576 34.3885 3.35822 34.401C2.71483 34.4135 2.26343 33.9011 2.25564 33.1837C2.25045 32.7113 2.29456 32.2439 2.31791 31.7865Z" fill="#F4A640"/>
<path d="M94.7449 32.1208C94.7449 32.4999 94.7449 32.8766 94.7449 33.2532C94.7274 33.9203 94.3752 34.3215 93.7084 34.3954C93.1015 34.4594 92.6195 33.9769 92.5571 33.2827C92.3997 31.5374 92.3323 29.7774 92.08 28.0469C91.0985 21.2725 88.5336 15.1111 84.5601 9.51087C84.4652 9.37794 84.3653 9.24994 84.2779 9.11209C83.8833 8.4893 83.9632 7.91082 84.4902 7.54404C85.0171 7.17725 85.6515 7.28063 86.0511 7.88619C87.1425 9.53301 88.2789 11.1626 89.2354 12.8857C92.5163 18.8074 94.3996 25.3823 94.7449 32.1208Z" fill="#F4A640"/>
<path d="M7.94561 32.3781C8.42477 24.6124 10.8962 17.6592 15.4154 11.4103C16.051 10.5313 17.1404 10.4673 17.433 11.3241C17.5717 11.7131 17.4002 12.341 17.1404 12.7103C15.3911 15.1788 13.9303 17.8306 12.7851 20.6163C11.1912 24.5723 10.2934 28.7628 10.1296 33.0108C10.1363 33.1999 10.1211 33.389 10.0842 33.5747C9.92277 34.1434 9.489 34.5275 8.92914 34.3626C8.50164 34.1862 8.15774 33.8592 7.96578 33.4466C7.81951 33.1167 7.94561 32.6514 7.94561 32.3781Z" fill="#F4A640"/>
<path d="M89.1047 32.7123C89.1047 32.8044 89.1047 33.0509 89.1047 33.2949C89.0716 33.9722 88.7054 34.3831 88.0163 34.4005C87.3271 34.418 86.9609 34.0046 86.8897 33.3348C86.7015 31.517 86.6049 29.6843 86.2997 27.884C85.3561 22.401 83.1736 17.1936 79.9115 12.6423C79.7132 12.3634 79.4919 11.9973 79.5199 11.6911C79.5382 11.5105 79.5967 11.336 79.6911 11.1799C79.7856 11.0238 79.9137 10.8897 80.0666 10.7872C80.382 10.6427 80.8575 10.7423 81.2263 10.8494C81.4297 10.9067 81.5772 11.1856 81.7196 11.3848C86.2463 17.7494 88.6749 24.8187 89.1047 32.7123Z" fill="#F4A640"/>
</svg>
