<svg width="95" height="87" viewBox="0 0 95 87" fill="none" xmlns="http://www.w3.org/2000/svg">
<path d="M42.6094 26.4969H8.65267C8.27713 26.4748 7.90131 26.5348 7.54997 26.673C7.19863 26.8112 6.87976 27.0244 6.61437 27.2985C6.34898 27.5726 6.1431 27.9014 6.01029 28.2633C5.87749 28.6252 5.82079 29.012 5.84391 29.398C5.84391 44.3824 5.84391 59.3667 5.84391 74.351C5.8692 75.1327 6.18332 75.8751 6.72232 76.4269C7.26131 76.9787 7.98462 77.2985 8.7449 77.3211C22.1389 77.2909 35.533 77.3211 48.9228 77.291C49.2222 77.2598 49.5238 77.3201 49.79 77.4642C50.0561 77.6083 50.2751 77.83 50.4195 78.1014C51.0944 79.2049 51.9119 80.2137 52.6162 81.3043C52.7018 81.4529 52.7564 81.6181 52.7766 81.7895C52.7968 81.9609 52.7822 82.1348 52.7335 82.3001C52.6413 82.5329 52.2473 82.6751 51.9664 82.7915C51.7722 82.8263 51.5737 82.8263 51.3795 82.7915H6.73266C4.95509 82.7792 3.25336 82.0494 1.99405 80.7593C0.734748 79.4692 0.018648 77.722 0 75.8942C0 57.332 0 38.7683 0 20.2031C0 15.7242 1.85714 12.2411 5.44985 9.76237C6.96045 8.70139 8.7285 8.09387 10.5559 8.00787C12.455 7.92165 14.3541 7.88718 16.2531 7.83114C17.0203 7.80958 17.3389 8.15875 17.3095 8.98211C17.1861 10.3789 17.3402 11.7868 17.7623 13.1205C18.0561 13.8796 18.5148 14.5597 19.1033 15.1086C19.6919 15.6574 20.3947 16.0607 21.1581 16.2874C21.9214 16.5141 22.7251 16.5583 23.5076 16.4166C24.2902 16.2749 25.0308 15.9511 25.673 15.4699C27.2492 14.2456 27.8445 12.6032 27.9451 10.6849C27.985 10.0504 27.985 9.41396 27.9451 8.77949C27.899 8.12856 28.2512 7.91733 28.7836 7.83543C28.9525 7.82465 29.1219 7.82465 29.2908 7.83543H55.7393C56.7706 7.83543 57.0263 8.13718 57.085 9.21057C57.1521 10.5038 57.0389 11.8531 57.4498 13.0127C57.7336 13.8413 58.214 14.5841 58.8475 15.1736C59.4809 15.7631 60.2474 16.1808 61.0774 16.3888C61.9075 16.5969 62.7749 16.5887 63.6011 16.365C64.4273 16.1413 65.1862 15.7092 65.809 15.1078C66.4107 14.5157 66.8798 13.796 67.1839 12.9987C67.4879 12.2015 67.6196 11.3457 67.5697 10.4909C67.5362 7.60266 67.3391 7.81818 70.1227 7.83543C72.3488 7.83543 74.5832 7.69317 76.7632 8.34841C78.2658 8.76704 79.6711 9.49229 80.8954 10.481C82.1198 11.4697 83.1381 12.7016 83.8899 14.1033C84.9558 16.0778 85.4817 18.3124 85.4117 20.5695C85.3656 26.6607 85.4117 32.7518 85.4117 38.843C85.4117 39.9293 85.0721 40.2009 84.0869 39.8388C82.7915 39.3646 81.5087 38.8559 80.2176 38.3602C79.9925 38.2843 79.801 38.1286 79.6774 37.9209C79.5537 37.7132 79.5059 37.467 79.5426 37.2264C79.5719 34.64 79.5426 32.0535 79.5426 29.4325C79.5577 29.0399 79.493 28.6484 79.3527 28.2829C79.2124 27.9174 78.9996 27.586 78.7279 27.3098C78.4561 27.0336 78.1314 26.8186 77.7743 26.6787C77.4173 26.5387 77.0358 26.4768 76.6542 26.4969H42.6094Z" fill="#F4A640"/>
<path d="M94.9983 64.1655C95.0127 67.2647 94.4104 70.3341 93.2285 73.1852C92.0466 76.0362 90.3102 78.6085 88.1259 80.744C85.9415 82.8795 83.3556 84.533 80.5269 85.6029C77.6982 86.6727 74.6866 87.1364 71.6772 86.9653C65.9703 86.7033 60.5845 84.1762 56.6521 79.9155C52.7196 75.6547 50.5468 69.9921 50.5905 64.1181C50.5695 57.3544 53.1938 51.6167 58.1364 47.0689C62.155 43.3094 67.4147 41.2641 72.8468 41.3485C79.3363 41.3786 84.9622 43.8746 89.3305 48.9182C93.0162 53.0875 95.0397 58.5312 94.9983 64.1655ZM70.9226 45.9567C63.1922 46.5387 55.8307 53.5523 55.1222 62.1566C55.1695 62.1872 55.2223 62.2077 55.2774 62.217C56.1745 62.217 57.0716 62.217 57.9687 62.2515C58.3484 62.2738 58.7151 62.402 59.0294 62.6222C59.3686 62.8805 59.6176 63.2445 59.7392 63.6601C59.8609 64.0757 59.8486 64.5206 59.7043 64.9285C59.3605 65.7906 58.6185 66.1183 57.7759 66.1657C56.9333 66.2131 55.99 66.1657 55.0929 66.1657C56.1368 75.9383 64.2151 81.982 70.9226 82.3182C70.9226 81.3656 70.8975 80.4129 70.9226 79.4645C70.9379 79.1021 71.048 78.7506 71.2412 78.4472C71.4941 78.0828 71.8556 77.8133 72.271 77.6795C72.6864 77.5457 73.1329 77.5549 73.5427 77.7057C73.9072 77.8841 74.2139 78.167 74.4258 78.5202C74.6378 78.8735 74.746 79.2822 74.7375 79.6973C74.7375 80.5896 74.7375 81.482 74.7375 82.3786C84.2286 81.4518 90.2486 72.7354 90.3786 66.1614C89.5988 66.1614 88.8191 66.1873 88.0435 66.1614C86.7858 66.114 86.0271 65.2992 86.069 64.1094C86.1067 62.9973 86.9368 62.2343 88.119 62.2256H90.3702C90.3702 56.3673 84.9203 47.1034 74.7375 45.9524C74.7375 46.849 74.7375 47.7413 74.7375 48.6294C74.7082 50.0174 73.9661 50.7848 72.6749 50.746C71.5892 50.746 70.9142 49.9183 70.91 48.6164C70.9184 47.7342 70.9226 46.8476 70.9226 45.9567Z" fill="#F4A640"/>
<path d="M21.5247 43.6497H15.7102C14.6244 43.6497 14.4902 43.5117 14.4902 42.4254V36.3644C14.4902 35.2954 14.5741 35.2091 15.5802 35.2048H27.3686C28.379 35.2048 28.597 35.429 28.6011 36.4593C28.6011 38.4509 28.6011 40.4424 28.6011 42.434C28.6011 43.4126 28.3706 43.6497 27.4189 43.6497H21.5247Z" fill="#F4A640"/>
<path d="M42.6069 35.2051C44.573 35.2051 46.5391 35.2051 48.5011 35.2051C49.415 35.2051 49.6581 35.4465 49.6623 36.3561C49.6623 38.4037 49.6623 40.4557 49.6623 42.5033C49.6623 43.2965 49.3521 43.6543 48.5682 43.6543C44.5828 43.6543 40.596 43.6543 36.6078 43.6543C35.8658 43.6543 35.5053 43.3784 35.5263 42.5292C35.5766 40.4212 35.5598 38.3132 35.5263 36.2052C35.5263 35.4551 35.8113 35.1879 36.5282 35.1965C38.5656 35.2224 40.5862 35.2051 42.6069 35.2051Z" fill="#F4A640"/>
<path d="M21.4566 56.6473C19.4108 56.6473 17.3608 56.6473 15.315 56.6473C14.7029 56.6473 14.4766 56.4749 14.4766 55.8153C14.5101 53.6599 14.5017 51.5045 14.4766 49.3233C14.4766 48.6206 14.7491 48.349 15.4282 48.3533C19.4946 48.3706 23.5624 48.3706 27.6317 48.3533C28.3443 48.3533 28.5875 48.6982 28.5917 49.3319C28.5917 51.4873 28.5917 53.6426 28.5917 55.8239C28.5917 56.4705 28.2395 56.6473 27.6778 56.643C25.6068 56.6387 23.5527 56.6473 21.4566 56.6473Z" fill="#F4A640"/>
<path d="M21.3959 69.4671C19.3501 69.4671 17.3001 69.4671 15.2543 69.4671C14.6632 69.4671 14.4704 69.2645 14.4788 68.661C14.5039 66.4711 14.4788 64.2769 14.4788 62.087C14.4788 61.4145 14.7722 61.1731 15.3969 61.1774C19.4926 61.1774 23.5884 61.1774 27.6842 61.1774C28.4346 61.1774 28.5855 61.6085 28.5897 62.212C28.5897 64.3157 28.5897 66.4237 28.5897 68.5273C28.5897 69.2558 28.2627 69.4714 27.6087 69.4671C25.5504 69.4541 23.4752 69.4671 21.3959 69.4671Z" fill="#F4A640"/>
<path d="M42.6121 48.375C44.6327 48.375 46.6575 48.375 48.6782 48.375C49.2986 48.375 49.4453 48.5862 49.5166 49.2156C49.7262 51.177 49.1729 52.9315 48.3638 54.6429C48.326 54.7205 48.2967 54.8024 48.2673 54.88C48.0451 55.4533 47.9697 56.3025 47.563 56.5396C47.0474 56.8371 46.2593 56.656 45.5885 56.656C42.5282 56.656 39.4679 56.656 36.4076 56.656C35.7453 56.656 35.5231 56.4663 35.5357 55.768C35.5734 53.6341 35.565 51.496 35.5357 49.3621C35.5357 48.6034 35.8375 48.3534 36.546 48.362C38.5708 48.3922 40.5914 48.375 42.6121 48.375Z" fill="#F4A640"/>
<path d="M46.5742 61.225C46.6999 63.971 46.8257 66.6566 46.9557 69.4155C46.7679 69.4403 46.579 69.4546 46.3897 69.4586C43.0821 69.4586 39.7744 69.4586 36.4668 69.4586C35.8044 69.4586 35.5152 69.312 35.5319 68.5533C35.5781 66.3979 35.5571 64.2856 35.5319 62.1518C35.5319 61.531 35.7038 61.1689 36.3704 61.1689C39.7241 61.1689 43.0988 61.1689 46.461 61.1689C46.5574 61.1948 46.6371 61.2422 46.5742 61.225Z" fill="#F4A640"/>
<path d="M25.7351 7.33578C25.7351 8.65919 25.6596 9.99124 25.7351 11.3103C25.8944 13.5433 23.2743 15.1901 21.2201 14.1382C19.8618 13.4399 19.4007 12.2113 19.3713 10.793C19.321 8.45659 19.3169 6.12445 19.3713 3.788C19.4133 1.89987 20.0463 0.6713 21.6645 0.154005C23.8276 -0.535722 25.8567 1.20153 25.7351 3.17156C25.6471 4.56395 25.7351 5.95201 25.7351 7.33578Z" fill="#F4A640"/>
<path d="M65.1619 7.30983V11.3749C65.1619 13.5777 62.8897 15.0606 60.8817 14.2502C59.4186 13.6596 58.8736 12.4742 58.8275 11.0559C58.7394 8.54703 58.7562 6.03383 58.8275 3.52926C58.8778 1.37386 60.2906 -0.156465 62.4537 0.03321C63.8036 0.153912 65.1535 1.49027 65.1703 2.89558C65.187 4.3009 65.1619 5.82261 65.1619 7.30983Z" fill="#F4A640"/>
<path d="M70.8606 37.3474C65.7677 37.7207 60.8966 39.6379 56.8629 42.8566C56.8247 42.6211 56.7981 42.3837 56.7832 42.1453C56.7832 40.1839 56.8042 38.2225 56.7832 36.2611C56.7832 35.4765 57.0515 35.192 57.8145 35.1963C61.7132 35.1963 65.612 35.1963 69.5107 35.1963C70.9193 35.1963 70.9193 35.1963 70.9025 36.6491C70.8857 36.8819 70.8732 37.106 70.8606 37.3474Z" fill="#F4A640"/>
<path d="M74.5973 58.9405C74.5973 60.0398 74.6224 61.1347 74.5973 62.2297C74.5558 62.4925 74.6064 62.7619 74.74 62.99C74.8735 63.2181 75.0814 63.3901 75.3267 63.4755C78.0768 64.8161 80.7766 66.2689 83.535 67.575C83.9874 67.7836 84.3415 68.1672 84.5205 68.6426C84.6994 69.118 84.6888 69.6467 84.4908 70.1141C84.1135 70.9763 82.8978 71.2953 81.9378 70.8038L74.2116 66.8379C73.348 66.4068 72.4509 66.0146 71.6082 65.5447C71.4798 65.4629 71.3707 65.3528 71.2888 65.2223C71.2068 65.0918 71.1542 64.9443 71.1345 64.7903C71.101 61.6721 71.101 58.5569 71.1345 55.4445C71.1292 55.1949 71.1736 54.9469 71.265 54.7156C71.3565 54.4844 71.493 54.2749 71.6663 54.1C71.8395 53.9251 72.0457 53.7885 72.2722 53.6988C72.4987 53.609 72.7407 53.5678 72.9833 53.5779C73.4406 53.6216 73.8644 53.8431 74.1682 54.1972C74.4721 54.5513 74.633 55.0113 74.6182 55.4833C74.6043 56.6357 74.5973 57.7881 74.5973 58.9405Z" fill="#F4A640"/>
</svg>
