<svg width="349" height="307" viewBox="0 0 349 307" fill="none" xmlns="http://www.w3.org/2000/svg">
<path d="M203.061 200.41H94.3769C89.9192 200.41 86.2713 196.873 86.1414 192.429L80.7364 8.46109C80.6027 3.83036 84.327 0 88.9719 0H207.844C212.477 0 216.201 3.8113 216.079 8.43441L211.297 192.406C211.182 196.861 207.53 200.41 203.061 200.41Z" fill="#341B3F"/>
<path d="M89.8046 177.931L87.1766 13.4805C87.1078 9.26142 90.5189 5.80457 94.7474 5.80457H203.684C207.951 5.80457 211.377 9.3224 211.251 13.5796L206.43 178.03C206.312 182.115 202.958 185.363 198.863 185.363H97.3754C93.2424 185.366 89.8733 182.054 89.8046 177.931Z" fill="#00B5BE"/>
<path d="M119.152 173.65C118.594 173.65 118.079 173.292 117.903 172.736C117.685 172.046 118.067 171.31 118.759 171.093C126.066 168.787 132.735 164.82 138.583 159.293C144.091 154.087 148.664 147.604 151.807 140.538C158.007 126.608 158.332 111.572 152.697 99.292C143.721 79.7171 100.92 28.2341 100.489 27.7157C100.026 27.1593 100.103 26.3361 100.66 25.8711C101.218 25.4099 102.043 25.4861 102.509 26.0426C102.616 26.1722 113.472 39.2144 125.302 54.5282C141.227 75.1398 151.246 89.8323 155.085 98.2019C161.028 111.164 160.707 126.981 154.206 141.597C150.925 148.976 146.146 155.753 140.386 161.191C134.248 166.992 127.239 171.162 119.549 173.586C119.416 173.628 119.282 173.65 119.152 173.65Z" fill="white"/>
<path d="M155.487 15.143L115.347 43.8679L116.749 45.8191L156.889 17.0942L155.487 15.143Z" fill="white"/>
<path d="M193.065 35.5667L137.533 72.9606L138.879 74.9509L194.412 37.557L193.065 35.5667Z" fill="white"/>
<path d="M146.513 22.9207L144.685 24.4827L169.319 53.1806L171.147 51.6186L146.513 22.9207Z" fill="white"/>
<path d="M202.012 61.3929L152.374 95.1512L153.729 97.1353L203.368 63.3769L202.012 61.3929Z" fill="white"/>
<path d="M171.002 127.576C164.218 127.576 157.06 126.611 150.856 123.707C130.963 114.4 93.6015 110.543 93.2271 110.505L93.4678 108.119C95.0148 108.275 131.612 112.056 151.876 121.539C171.502 130.724 201.973 119.656 202.278 119.545L203.115 121.794C202.794 121.912 195.131 124.717 184.841 126.394C180.788 127.05 175.994 127.576 171.002 127.576Z" fill="white"/>
<path d="M129.251 108.294C129.251 108.294 146.849 117.807 149.218 115.399C151.586 112.99 146.089 94.9815 143.809 95.5875C141.528 96.1935 128.996 106.434 129.251 108.294Z" fill="#00939E"/>
<path d="M191.808 76.3441C191.808 76.3441 160.986 94.4288 161.857 97.1653C162.732 99.9018 164.684 114.895 164.581 118.958C164.481 123.021 201.556 116.02 202.691 113.851C203.829 111.683 202.691 70.4557 202.691 70.4557L191.808 76.3441Z" fill="#00939E"/>
<path d="M128.174 98.7279L138.01 91.6275C139.92 90.2478 140.295 87.557 138.832 85.7123L115.126 55.8355C113.942 54.3453 111.891 53.8499 110.156 54.6388L102.311 58.21C100.007 59.2581 99.1745 62.1013 100.553 64.2204L122.269 97.6227C123.56 99.6122 126.253 100.115 128.174 98.7279Z" fill="#00939E"/>
<path d="M94.9651 104.079C94.9651 104.079 119.939 108.26 119.805 106.263C119.668 104.266 98.464 70.8597 96.2791 70.9855C94.0904 71.1074 94.9651 104.079 94.9651 104.079Z" fill="#00939E"/>
<path d="M143.606 29.5567C143.606 29.5567 122.292 43.1897 123.602 45.3698C124.912 47.5498 135.623 67.3991 139.722 66.4196C143.82 65.4363 163.133 53.6594 161.838 50.8238C160.547 47.9881 145.027 27.8111 143.606 29.5567Z" fill="#00939E"/>
<path d="M159.6 66.4539C159.6 66.4539 144.416 75.4029 145.596 76.8893C146.777 78.3795 151.147 84.7749 153.186 84.4852C155.226 84.1955 170.952 74.7435 170.23 73.1428C169.512 71.5458 161.227 65.4744 159.6 66.4539Z" fill="#00939E"/>
<path d="M182.522 52.3978C182.522 52.3978 162.953 62.8332 163.973 64.5711C164.993 66.3091 170.971 70.9627 173.229 70.452C175.486 69.9413 187.874 62.978 187.583 61.442C187.289 59.9099 182.522 52.3978 182.522 52.3978Z" fill="#00939E"/>
<path d="M167.472 12.665C167.472 12.665 155.23 22.239 156.25 23.6987C157.27 25.1584 168.637 42.9 171.697 42.9C174.757 42.9 195.743 29.9721 195.743 27.7844C195.743 25.5967 183.871 10.908 182.518 10.908C181.17 10.908 167.472 12.665 167.472 12.665Z" fill="#00939E"/>
<path d="M108.739 23.6986C108.739 23.6986 117.319 35.8338 119.805 35.3688C122.292 34.9 147.762 15.3785 147.434 13.7435C147.105 12.1085 104.369 12.3257 104.805 15.0508C105.24 17.7759 108.739 23.6986 108.739 23.6986Z" fill="#00939E"/>
<path d="M100.431 32.6324C100.431 32.6324 113.258 45.587 109.469 47.95C105.68 50.313 94.1668 52.3482 93.4372 49.2954C92.7076 46.2425 90.3738 25.4214 100.431 32.6324Z" fill="#00939E"/>
<path d="M97.937 116.329C97.937 116.329 113.984 118.745 121.853 120.666C129.721 122.587 150.631 129.348 149.794 131.311C148.958 133.274 132.602 162.689 115.531 161.069C98.4603 159.45 93.4793 156.846 93.3456 149.67C93.2157 142.497 90.1981 113.996 97.937 116.329Z" fill="#00939E"/>
<path d="M195.525 128.532C195.525 128.532 173.446 133.529 167.98 133.399C162.514 133.27 162.086 141.777 158.912 147.013C155.738 152.25 150.276 162.777 159.672 163.836C169.073 164.9 194.333 150.524 194.333 150.524C194.333 150.524 202.805 150.188 203.203 144.612C203.596 139.04 200.235 127.503 195.525 128.532Z" fill="#00939E"/>
<path d="M174.608 10.4125C163.817 11.0566 158.53 19.1709 157.793 29.9378C157.052 40.5942 168.584 56.1329 174.279 63.1C175.868 65.0628 178.855 65.0628 180.46 63.1304C185.979 56.4607 196.93 41.9282 196.93 31.5348C196.927 20.7526 188.011 9.61216 174.608 10.4125ZM175.975 42.3817C169.745 42.1302 165.108 37.7053 165.108 31.489C165.108 25.2728 167.736 20.8174 176.686 19.2929C184.348 17.9894 188.011 24.9412 188.5 31.1422C189.081 38.6619 184.516 42.7438 175.975 42.3817Z" fill="#341B3F"/>
<path d="M175.337 65.8899C174.115 65.8899 172.965 65.3601 172.174 64.4302C166.804 58.172 154.363 42.439 154.852 31.5577C155.1 25.9627 156.601 21.2062 159.195 17.7989C162.056 14.041 166.143 11.9104 171.342 11.476C177.201 10.9843 182.786 12.8252 187.068 16.6555C191.487 20.6116 194.211 26.4277 194.348 32.2171C194.459 36.7716 192.519 42.6333 188.58 49.6385C185.314 55.4508 181.357 60.8247 178.615 64.3082C177.835 65.2915 176.67 65.867 175.414 65.8899C175.387 65.8899 175.364 65.8899 175.337 65.8899ZM171.368 11.8075C166.265 12.2344 162.258 14.3192 159.458 18.0009C156.907 21.3549 155.428 26.0504 155.184 31.5729C154.699 42.3322 167.083 57.9853 172.427 64.2129C173.171 65.0857 174.256 65.5774 175.406 65.5545C176.563 65.5355 177.637 65.0019 178.351 64.0986C183.145 58.0119 194.268 42.7248 194.016 32.2247C193.878 26.5268 191.197 20.7984 186.846 16.9033C182.633 13.1339 177.136 11.3235 171.368 11.8075ZM173.943 43.7424C173.794 43.7424 173.645 43.7424 173.496 43.7386C170.414 43.6891 167.587 42.599 165.539 40.6705C163.462 38.7153 162.277 35.9712 162.205 32.9488C162.033 25.7836 165.551 21.8846 173.618 20.3106C176.372 19.7732 178.806 20.2686 180.849 21.7779C183.565 23.7865 185.46 27.6168 185.914 32.0189C186.273 35.5443 185.509 38.3571 183.645 40.3771C181.605 42.58 178.259 43.7424 173.943 43.7424ZM175.7 20.4325C175.047 20.4325 174.375 20.5011 173.679 20.6345C163.588 22.605 162.423 28.2457 162.537 32.9374C162.61 35.8721 163.756 38.5324 165.769 40.4266C167.755 42.298 170.505 43.3537 173.504 43.4032C177.942 43.4833 181.361 42.3589 183.397 40.1484C185.192 38.2008 185.929 35.4757 185.578 32.0494C185.135 27.7388 183.29 23.9961 180.647 22.0409C179.195 20.9699 177.537 20.4325 175.7 20.4325Z" fill="#341B3F"/>
<path d="M282.8 83.2649C269.939 84.031 263.636 93.7041 262.757 106.537C261.875 119.24 275.619 137.759 282.406 146.068C284.301 148.408 287.861 148.408 289.775 146.106C296.356 138.155 309.405 120.833 309.405 108.446C309.405 95.5945 298.774 82.3121 282.8 83.2649ZM284.431 121.374C277.005 121.073 271.474 115.798 271.474 108.389C271.474 100.98 274.606 95.6669 285.275 93.8527C294.408 92.3015 298.774 100.587 299.355 107.977C300.05 116.942 294.611 121.805 284.431 121.374Z" fill="#FF6D4C"/>
<path d="M284.601 148.046C284.59 148.046 284.578 148.046 284.571 148.046C283.073 148.034 281.679 147.367 280.739 146.205C277.221 141.902 272.16 135.259 268.02 128.059C263.004 119.339 260.655 112.094 261.041 106.522C261.499 99.8593 263.428 94.2301 266.618 90.2396C270.14 85.8376 275.075 83.4174 281.29 83.0477C288.291 82.6285 294.899 84.9838 299.892 89.6794C305.049 94.5235 308.127 101.54 308.127 108.446C308.127 120.646 295.797 137.363 288.448 146.243C287.493 147.39 286.091 148.046 284.601 148.046ZM281.312 83.4822C275.228 83.8443 270.395 86.2111 266.958 90.5102C263.822 94.4321 261.927 99.9775 261.476 106.552C260.586 119.354 274.888 138.353 281.076 145.93C281.931 146.99 283.207 147.6 284.571 147.607C284.582 147.607 284.59 147.607 284.601 147.607C285.961 147.607 287.241 147.009 288.108 145.965C291.469 141.906 296.324 135.636 300.373 128.825C305.228 120.658 307.692 113.801 307.692 108.442C307.692 101.654 304.667 94.756 299.594 89.9919C294.686 85.3878 288.192 83.0744 281.312 83.4822ZM284.128 121.618C283.73 121.618 283.329 121.61 282.921 121.591C279.242 121.443 275.904 120.063 273.512 117.704C271.091 115.31 269.754 112.002 269.754 108.393C269.754 99.8365 274.066 95.2858 283.734 93.6431C287.038 93.0829 289.926 93.7422 292.321 95.6021C295.507 98.0795 297.653 102.699 298.07 107.966C298.398 112.185 297.405 115.516 295.121 117.875C292.741 120.334 288.956 121.618 284.128 121.618ZM285.95 93.8832C285.258 93.8832 284.548 93.9442 283.811 94.07C278.753 94.9313 275.231 96.5969 273.039 99.1657C271.121 101.411 270.193 104.429 270.193 108.389C270.193 111.884 271.48 115.082 273.822 117.391C276.133 119.674 279.372 121.012 282.94 121.153C288.219 121.374 292.321 120.135 294.808 117.567C297 115.299 297.951 112.078 297.634 107.993C297.229 102.847 295.144 98.3425 292.054 95.9413C290.293 94.5731 288.245 93.8832 285.95 93.8832Z" fill="#341B3F"/>
<path d="M339.211 293.051C339.211 293.051 324.543 293.509 322.736 290.235C316.089 278.199 322.999 250.285 330.845 243.298C338.695 236.312 344.501 248.501 344.501 248.501L339.211 293.051Z" fill="#341B3F"/>
<path d="M346.361 252.69C346.361 252.69 343.68 242.86 337.717 245.932C331.758 249.004 332.056 292.872 339.207 293.051C346.361 293.23 349.341 266.509 346.361 252.69Z" fill="#00B5BE"/>
<path d="M344.36 256.398C344.36 256.398 342.729 248.779 339.107 251.161C335.486 253.543 335.666 287.551 340.013 287.692C344.36 287.83 346.17 267.111 344.36 256.398Z" fill="#00939E"/>
<path d="M282.41 306.551C282.41 306.551 262.792 307.858 260.767 303.635C254.339 290.235 247.967 253.776 270.592 241.942C290.168 231.701 295.482 257.617 295.482 257.617L282.41 306.551Z" fill="#341B3F"/>
<path d="M291.899 256.771C291.899 256.771 288.339 244.651 280.432 248.44C272.525 252.228 272.918 306.33 282.41 306.551C291.899 306.772 295.852 273.815 291.899 256.771Z" fill="#00B5BE"/>
<path d="M289.244 261.345C289.244 261.345 287.082 251.946 282.277 254.885C277.471 257.823 277.712 299.767 283.48 299.938C289.244 300.11 291.647 274.559 289.244 261.345Z" fill="#00939E"/>
<path d="M162.851 259.245C162.851 259.245 162.057 256.912 160.383 254.797C160.383 254.797 152.679 241.846 142.266 249.271C131.853 256.695 135.54 296.344 137.782 299.889C140.024 303.433 153.363 302.149 153.363 302.149C162.851 302.335 166.805 273.934 162.851 259.245Z" fill="#341B3F"/>
<path d="M156.877 201.896C156.877 201.896 124.531 215.266 127.304 245.928C127.304 245.928 124.302 246.389 123.144 252.385C121.991 258.38 127.996 286.503 132.384 287.193C136.773 287.883 263.155 291.572 266.386 289.728C269.622 287.883 272.857 283.504 272.624 272.901C272.395 262.298 275.313 240.207 284.637 241.145C292.609 241.945 294.523 268.221 292.609 284.777C291.662 292.986 303.35 281.431 313.515 280.508C323.679 279.586 330.345 281.114 330.811 275.352C331.273 269.589 329.791 244.979 338.584 244.598C346.892 244.236 347.503 261.223 347.503 261.223C348.428 260.072 349.558 246.965 347.014 241.145C344.474 235.325 348.168 211.581 342.163 208.124C336.155 204.667 340.547 168.936 306.12 162.019C271.696 155.101 201.691 157.716 188.058 165.285C174.425 172.854 156.877 201.896 156.877 201.896Z" fill="#DC823D"/>
<path d="M214.59 242.064H166.128C163.829 242.064 161.663 241.168 160.036 239.544L159.05 238.565C157.771 237.288 156.075 236.587 154.264 236.587H149.818V234.742H154.264C156.564 234.742 158.73 235.638 160.357 237.261L161.342 238.241C162.622 239.518 164.318 240.219 166.128 240.219H214.594C215.728 240.219 216.851 239.933 217.848 239.388L224.407 235.802C225.671 235.108 227.104 234.742 228.548 234.742H235.041V236.587H228.548C227.413 236.587 226.29 236.873 225.293 237.418L218.734 241.004C217.466 241.698 216.034 242.064 214.59 242.064Z" fill="#341B3F"/>
<path d="M283.083 164.526C285.271 164.728 286.792 166.787 286.356 168.94C285.592 172.702 284.553 178.929 284.412 185.527C284.183 196.13 289.725 202.586 272.166 203.737C254.606 204.888 158.76 205.307 159.451 202.079C160.143 198.851 184.368 168.082 191.301 165.933C197.455 164.023 265.332 162.899 283.083 164.526Z" fill="#341B3F"/>
<path d="M143.553 273.206C143.553 276.262 141.304 279.506 137.816 279.506C134.329 279.506 132.079 276.259 132.079 273.206C132.079 270.153 134.905 267.291 138.393 267.291C141.88 267.287 143.553 270.149 143.553 273.206Z" fill="#341B3F"/>
<path d="M254.339 273.206C254.339 276.262 252.089 279.506 248.601 279.506C245.114 279.506 242.864 276.259 242.864 273.206C242.864 270.153 245.691 267.291 249.178 267.291C252.666 267.287 254.339 270.149 254.339 273.206Z" fill="#341B3F"/>
<path d="M123.144 252.381C123.144 252.381 122.529 257.221 132.079 258.49C141.628 259.759 149.948 257.454 152.255 265.29C154.566 273.129 149.944 280.504 165.193 282.578C180.441 284.651 219.426 286.957 221.649 280.733C223.876 274.509 219.254 264.135 228.956 262.29C238.658 260.445 260.84 262.751 266.153 259.756C271.467 256.76 271.7 253.071 268.464 250.536C265.229 248.002 144.627 248.23 137.812 248.23C130.998 248.23 123.141 247.54 123.144 252.381Z" fill="#341B3F"/>
<path d="M162.882 257.217L215.789 254.317V266.444H161.843L162.882 257.217Z" fill="white"/>
<path d="M320.933 217.222C321.498 219.245 320.837 221.197 319.455 221.582C318.072 221.967 316.494 220.636 315.925 218.616C315.36 216.593 316.021 214.641 317.403 214.256C318.79 213.868 320.368 215.198 320.933 217.222Z" fill="#341B3F"/>
<path d="M338.82 219.397C340.202 219.013 340.864 217.061 340.298 215.037C339.732 213.014 338.153 211.685 336.772 212.07C335.39 212.454 334.728 214.407 335.294 216.43C335.86 218.453 337.439 219.782 338.82 219.397Z" fill="#341B3F"/>
<path d="M333.038 201.126C333.038 201.126 333.16 183.453 323.148 176.231C313.137 169.008 298.66 165.78 295.887 167.934C293.113 170.087 292.651 198.363 295.115 201.13C297.579 203.893 330.452 203.893 333.038 201.126Z" fill="#341B3F"/>
<path d="M302.201 208.696C302.201 208.696 297.697 204.431 300.004 197.285C302.315 190.138 320.104 194.979 321.953 198.554C323.802 202.129 316.525 208.235 311.67 209.275C306.819 210.312 307.858 219.074 304.16 218.613C300.463 218.152 297.529 215.617 299.343 214.001C301.162 212.385 304.512 210.079 302.201 208.696Z" fill="#00B5BE"/>
<path d="M252.33 236.96C258.116 232.291 260.324 225.446 257.263 221.67C254.202 217.894 247.031 218.619 241.246 223.288C235.461 227.957 233.253 234.802 236.314 238.578C239.374 242.353 246.545 241.629 252.33 236.96Z" fill="white"/>
<path d="M149.098 236.961C154.883 232.292 157.091 225.447 154.031 221.671C150.97 217.896 143.799 218.62 138.014 223.289C132.229 227.958 130.02 234.804 133.081 238.579C136.142 242.355 143.313 241.63 149.098 236.961Z" fill="white"/>
<path d="M292.735 228.274L299.466 228.377L299.362 235.119L292.613 236.198L292.735 228.274Z" fill="white"/>
<path d="M300 241.942L299.363 235.119L305.703 234.205L306.662 241.21L300 241.942Z" fill="white"/>
<path d="M305.806 227.428L305.703 234.205L312.216 232.532L311.983 226.273L305.806 227.428Z" fill="white"/>
<path d="M312.843 239.945L312.216 232.532L318.805 231.068L319.527 237.65L312.843 239.945Z" fill="white"/>
<path d="M318.985 224.711L318.805 231.068L324.325 229.902L324.825 224.067L318.985 224.711Z" fill="white"/>
<path d="M324.619 237.726L324.325 229.902L332.472 228.876L332.843 236.808L324.619 237.726Z" fill="white"/>
<path d="M36.0335 83.0216C29.6353 84.2336 22.393 83.094 14.4822 79.6219C8.50808 76.9997 4.27194 73.9202 4.09241 73.7906L11.0826 63.805L7.58751 68.7978L11.0712 63.7974C14.7114 66.4348 25.9989 72.8301 34.4368 70.7606C38.268 69.8192 41.2245 67.1704 43.4706 62.6654L54.25 68.3252C50.4226 75.9935 44.563 80.9825 37.3093 82.7472C36.8891 82.8462 36.4651 82.9377 36.0335 83.0216Z" fill="#C6777A"/>
<path d="M20.6321 75.1093C20.6321 75.1093 16.6557 69.2018 12.6182 67.3838C8.57684 65.5658 6.01759 67.0751 6.01759 67.0751L1.68213 65.3447C1.68213 65.3447 1.0595 81.7562 12.3279 78.8634C13.2179 78.6385 20.6321 75.1093 20.6321 75.1093Z" fill="#FFA0A3"/>
<path d="M2.32766 56.7923L6.46831 80.5786C6.73952 82.1336 8.24451 83.1627 9.79534 82.8501L20.8918 80.6091C22.3854 80.308 23.3632 78.8749 23.1035 77.3809L19.0239 53.9338C18.7604 52.4093 17.3089 51.3878 15.7809 51.647L4.62335 53.545C3.09162 53.808 2.06028 55.2601 2.32766 56.7923Z" fill="#341B3F"/>
<path d="M4.06188 56.0528C4.07334 55.645 4.4133 55.321 4.82584 55.3324C5.23456 55.3439 5.55924 55.6831 5.54778 56.0909C5.53632 56.4987 5.19636 56.8227 4.78382 56.8112C4.37128 56.7998 4.05042 56.4606 4.06188 56.0528Z" fill="#100B47"/>
<path d="M0.284102 63.603C0.284102 63.603 -0.858014 61.1028 1.43768 60.0775C4.35981 58.7741 9.25678 59.9441 7.41564 60.794C5.78459 61.5487 3.20624 62.067 3.20624 62.067C3.20624 62.067 9.77627 60.8398 9.56618 62.2843C9.35609 63.7326 3.69135 64.7121 3.69135 64.7121C3.69135 64.7121 10.2003 64.1175 9.55854 65.421C8.91682 66.7244 3.77921 67.6468 3.77921 67.6468C3.77921 67.6468 10.1086 66.7244 9.32553 68.2223C8.54248 69.7201 5.17343 69.5334 3.72955 69.7811C2.36207 70.0136 1.77 69.2132 1.64013 67.8793C1.64013 67.8793 0.738656 66.6292 0.872349 65.7373C0.922006 65.3943 0.559126 65.1275 0.49037 64.895C0.356678 64.4567 0.284102 63.603 0.284102 63.603Z" fill="#FFA0A3"/>
<path d="M60.992 218.327C60.992 218.327 60.8888 222.496 58.0622 223.67C55.2356 224.848 47.0459 225.907 50.1056 228.587C51.8627 230.123 60.1402 229.132 62.474 229.132C64.8118 229.132 67.0043 230.149 68.7423 228.587C70.6522 226.871 68.7423 218.327 68.7423 218.327C68.7423 218.327 66.7255 219.375 64.9111 219.329C62.2983 219.26 60.992 218.327 60.992 218.327Z" fill="white"/>
<path d="M93.4563 218.323C93.4563 218.323 93.3532 222.492 90.5265 223.666C87.6999 224.844 79.5103 225.903 82.5699 228.583C84.327 230.119 92.6045 229.128 94.9384 229.128C97.2761 229.128 99.4687 230.145 101.207 228.583C103.117 226.868 101.207 218.323 101.207 218.323C101.207 218.323 99.1898 219.371 97.3754 219.325C94.7627 219.257 93.4563 218.323 93.4563 218.323Z" fill="white"/>
<path d="M39.9793 104.052C39.9793 104.052 39.456 121.5 45.0367 154.975C49.0666 179.139 53.8222 203.489 56.1561 215.163C56.9926 219.34 60.5106 222.393 64.6819 222.561L66.9241 222.652C71.4352 222.832 75.0946 218.967 74.7661 214.37L69.1052 135.389L67.7109 109.392L39.9793 104.052Z" fill="#341B3F"/>
<path d="M91.0384 119.404C90.7824 121.527 78.7463 121.272 64.0096 119.408C49.2728 117.548 37.8058 114.362 38.0618 112.239C38.3177 110.116 50.2049 109.857 64.9416 111.717C79.6783 113.577 91.2943 117.281 91.0384 119.404Z" fill="#281433"/>
<path d="M56.8971 116.515L88.3569 217.351C89.6747 221.57 93.483 224.463 97.8223 224.539L99.7131 224.569C104.178 224.646 107.59 220.526 106.776 216.044L89.5678 121.298C89.3195 120.174 88.4829 119.278 87.3943 118.962C81.4927 117.262 56.3204 112.342 56.8971 116.515Z" fill="#341B3F"/>
<path d="M93.0437 112.285L85.9122 104.018C86.0383 103.938 100.042 95.1187 98.7009 82.5605C98.0018 76.0126 94.0674 70.7454 87.0085 66.9074C81.3896 63.8508 75.8776 62.8942 75.8242 62.8827L77.501 52.1577C77.7952 52.2073 84.751 53.3697 92.0124 57.322C102.219 62.8751 108.189 71.1952 109.274 81.3828C110.153 89.6114 107.269 97.7942 100.935 105.047C96.3937 110.25 96.5923 110.558 93.0437 112.285Z" fill="#C6777A"/>
<path d="M86.1185 61.3505C86.1185 61.3505 81.932 49.6003 67.0234 50.1338C52.111 50.6674 40.8541 70.2194 38.0656 112.239C38.0656 112.239 62.4817 106.896 91.0842 119.359C91.0842 119.362 92.6694 78.4785 86.1185 61.3505Z" fill="#FFCD4E"/>
<path d="M97.83 58.8655L86.0269 67.3875C86.0269 67.3875 58.872 70.0974 51.6641 68.7939C44.4561 67.4904 42.4775 61.6706 42.4775 61.6706C42.4775 61.6706 50.1553 52.9389 63.2036 50.6102C64.4298 50.3891 65.7018 50.229 67.0196 50.1338C69.2313 49.9775 71.4467 50.0461 73.6164 50.2786C86.5081 51.6697 97.83 58.8655 97.83 58.8655Z" fill="#FFCD4E"/>
<path d="M97.8299 58.8656C98.4678 59.7879 96.3478 62.4444 93.0896 64.7998C89.8313 67.1552 86.6685 68.3138 86.0306 67.3915C85.3927 66.4691 87.5127 63.8126 90.771 61.4573C94.0292 59.1057 97.1882 57.9432 97.8299 58.8656Z" fill="#341B3F"/>
<path d="M105.863 85.4341C105.321 85.4341 104.816 85.133 104.446 84.5918C104.094 84.0772 103.903 83.4026 103.903 82.6823C103.903 81.1654 104.782 79.9305 105.863 79.9305C106.944 79.9305 107.823 81.1654 107.823 82.6823C107.823 84.1992 106.944 85.4341 105.863 85.4341ZM105.863 80.4489C105.08 80.4489 104.423 81.4741 104.423 82.6823C104.423 83.2959 104.583 83.8714 104.877 84.2983C105.149 84.6947 105.5 84.9157 105.867 84.9157C106.65 84.9157 107.307 83.8943 107.307 82.6823C107.303 81.4703 106.642 80.4489 105.863 80.4489Z" fill="#F76969"/>
<path d="M73.5934 50.2787C71.9967 50.1072 70.614 49.1086 69.9799 47.6413L67.9936 43.0372L67.4168 41.6995L64.0249 33.8406L64.6131 41.9853L64.9683 46.8752L65.0677 48.2702C65.1517 49.4059 64.3534 50.4121 63.2303 50.6141L63.2112 50.6179C62.6077 51.5974 61.775 53.5869 64.2655 54.3797C67.1915 55.3096 71.9242 53.0114 73.624 50.2863C73.6087 50.2787 73.6011 50.2787 73.5934 50.2787Z" fill="#C6777A"/>
<path d="M91.6649 100.371C91.6649 100.371 87.2454 96.3344 83.7579 96.6927C80.2704 97.0471 76.084 100.134 78.2918 100.371C80.4996 100.607 83.4065 100.134 83.4065 100.134C83.4065 100.134 77.2452 101.442 78.1734 102.745C79.1054 104.052 84.4531 102.863 84.4531 102.863C84.4531 102.863 77.2452 105.001 78.5248 105.95C79.8044 106.899 85.2667 105.238 85.2667 105.238C85.2667 105.238 78.6394 107.494 80.152 108.561C81.6647 109.628 85.6181 106.663 86.5463 107.967C87.4784 109.274 89.2202 114.377 93.1737 112.239L91.6649 100.371Z" fill="#C6777A"/>
<path d="M70.9578 161.584L64.1929 141.064C62.6726 136.448 59.5404 132.599 55.3807 130.221L55.6442 129.763C59.9186 132.206 63.131 136.162 64.6933 140.9L71.4582 161.42L70.9578 161.584Z" fill="white"/>
<path d="M88.2041 67.5477C88.2041 67.5477 87.5509 65.5887 90.5151 63.4087C93.4793 61.2286 97.3258 60.7369 97.3258 60.7369L98.105 64.4758L93.9185 66.3014L88.2041 67.5477Z" fill="#C6777A"/>
<path d="M73.2496 32.4951C73.2496 32.4951 72.9326 33.8329 73.7042 36.5732C74.831 40.5827 70.2396 42.2559 69.067 41.1125C68.9218 40.9715 69.1128 34.153 69.1128 34.153L70.5796 33.2841L73.2496 32.4951Z" fill="#341B3F"/>
<path d="M67.9974 42.9C67.9974 42.9458 67.9936 42.9915 67.9898 43.0334C67.795 45.6594 64.9798 46.8866 64.9798 46.8866L64.9645 46.8714L64.6093 41.9815C65.4687 41.6652 66.6949 41.345 67.413 41.6957C67.7873 41.8824 68.0241 42.2483 67.9974 42.9Z" fill="#341B3F"/>
<path d="M63.6505 44.5808C67.8866 44.5808 71.3207 40.3541 71.3207 35.1402C71.3207 29.9263 67.8866 25.6996 63.6505 25.6996C59.4144 25.6996 55.9804 29.9263 55.9804 35.1402C55.9804 40.3541 59.4144 44.5808 63.6505 44.5808Z" fill="#C6777A"/>
<path d="M60.6138 27.8911C60.8277 28.1807 59.6206 33.0363 68.6392 34.1988C77.6577 35.3612 72.2412 24.4418 65.5871 24.1941C55.9804 23.8397 54.5823 30.2846 55.5029 32.6018C56.4235 34.9229 60.6138 27.8911 60.6138 27.8911Z" fill="#1C1C1C"/>
<path d="M74.5102 21.9226C74.5102 21.9226 70.4612 24.6286 73.5743 27.1707C76.6913 29.7167 85.259 30.8296 82.9213 35.1249C80.5836 39.4203 78.5591 45.7813 82.7647 46.5779C86.9703 47.3745 89.6212 47.0543 91.3325 50.3968C93.0476 53.7355 100.68 51.6698 100.057 47.6908C99.4343 43.7156 105.978 40.213 103.174 36.558C100.37 32.8991 93.5136 29.7167 91.7985 24.9449C90.0911 20.1694 77.7837 19.8531 74.5102 21.9226Z" fill="#1C1C1C"/>
<path d="M67.6422 32.6514C67.6422 32.6514 71.3283 36.5275 70.0487 40.4912C70.0487 40.4912 72.1878 38.1625 72.2336 37.2897C72.2794 36.4207 71.7141 33.2802 71.7141 33.2802L67.6422 32.6514Z" fill="#341B3F"/>
<path d="M70.2931 36.5618C69.426 37.3888 68.2114 37.4727 67.5811 36.7523C66.9508 36.0282 67.1456 34.7705 68.0127 33.9434C68.8798 33.1164 70.0945 33.0325 70.7248 33.7529C71.3589 34.477 71.164 35.7347 70.2931 36.5618Z" fill="#FFA0A3"/>
<path d="M98.1967 51.6888C98.1738 51.6888 98.1508 51.685 98.1317 51.6774C97.0431 51.2581 96.3976 50.7284 96.1569 50.0614C95.7902 49.0438 96.4166 47.9271 97.0813 46.7494C97.6619 45.7165 98.2654 44.6455 98.1203 43.6889C97.9484 42.5569 96.4587 42.294 94.8811 42.0119C93.5518 41.7756 92.1767 41.5317 91.6305 40.6856C91.3707 40.2816 91.3211 39.7709 91.4777 39.1649C91.6496 38.4941 91.8635 37.8957 92.0697 37.3164C92.9559 34.8238 93.6549 32.8572 89.7397 28.3484C84.7166 22.5667 80.5569 22.2884 76.8097 22.8487C76.3704 22.9135 75.2627 23.4852 75.2665 23.9921C75.2703 24.2551 75.6294 24.9068 78.8762 25.3146C78.9373 25.3261 83.4943 26.3894 85.6869 31.2907C86.8557 33.9053 85.1941 36.699 83.861 38.9476C82.9672 40.4569 82.1918 41.7566 82.4324 42.6294C82.5203 42.9457 82.7418 43.1972 83.1123 43.3992C84.0214 43.8909 85.0413 44.1691 86.0268 44.4321C88.5632 45.1181 91.1874 45.8232 91.5159 50.3854C91.5235 50.4845 91.4471 50.5721 91.3478 50.5797C91.2447 50.5912 91.1606 50.5111 91.153 50.412C90.8436 46.1091 88.4562 45.4688 85.9313 44.7866C84.9267 44.516 83.8839 44.2339 82.9366 43.7194C82.4821 43.4717 82.1918 43.1401 82.0772 42.7285C81.7945 41.707 82.6043 40.3426 83.5402 38.7609C84.9 36.4741 86.4394 33.8786 85.3469 31.4394C83.2269 26.7019 78.8495 25.6805 78.8074 25.6729C76.1871 25.3451 74.9036 24.7963 74.8922 23.9959C74.8807 23.1879 76.2635 22.5591 76.7448 22.4866C80.5951 21.9111 84.8656 22.1932 90.0071 28.1083C94.0637 32.7771 93.3303 34.8353 92.4059 37.4384C92.2034 38.0101 91.9933 38.6046 91.8215 39.2564C91.6878 39.7671 91.7221 40.1711 91.9284 40.4912C92.3868 41.2039 93.6817 41.4364 94.9346 41.6575C96.5694 41.9471 98.2616 42.2482 98.4717 43.6394C98.6359 44.7218 98.0019 45.8461 97.3907 46.9323C96.7681 48.0376 96.1798 49.0819 96.493 49.9432C96.6955 50.5073 97.2723 50.9647 98.254 51.342C98.3495 51.3801 98.3953 51.483 98.3571 51.5783C98.338 51.6431 98.2692 51.6888 98.1967 51.6888Z" fill="white"/>
<path d="M68.7079 31.3366H68.7041C65.2358 31.2642 63.513 28.5391 63.4405 28.4248C63.387 28.3409 63.4137 28.2266 63.5016 28.1732C63.5856 28.1199 63.7002 28.1465 63.7537 28.2304C63.769 28.2571 65.4497 30.9021 68.7156 30.9707C68.8149 30.9745 68.8951 31.0546 68.8951 31.1575C68.8875 31.2566 68.8073 31.3366 68.7079 31.3366Z" fill="white"/>
<path d="M83.4523 100.252L83.3606 100.012C83.4332 99.9856 85.133 99.3606 86.0726 100.028L85.9237 100.237C85.0948 99.6502 83.4714 100.249 83.4523 100.252Z" fill="#F76969"/>
<path d="M84.5027 102.981L84.4072 102.741C84.476 102.715 86.1108 102.082 87.6044 102.745L87.4974 102.981C86.1032 102.364 84.518 102.978 84.5027 102.981Z" fill="#F76969"/>
<path d="M85.3125 105.356L85.2208 105.116C85.3049 105.085 87.3141 104.342 88.2576 105.138L88.0895 105.337C87.2644 104.639 85.3316 105.352 85.3125 105.356Z" fill="#F76969"/>
<path d="M40.2467 114.145C40.2467 114.145 47.0956 113.196 57.3784 113.954C73.3069 115.128 86.8366 118.81 86.8366 118.81L81.7792 119.656L50.117 120.906L43.7456 115.692L40.2467 114.145Z" fill="#341B3F"/>
<path d="M50.4508 60.9061L46.9348 67.4623L47.2581 67.6349L50.7741 61.0787L50.4508 60.9061Z" fill="#341B3F"/>
</svg>
