<svg width="381" height="351" viewBox="0 0 381 351" fill="none" xmlns="http://www.w3.org/2000/svg">
<path opacity="0.2" d="M137.101 134.295L22.1717 201.081C16.6917 204.259 16.7168 212.191 22.1968 215.344L248.828 346.188C259.963 352.619 273.676 352.594 284.786 346.138L374.268 294.141C383.076 289.011 383.051 276.3 374.242 271.195L137.101 134.295Z" fill="#47784A"/>
<path d="M290.363 179.134V189.068C290.363 190.019 292.19 189.994 292.966 189.969L295.518 184.364C296.394 183.313 297.144 181.086 297.169 179.459L297.245 173.829C297.245 173.079 297.995 172.428 297.695 172.303C297.32 172.153 296.719 172.003 296.369 172.278L291.314 176.457C290.839 176.932 290.363 178.208 290.363 179.134Z" fill="#8E8E8E"/>
<path d="M292.543 179.134V189.068C292.543 190.019 292.893 190.269 293.344 189.644L296.747 184.364C297.498 183.313 298.123 181.111 298.148 179.459L298.198 173.829C298.223 172.453 297.773 171.903 297.172 172.553L293.369 176.482C292.943 176.932 292.543 178.208 292.543 179.134Z" fill="#B3B3B3"/>
<path d="M93.4598 180.161L45.5912 207.786C42.7386 203.357 44.7154 189.019 45.5912 176.983L93.4598 149.358V180.161Z" fill="#5E5E5E"/>
<path d="M258.913 276.65L211.044 304.275C208.192 299.846 210.169 285.508 211.044 273.472L258.913 245.847V276.65Z" fill="#5E5E5E"/>
<path d="M57.6328 147.032C87.7603 127.289 116.837 109.523 143.311 96.6865L176.141 95.5854L261.869 140.702L300.429 191.398L212.774 250.752L166.832 188.045L88.9864 149.084L57.6328 147.032Z" fill="#D9AF77"/>
<path d="M55.6289 160.87L57.6308 152.437H90.3856L168.231 195.001L201.937 246.122L55.6289 160.87Z" fill="#D9A664"/>
<path d="M247.279 281.553C241.398 278.15 236.043 277.825 232.19 280.077L220.704 286.758C216.926 288.935 214.549 293.639 214.524 300.345C214.474 313.807 223.957 330.197 235.668 336.954C241.924 340.582 247.554 340.682 251.457 337.954C251.232 338.13 251.007 338.305 250.757 338.43L262.242 331.749C266.046 329.547 268.398 324.843 268.423 318.161C268.448 304.699 258.989 288.309 247.279 281.553Z" fill="black"/>
<path d="M235.79 288.234C247.501 294.99 256.96 311.38 256.91 324.842C256.86 338.305 247.351 343.735 235.64 336.953C223.93 330.197 214.471 313.807 214.496 300.345C214.546 286.908 224.08 281.478 235.79 288.234ZM235.665 329.622C243.848 334.351 250.504 330.573 250.529 321.139C250.554 311.73 243.948 300.27 235.766 295.541C227.583 290.811 220.902 294.615 220.877 304.023C220.852 313.457 227.483 324.892 235.665 329.622Z" fill="#333333"/>
<path d="M235.738 300.796C241.393 304.074 245.997 312.006 245.972 318.512C245.947 325.018 241.343 327.645 235.688 324.367C230.007 321.089 225.428 313.157 225.453 306.651C225.453 300.145 230.082 297.518 235.738 300.796Z" fill="white"/>
<path d="M235.768 295.541C243.95 300.271 250.556 311.731 250.531 321.14C250.506 330.548 243.85 334.352 235.667 329.622C227.485 324.893 220.854 313.433 220.879 304.024C220.904 294.615 227.56 290.837 235.768 295.541ZM235.693 324.392C241.348 327.67 245.977 325.043 245.977 318.537C246.002 312.031 241.398 304.099 235.743 300.821C230.062 297.543 225.458 300.17 225.458 306.676C225.433 313.182 230.012 321.115 235.693 324.392Z" fill="#CCCCCC"/>
<path d="M247.277 281.553C241.397 278.15 236.042 277.825 232.189 280.077L220.703 286.758C224.557 284.506 229.886 284.831 235.792 288.234C247.503 294.99 256.961 311.38 256.936 324.842C256.911 331.524 254.559 336.228 250.756 338.43L262.241 331.749C266.044 329.547 268.397 324.843 268.422 318.161C268.447 304.699 258.988 288.309 247.277 281.553Z" fill="black"/>
<path d="M82.2277 187.017C76.3473 183.614 70.9925 183.289 67.1389 185.541L55.6535 192.222C51.875 194.399 49.4979 199.103 49.4729 205.809C49.4228 219.271 58.9065 235.661 70.5921 242.417C76.8478 246.046 82.4779 246.146 86.3815 243.418C86.1563 243.593 85.9311 243.769 85.6808 243.894L97.1663 237.213C100.97 235.011 103.322 230.306 103.347 223.625C103.397 210.163 93.9384 193.773 82.2277 187.017Z" fill="black"/>
<path d="M70.7445 193.697C82.4552 200.453 91.9138 216.843 91.8888 230.305C91.8388 243.767 82.3301 249.197 70.6194 242.416C58.9088 235.66 49.4502 219.27 49.5002 205.808C49.5002 192.371 59.0339 186.941 70.7445 193.697ZM70.6194 235.085C78.8019 239.814 85.458 236.035 85.483 226.602C85.508 217.193 78.902 205.733 70.7196 201.003C62.5371 196.274 55.856 200.078 55.831 209.486C55.8059 218.895 62.437 230.355 70.6194 235.085Z" fill="#333333"/>
<path d="M70.6947 206.26C76.3498 209.538 80.954 217.47 80.929 223.976C80.904 230.482 76.2997 233.109 70.6446 229.831C64.9644 226.553 60.3852 218.621 60.4103 212.115C60.4353 205.609 65.0395 202.982 70.6947 206.26Z" fill="white"/>
<path d="M70.7129 201.004C78.8953 205.734 85.5013 217.194 85.4763 226.603C85.4513 236.011 78.7952 239.815 70.6128 235.085C62.4303 230.356 55.7993 218.896 55.8243 209.487C55.8493 200.078 62.5304 196.275 70.7129 201.004ZM70.6377 229.856C76.2929 233.134 80.9222 230.506 80.9222 224C80.9472 217.494 76.343 209.562 70.6878 206.284C65.0077 203.006 60.4034 205.634 60.4034 212.139C60.3784 218.645 64.9576 226.578 70.6377 229.856Z" fill="#CCCCCC"/>
<path d="M82.2226 187.017C76.3423 183.614 70.9874 183.289 67.1339 185.541L55.6484 192.222C59.5019 189.97 64.8318 190.295 70.7372 193.698C82.4479 200.454 91.9065 216.844 91.8815 230.306C91.8565 236.987 89.5043 241.692 85.7008 243.894L97.1863 237.213C100.99 235.011 103.342 230.306 103.367 223.625C103.392 210.163 93.9333 193.773 82.2226 187.017Z" fill="black"/>
<path d="M277.204 300.197L208.391 244.521L168.23 192.324L90.3839 147.383L49.6718 149.084L16.4916 134.796L16.3164 171.755L25.4748 193.15L45.5931 207.813C45.3929 206.337 45.2678 204.86 45.2678 203.409C45.2678 189.246 55.2018 183.516 67.463 190.597C79.7242 197.679 89.6582 214.869 89.6582 229.032C89.6582 230.809 89.5081 232.46 89.2078 233.962L211.069 304.301C210.769 302.449 210.618 300.622 210.618 298.871C210.618 284.708 220.553 278.978 232.814 286.059C245.075 293.141 255.009 310.331 255.009 324.494C255.009 326.271 254.859 327.922 254.558 329.424L255.835 330.174L282.984 339.908V328.473L277.204 300.197ZM89.4581 173.482L66.9876 159.844V155.565L89.4581 154.639V173.482ZM131.096 198.73L93.1364 175.684V155.315L131.096 177.235V198.73ZM139.529 203.859V182.115L166.578 197.729L195.179 237.64L139.529 203.859Z" fill="#8E8E8E"/>
<path d="M376.573 274.371L370.842 246.121L277.207 300.17L282.937 328.421C319.37 311.805 351.775 294.39 376.573 274.371Z" fill="#E6E6E6"/>
<path d="M376.569 274.372V285.807C353.423 304.074 319.992 322.015 282.934 339.856V328.421C320.318 311.18 352.172 293.389 376.569 274.372Z" fill="#8E8E8E"/>
<path d="M302.03 190.472L370.842 246.148C345.644 266.917 314.091 284.783 277.207 300.197L208.394 244.521L302.03 190.472Z" fill="#B3B3B3"/>
<path d="M285.918 317.386C290.747 315.109 295.627 312.732 300.481 310.33L301.457 314.609C296.428 317.086 291.598 319.413 286.769 321.69L285.918 317.386Z" fill="#FCEE21"/>
<path d="M299.853 308.154C295.65 310.255 291.371 312.357 286.992 314.434C285.19 315.285 283.038 314.209 282.638 312.257L282.588 312.032L280.861 303.549C280.586 302.123 281.337 300.697 282.688 300.121C286.792 298.37 290.795 296.568 294.749 294.766C294.949 294.666 295.124 294.591 295.324 294.491C297.101 293.665 299.178 294.666 299.603 296.593L301.48 304.7C301.805 306.102 301.13 307.528 299.853 308.154Z" fill="white"/>
<path d="M303.832 295.367C321.924 286.71 338.464 277.351 353.127 267.517L356.055 281.054C342.017 290.463 325.902 299.746 307.01 309.355L303.832 295.367Z" fill="#333333"/>
<path d="M306.383 296.593L308.56 306.102C309.035 305.851 309.511 305.601 309.986 305.351L307.809 295.892C307.334 296.117 306.858 296.368 306.383 296.593Z" fill="#8E8E8E"/>
<path d="M310.086 294.716L312.238 304.174C312.713 303.924 313.189 303.674 313.664 303.424L311.512 294.015C311.037 294.24 310.561 294.466 310.086 294.716Z" fill="#8E8E8E"/>
<path d="M313.762 292.838L315.889 302.247C316.364 301.996 316.839 301.721 317.315 301.471L315.163 292.087C314.688 292.338 314.237 292.588 313.762 292.838Z" fill="#8E8E8E"/>
<path d="M317.371 290.936L319.473 300.32C319.948 300.069 320.424 299.794 320.899 299.544L318.772 290.21C318.322 290.461 317.847 290.711 317.371 290.936Z" fill="#8E8E8E"/>
<path d="M320.945 289.061L323.022 298.394C323.498 298.119 323.973 297.869 324.448 297.594L322.347 288.31C321.896 288.56 321.421 288.811 320.945 289.061Z" fill="#8E8E8E"/>
<path d="M324.477 287.182L326.528 296.466C327.004 296.19 327.479 295.915 327.955 295.64L325.878 286.381C325.402 286.657 324.927 286.932 324.477 287.182Z" fill="#8E8E8E"/>
<path d="M327.926 285.28L329.953 294.539C330.428 294.263 330.904 293.988 331.379 293.713L329.327 284.504C328.852 284.78 328.401 285.03 327.926 285.28Z" fill="#8E8E8E"/>
<path d="M331.328 283.405L333.355 292.613C333.83 292.338 334.306 292.063 334.781 291.762L332.729 282.604C332.254 282.879 331.779 283.13 331.328 283.405Z" fill="#8E8E8E"/>
<path d="M334.66 281.504L336.662 290.662C337.137 290.387 337.613 290.087 338.088 289.812L336.061 280.678C335.586 280.978 335.136 281.254 334.66 281.504Z" fill="#8E8E8E"/>
<path d="M337.934 279.627L339.91 288.76C340.386 288.46 340.861 288.185 341.337 287.885L339.335 278.801C338.859 279.077 338.384 279.352 337.934 279.627Z" fill="#8E8E8E"/>
<path d="M341.141 277.724L343.092 286.807C343.568 286.507 344.043 286.206 344.519 285.931L342.542 276.898C342.066 277.148 341.591 277.448 341.141 277.724Z" fill="#8E8E8E"/>
<path d="M344.27 275.824L346.196 284.857C346.672 284.557 347.147 284.256 347.623 283.956L345.646 274.948C345.195 275.248 344.72 275.548 344.27 275.824Z" fill="#8E8E8E"/>
<path d="M347.32 273.92L349.222 282.928C349.698 282.628 350.173 282.328 350.648 282.003L348.697 273.044C348.246 273.345 347.771 273.62 347.32 273.92Z" fill="#8E8E8E"/>
<path d="M351.677 271.119C351.227 271.419 350.751 271.719 350.301 271.994L352.177 280.953C352.653 280.652 353.128 280.327 353.604 280.027L351.677 271.119Z" fill="#8E8E8E"/>
<path d="M361.609 275.397C365.063 273.07 368.416 270.743 371.618 268.441L372.369 272.144C369.241 274.521 365.938 276.949 362.46 279.351L361.609 275.397Z" fill="#FCEE21"/>
<path d="M371.493 265.814C368.716 267.841 365.863 269.842 362.935 271.844C361.109 273.07 358.631 272.119 358.156 269.967L358.081 269.617L356.504 262.16C356.229 260.959 356.73 259.708 357.731 259.007C360.608 256.956 363.436 254.879 366.163 252.777C367.965 251.401 370.592 252.376 371.043 254.603L372.694 262.711C372.919 263.887 372.469 265.088 371.493 265.814Z" fill="white"/>
<path d="M294.899 306.026C290.87 308.028 286.767 310.03 282.588 312.032L280.861 303.549C280.586 302.123 281.337 300.697 282.688 300.121C286.792 298.369 290.795 296.568 294.749 294.766L296.55 302.573C296.851 303.974 296.175 305.401 294.899 306.026Z" fill="#FCEE21"/>
<path d="M366.539 263.663C363.811 265.665 360.984 267.666 358.081 269.618L356.505 262.161C356.229 260.96 356.73 259.709 357.731 259.009C360.608 256.957 363.436 254.88 366.163 252.778L367.74 260.56C367.99 261.736 367.515 262.962 366.539 263.663Z" fill="#FCEE21"/>
<path d="M208.392 244.521C244.65 228.431 276.479 210.64 302.027 190.471L261.866 138.274L168.23 192.323L208.392 244.521ZM209.243 240.217L173.135 193.299C206.59 177.059 236.568 160.269 260.99 142.578L297.098 189.496C272.601 207.062 242.748 223.877 209.243 240.217Z" fill="white"/>
<path d="M184.022 93.3325L261.868 138.273C236.32 157.666 204.366 175.507 168.233 192.323L90.3867 147.382C120.89 127.789 152.068 109.697 184.022 93.3325Z" fill="#B3B3B3"/>
<path d="M90.3878 147.382C121.066 127.914 152.244 109.823 184.023 93.3325L143.311 95.009C111.807 110.498 80.629 128.79 49.6758 149.058L90.3878 147.382ZM89.437 144.104L62.9629 145.205C87.8355 127.739 114.86 112.025 144.262 98.262L170.736 97.161C142.886 110.823 115.886 126.688 89.437 144.104Z" fill="white"/>
<path opacity="0.2" d="M351.776 258.034L286.141 204.235L282.438 206.662L348.097 260.536C349.323 259.71 350.55 258.86 351.776 258.034Z" fill="white"/>
<path opacity="0.2" d="M297.518 195.826L288.535 202.607L353.82 256.581C357.398 254.054 360.876 251.501 364.204 248.924L297.518 195.826Z" fill="white"/>
<path d="M110.102 80.7212L143.308 95.0092C111.479 110.724 80.3254 128.94 49.6724 149.058L16.4922 134.77L110.102 80.7212Z" fill="#B3B3B3"/>
<path d="M133.447 231.886L133.397 213.294L133.322 176.385L90.7077 151.788L64.3086 152.889V161.171L67.5115 175.259L70.1389 186.794C76.82 191.274 82.5252 197.504 86.8041 204.961C91.6586 213.419 94.6613 223.453 95.0867 234.338L133.497 256.508L133.447 231.886ZM92.109 156.066L130.069 177.986V199.481L92.109 176.435V156.066ZM67.1362 161.321L67.0862 156.292L88.4306 155.391V174.258L67.1362 161.321Z" fill="white"/>
<path d="M166.755 195.727L135.477 177.661V257.659L201.812 295.943V244.647L166.755 195.727ZM138.504 182.89L165.579 198.505L194.155 238.416L138.504 204.66V182.89Z" fill="white"/>
<path d="M147.165 220.475L138.957 215.745V211.542L147.165 216.271V220.475Z" fill="#8E8E8E"/>
<path d="M79.4926 181.188L71.2852 176.458V172.254L79.4926 177.009V181.188Z" fill="#8E8E8E"/>
<path d="M223.407 232.283C223.006 232.283 222.606 232.058 222.431 231.682C222.155 231.132 222.381 230.481 222.906 230.206C232.64 225.277 241.923 220.347 250.556 215.518C251.082 215.217 251.757 215.418 252.058 215.943C252.358 216.469 252.158 217.144 251.632 217.444C242.999 222.274 233.666 227.228 223.907 232.158C223.732 232.258 223.557 232.283 223.407 232.283Z" fill="black"/>
<path d="M260.562 212.19C260.187 212.19 259.811 211.99 259.611 211.64C259.311 211.114 259.486 210.439 260.012 210.138C267.869 205.559 275.401 200.955 282.357 196.426C282.857 196.1 283.558 196.251 283.883 196.751C284.209 197.251 284.059 197.952 283.558 198.277C276.577 202.832 269.02 207.461 261.138 212.04C260.937 212.14 260.737 212.19 260.562 212.19Z" fill="black"/>
<path d="M238.092 224.1C237.842 224.1 237.617 223.925 237.567 223.675C237.492 223.375 237.692 223.075 237.992 223.025L252.405 219.797C252.705 219.722 253.006 219.922 253.056 220.222C253.131 220.522 252.931 220.823 252.63 220.873L238.217 224.1C238.192 224.1 238.142 224.1 238.092 224.1Z" fill="black"/>
<path d="M269.127 206.385C268.877 206.385 268.652 206.21 268.602 205.959C268.527 205.659 268.727 205.359 269.027 205.309L283.44 202.081C283.741 202.006 284.041 202.206 284.091 202.506C284.166 202.806 283.966 203.107 283.665 203.157L269.252 206.385C269.202 206.385 269.177 206.385 269.127 206.385Z" fill="black"/>
<path d="M376.547 275.598C354.327 293.514 324.4 310.655 282.437 329.797L279.234 328.421L277.207 329.547L277.758 339.456L280.735 340.832L283.888 339.306C328.604 317.761 357.605 301.021 377.924 285.006L378.775 284.356V275.423L376.573 274.372L376.547 275.598Z" fill="white"/>
<path d="M377.946 276.073C355.726 293.989 325.824 311.28 283.836 330.422L281.308 331.574L277.18 329.547L277.73 339.456L280.708 340.832L283.861 339.306C328.577 317.761 357.578 301.021 377.897 285.006L378.747 284.355V275.422L377.946 276.073Z" fill="white"/>
<path d="M16.3667 160.595V159.494L13.5391 160.72L15.8161 171.655L22.7224 178.586L24.5741 177.435L24.6241 166.5L16.3667 160.595Z" fill="white"/>
<path d="M13.5391 160.718V171.453L22.7224 178.585V167.5L13.5391 160.718Z" fill="#CCCCCC"/>
<path d="M133.451 231.885L86.8083 204.96C82.5294 197.504 76.8242 191.273 70.1431 186.794L67.5156 175.258L133.401 213.293L133.451 231.885Z" fill="#DD2230"/>
<path d="M201.812 252.802V271.369L135.477 233.084V214.517L201.812 252.802Z" fill="#DD2230"/>
<path d="M195.506 236.288C196.182 236.713 196.557 237.489 196.457 238.265L195.456 247.398C195.356 248.374 194.58 249.124 193.605 249.225L184.396 250.15C182.87 250.301 181.594 249.099 181.544 247.498L181.418 241.968C181.393 240.617 182.269 239.366 183.52 239.015L193.805 236.038C194.38 235.887 195.006 235.962 195.506 236.288Z" fill="#8E8E8E"/>
<path d="M196.585 238.764V248.698C196.585 249.649 195.834 250.425 194.883 250.475L185.124 250.95C183.523 251.025 182.172 249.774 182.122 248.173L181.997 242.643C181.972 241.291 182.897 240.09 184.224 239.79L194.808 237.388C195.734 237.163 196.585 237.838 196.585 238.764Z" fill="#B3B3B3"/>
<path opacity="0.5" d="M196.988 165.772L206.622 210.162L228.942 227.403L236.749 220.272L216.356 207.935L207.773 167.398L196.988 165.772Z" fill="#D9A664"/>
<path opacity="0.5" d="M225.254 148.532L251.678 169.701L292.841 192.222L265.015 203.031L244.622 190.695L236.039 150.158L225.254 148.532Z" fill="#D9A664"/>
<path opacity="0.75" d="M287.661 186.292L260.836 148.833L234.812 133.819V154.187L287.661 186.292Z" fill="white"/>
<path d="M262.301 193.545L265.178 194.797C266.004 195.672 265.829 196.223 264.928 196.523L263.252 196.323L262.301 193.545Z" fill="#FFB294"/>
<path d="M246.032 167.023L257.242 177.758L275.008 186.691C277.31 186.041 278.411 185.24 276.935 182.963L261.996 170.727L252.888 158.666C251.011 153.636 247.208 150.208 243.68 150.108L246.032 167.023Z" fill="#356185"/>
<path d="M272.908 246.896C273.233 249.248 272.182 250.849 272.633 253.026C273.509 255.153 276.436 255.604 278.263 255.629C281.766 255.729 284.093 257.405 288.697 257.355C291.725 257.33 292.851 256.304 293.201 254.528C293.176 253.727 292.626 252.976 291.55 252.276C291.55 252.276 284.819 249.798 284.644 249.698C284.469 249.623 280.69 246.871 280.615 246.671C280.54 246.47 278.788 241.766 278.788 241.766L271.832 242.792L272.908 246.896Z" fill="black"/>
<path d="M239.094 202.504L261.039 215.616C262.69 224.774 266.494 235.96 271.298 248.096C275.702 249.021 279.756 249.572 280.607 246.669C278.254 232.531 275.902 218.844 273.45 210.486C267.92 201.053 256.334 193.996 243.948 187.265L239.094 202.504Z" fill="#172935"/>
<path d="M258.745 257.179C259.095 258.33 259.545 258.83 259.495 261.107C259.921 263.46 261.022 264.51 262.848 264.961C266.376 265.837 266.401 267.538 271.156 267.964C273.983 268.214 277.812 266.888 278.563 265.161C278.713 264.335 278.037 263.209 277.111 262.283C277.111 262.283 271.181 259.531 271.031 259.406C270.881 259.281 266.276 256.653 266.051 256.603C265.476 256.478 262.748 250.848 263.174 250.773L257.043 252.8L258.745 257.179Z" fill="black"/>
<path d="M219.158 190.543C217.357 193.846 217.657 198.6 219.433 204.356C221.711 208.585 233.771 216.417 244.356 223.723C246.633 234.783 251.362 246.569 257.618 258.78C261.397 259.181 264.625 258.905 266.001 256.528C263.774 251.449 260.796 236.235 257.568 222.272C257.193 220.621 256.417 219.069 255.341 217.768L243.806 203.33C242.479 201.653 242.204 199.426 242.955 197.424C244.131 194.322 244.156 190.693 243.906 187.265L219.158 190.543Z" fill="#172935"/>
<path d="M232.421 150.782C227.766 152.108 219.033 156.187 217.182 161.041C215.605 165.17 216.606 171.301 216.606 171.301C218.408 178.732 218.733 184.963 218.033 191.019C217.907 192.095 218.308 193.221 219.184 193.871C225.99 199.176 238.276 194.422 243.155 189.217C243.656 188.692 243.956 187.991 243.956 187.265C243.981 183.412 245.207 179.333 246.959 175.129C246.959 175.129 248.735 169.975 248.66 166.571C248.585 158.089 244.807 150.757 244.807 150.757C244.807 150.757 237.075 149.456 232.421 150.782Z" fill="#25435C"/>
<path d="M245.055 150.909C243.378 163.896 225.988 191.771 215.578 207.535L217.305 209.337C227.764 194.273 245.13 166.173 247.257 152.135L245.055 150.909Z" fill="#4D4D4D"/>
<path d="M238.235 160.991C237.86 161.542 237.384 161.892 236.859 161.992C231.654 162.768 228.351 156.462 229.402 153.184C230.353 149.781 230.903 147.955 230.903 147.955L240.237 151.708C240.237 151.708 240.212 152.634 240.087 153.91C239.861 156.087 239.361 159.365 238.235 160.991Z" fill="#FFB294"/>
<path opacity="0.5" d="M238.233 160.991C237.708 161.241 237.157 161.366 236.582 161.291C232.003 160.641 231.777 151.833 231.777 151.833L240.085 153.934C239.86 156.086 239.359 159.364 238.233 160.991Z" fill="#FFB294"/>
<path d="M231.405 149.733C231.405 149.733 231.855 154.062 233.482 156.139C235.108 158.216 237.961 159.542 239.087 159.767C240.213 159.993 241.114 160.018 241.989 159.242C242.84 158.491 244.442 150.584 244.442 150.584C244.867 147.506 244.942 146.555 244.817 144.804C244.642 142.201 243.591 136.346 236.109 136.321C232.481 136.296 229.929 138.573 229.028 141.651C228.302 144.078 229.678 148.782 229.678 148.782L231.405 149.733Z" fill="#FFB294"/>
<path d="M229.472 149.256L232.7 151.608L233.25 149.556C233.375 148.556 234.326 147.88 235.327 148.08C236.979 148.43 239.581 148.731 242.208 147.855C244.711 147.029 245.336 145.528 245.336 145.528C247.163 141.149 241.683 136.82 237.154 136.319C231.649 135.719 228.921 139.097 228.446 142.325C228.046 145.303 229.472 149.256 229.472 149.256Z" fill="black"/>
<path d="M230.645 146.553C230.195 146.253 229.519 146.177 229.144 146.578C228.919 146.803 228.844 147.103 228.844 147.429C228.844 147.729 228.944 148.029 229.019 148.329C229.194 148.83 229.369 149.33 229.594 149.806C229.77 150.206 229.995 150.632 230.395 150.782C230.796 150.932 231.271 151.307 231.571 150.982C231.847 150.632 231.972 149.631 231.947 149.18C231.897 148.204 231.446 147.103 230.645 146.553Z" fill="#FFB294"/>
<path d="M218.579 174.831C220.055 177.834 224.059 184.915 226.836 189.695C228.588 192.747 231.541 194.949 234.969 195.75L252.034 199.979C254.587 200.554 256.964 195.6 254.411 194.099L236.17 187.443L228.288 169.877C228.288 169.877 223.233 159.017 218.779 160.368C214.325 161.719 216.402 170.352 218.579 174.831Z" fill="#356185"/>
<path d="M263.12 209.862C262.569 209.862 262.044 209.787 261.543 209.662C259.892 209.237 258.666 208.136 257.99 206.484C256.714 203.357 257.665 198.677 260.517 193.948C264.771 186.866 271.727 182.287 276.357 183.488C278.008 183.914 279.234 185.015 279.91 186.666C281.186 189.794 280.235 194.473 277.383 199.203C273.604 205.533 267.649 209.862 263.12 209.862ZM274.78 186.166C271.627 186.166 266.523 189.594 262.995 195.449C260.667 199.303 259.767 203.206 260.667 205.433C260.993 206.234 261.518 206.71 262.294 206.91C265.272 207.685 271.077 204.207 274.98 197.751C277.308 193.898 278.208 189.994 277.308 187.767C276.982 186.967 276.457 186.491 275.681 186.291C275.406 186.216 275.106 186.166 274.78 186.166Z" fill="#333333"/>
<path d="M252.459 199.376C251.333 197.975 251.834 196.399 253.085 194.772L254.311 194.572L257.339 193.246L261.292 192.795L260.742 193.721L262.193 195.198L258.815 201.679L255.587 200.928L252.459 199.376Z" fill="#FFB294"/>
<path d="M258.117 201.479L260.144 201.954L261.32 202.304C261.921 202.48 262.546 202.179 262.796 201.604L263.072 200.953H263.222C263.672 200.978 264.073 200.653 264.148 200.228L264.198 199.052L264.423 199.001C264.873 198.926 265.199 198.526 265.224 198.076C265.249 197.675 265.023 197.325 264.673 197.15L264.323 196.975L264.473 196.399C264.623 195.874 263.822 195.073 263.322 194.848C261.921 194.798 261.27 194.673 260.544 193.622L258.117 201.479Z" fill="#FFB294"/>
<path d="M274.109 186.214L275.661 188.341L277.462 190.017L278.213 190.693C279.264 191.594 279.915 190.293 279.189 189.517L277.713 188.066L276.812 186.915C275.886 186.139 274.985 186.064 274.109 186.214Z" fill="#FFB294"/>
<path d="M275.457 183.312L276.483 183.062L278.585 183.663L281.037 185.589C281.538 185.99 281.738 186.54 281.763 187.166C282.088 187.566 282.213 188.042 282.163 188.617C282.338 189.268 282.338 189.843 282.063 190.319C282.363 190.869 281.963 191.269 281.713 191.745L280.687 192.571L279.06 192.295C278.385 192.12 278.41 191.62 278.935 191.445L279.511 191.194L277.884 188.867L277.834 188.317C277.784 187.841 278.109 187.416 278.585 187.341C278.61 187.341 279.11 185.764 279.11 185.764C278.285 184.438 277.134 183.587 275.457 183.312Z" fill="#FFB294"/>
<path d="M194.076 189.97C196.453 189.494 217.097 197.451 228.607 202.331C232.311 203.707 235.163 199.378 232.11 196.451C222.577 188.243 192.775 170.927 187.145 172.954L194.076 189.97Z" fill="#9E1822"/>
<path d="M218.973 257.356C218.072 258.357 217.847 260.834 217.797 263.662C218.322 266.564 221.025 266.589 223.277 267.14C227.656 268.216 229.558 271.744 235.438 272.245C238.941 272.545 241.343 271.994 242.269 269.842C242.469 268.842 241.969 267.741 240.818 266.589C240.818 266.589 233.111 262.286 232.911 262.135C232.71 261.985 229.357 259.033 229.307 258.757C229.257 258.482 227.681 252.126 227.681 252.126L219.824 251.451L218.973 257.356Z" fill="black"/>
<path d="M202.659 269.617C201.633 272.094 202.133 272.695 202.308 274.622C202.609 275.647 202.934 276.148 203.234 277.549C203.584 279.301 203.259 282.153 205.661 284.08C208.489 286.733 214.344 287.358 216.396 284.956C216.496 283.705 215.921 280.877 214.569 278.525L211.141 271.494L210.816 266.289L202.659 264.587V269.617Z" fill="black"/>
<path d="M177.36 227.255C181.739 231.434 189.446 238.615 198.429 244.596C197.604 249.325 199.881 260.185 201.807 270.319C203.534 273.672 211.842 272.321 211.842 270.319C211.416 257.683 211.241 241.968 210.065 238.24C204.285 229.982 198.604 222.576 193.4 219.223L184.467 214.268L176.609 220.599L177.36 227.255Z" fill="#172935"/>
<path d="M184.82 218.823C189.199 223.002 209.318 226.38 216.499 230.509C215.673 235.238 215.874 247.75 217.8 257.884C219.527 261.237 229.236 260.361 229.236 258.359C228.81 245.723 231.238 230.234 230.062 226.53C227.985 217.122 214.723 213.719 200.485 208.314L196.681 207.163L194.004 208.664L184.82 218.823Z" fill="#172935"/>
<path d="M201.008 187.418C199.807 182.214 197.98 177.835 194.977 174.932L182.716 173.856C177.536 177.009 172.132 180.887 168.428 188.094C167.903 189.821 167.828 192.423 168.003 195.501C168.703 207.512 172.857 220.523 172.857 220.523C174.233 224.852 174.609 225.978 177.386 227.23C191.549 224.002 198.956 215.319 200.557 209.488C201.283 204.984 201.283 199.905 201.008 187.418Z" fill="#9E1822"/>
<path d="M162.074 187.643C180.041 195.225 196.931 203.257 212.145 211.94L210.944 210.113C197.231 200.73 181.192 192.397 163.826 184.715L162.074 187.643Z" fill="#4D4D4D"/>
<path d="M189.901 182.839C189.526 183.39 189.076 183.74 188.525 183.815C183.345 184.566 180.093 178.335 181.118 175.082C182.069 171.704 182.595 169.877 182.595 169.877L191.853 173.606C191.853 173.606 191.828 174.532 191.703 175.808C191.528 177.985 191.052 181.238 189.901 182.839Z" fill="#FFB294"/>
<path opacity="0.5" d="M189.903 182.839C189.378 183.089 188.827 183.215 188.252 183.14C183.723 182.489 183.473 173.731 183.473 173.731L191.73 175.808C191.53 177.985 191.055 181.238 189.903 182.839Z" fill="#FFB294"/>
<path d="M183.145 171.654C183.145 171.654 183.595 175.958 185.197 178.009C186.798 180.061 189.651 181.387 190.752 181.613C191.853 181.838 192.779 181.863 193.629 181.112C194.48 180.362 196.057 172.504 196.057 172.504C196.457 169.452 196.557 168.526 196.432 166.774C196.257 164.197 195.231 158.392 187.774 158.342C184.171 158.316 181.643 160.594 180.743 163.621C180.017 166.024 181.393 170.703 181.393 170.703L183.145 171.654Z" fill="#FFB294"/>
<path d="M181.219 171.204L184.422 173.556L184.972 171.529C185.097 170.528 186.048 169.852 187.024 170.078C188.675 170.428 191.228 170.703 193.855 169.852C196.332 169.052 196.958 167.525 196.958 167.525C198.76 163.196 193.33 158.867 188.826 158.392C183.371 157.816 180.643 161.145 180.193 164.347C179.817 167.275 181.219 171.204 181.219 171.204Z" fill="black"/>
<path d="M182.391 168.501C181.941 168.201 181.266 168.126 180.89 168.526C180.665 168.751 180.59 169.052 180.59 169.352C180.59 169.652 180.69 169.952 180.765 170.253C180.94 170.753 181.115 171.254 181.341 171.729C181.516 172.129 181.741 172.53 182.141 172.705C182.542 172.855 183.017 173.23 183.292 172.88C183.568 172.53 183.693 171.529 183.668 171.103C183.643 170.153 183.192 169.052 182.391 168.501Z" fill="#FFB294"/>
<path d="M189.899 228.757L193.352 231.785C194.954 232.886 196.505 233.411 198.232 233.962L201.235 236.389L202.611 237.29C203.161 237.665 203.737 237.09 203.161 236.364L200.059 233.561L200.384 233.161L202.236 234.362L203.787 235.613C204.588 236.214 205.038 235.463 204.438 234.537L202.711 232.661L201.21 231.485L201.46 231.309L203.061 232.46L204.613 234.087C205.513 234.763 206.064 234.212 205.539 233.336L204.087 231.66L202.211 229.983L202.511 229.683L204.137 230.709L206.039 232.561C206.89 233.186 207.24 232.51 206.64 231.56L204.888 229.408L201.61 227.106L201.81 226.955L203.011 227.256L204.362 228.106C205.213 228.657 205.864 228.131 204.938 227.156L203.161 225.854C203.161 225.854 200.209 224.778 199.333 224.979C198.182 225.229 195.129 226.03 195.129 226.03L193.027 224.929C191.776 224.053 188.648 227.681 189.899 228.757Z" fill="#FFB294"/>
<path d="M169.756 186.894C167.153 188.42 167.303 192.123 167.078 196.127C168.379 204.535 169.956 209.764 174.135 216.996C175.386 219.348 182.267 227.631 191.776 230.083C193.052 230.083 196.63 227.556 195.879 225.128C191.626 222.826 188.673 216.371 181.416 210.44L173.084 195.877C171.432 186.819 172.833 184.542 169.756 186.894Z" fill="#9E1822"/>
<path d="M204.094 239.015L261.796 205.109C269.053 195.525 277.461 190.145 287.27 190.145L295.252 185.441L303.409 191.296L259.97 233.36L206.871 245.996L204.094 239.015Z" fill="#8E8E8E"/>
<path d="M230.335 201.58C228.459 200.179 230.536 196.525 231.887 197.176L235.19 198.978L240.245 202.906L243.848 205.559C245.074 206.334 244.699 207.861 242.922 206.76L240.37 205.183L240.92 206.81L240.144 208.661C239.869 209.387 238.568 210.088 237.817 209.888L237.492 209.787L236.741 209.988L236.141 209.863C235.515 209.712 235.065 209.212 234.965 208.586L234.94 208.411C235.165 208.136 235.465 208.011 235.866 208.136L236.641 208.186L237.442 207.31L237.542 206.484L236.716 204.983C237.442 205.834 236.491 207.06 235.19 205.859L232.963 204.433L230.335 201.58Z" fill="#FFB294"/>
<path opacity="0.5" d="M147.312 180.487L156.045 218.897L168.232 227.855L158.122 182.113L147.312 180.487Z" fill="#D9A664"/>
<path opacity="0.5" d="M184.222 189.27L180.969 190.972L216.726 235.562L220.28 233.635L184.222 189.27Z" fill="white"/>
<path opacity="0.5" d="M197.486 182.289L186.551 188.044L222.584 232.384L232.518 227.029L197.486 182.289Z" fill="white"/>
<path opacity="0.1" d="M187.574 127.064C185.422 125.813 181.643 125.963 179.141 127.415L166.029 134.971C163.527 136.423 163.276 138.6 165.428 139.851L170.708 142.904L192.353 129.817L187.574 127.064Z" fill="#1A1A1A"/>
<path d="M174.236 142.553L187.348 134.997C189.85 133.57 191.877 130.367 191.877 127.865V115.429C191.877 112.926 189.85 112.076 187.348 113.527L174.236 121.084C171.734 122.51 169.707 125.713 169.707 128.215V140.652C169.732 143.154 171.759 144.005 174.236 142.553Z" fill="#1A1A1A"/>
<path d="M175.66 142.878L188.397 135.521C190.824 134.12 192.776 131.017 192.776 128.59V116.504C192.776 114.077 190.799 113.251 188.397 114.652L175.66 122.009C173.233 123.41 171.281 126.513 171.281 128.94V141.026C171.281 143.429 173.258 144.254 175.66 142.878Z" fill="white"/>
<path d="M188.645 135.747L175.533 143.304C173.031 144.731 171.004 143.88 171.004 141.403V128.966C171.004 126.464 173.031 123.286 175.533 121.835L188.645 114.278C191.147 112.852 193.174 113.702 193.174 116.18V128.616C193.174 131.118 191.147 134.321 188.645 135.747ZM175.558 123.661C174.057 124.537 172.856 126.439 172.856 127.94V140.377C172.856 141.878 174.082 142.379 175.558 141.528L188.67 133.971C190.171 133.095 191.372 131.193 191.372 129.692V117.256C191.372 115.754 190.146 115.254 188.67 116.105L175.558 123.661Z" fill="#DD2230"/>
<path d="M178.988 123.237L181.966 121.536V134.072L186.845 131.244V133.346L178.988 137.876V123.237Z" fill="#DD2230"/>
<path d="M102 208.5C102 209.5 101.8 210.2 101.4 210.6C101 211.1 100.5 211.1 100 210.8L98 209.6V195L100 196.2C100.6 196.5 101 197.1 101.4 198C101.8 198.9 102 199.8 102 200.8V208.5ZM99.3 208.3L100.1 208.7C100.3 208.8 100.5 208.8 100.6 208.6C100.7 208.4 100.8 208.2 100.8 207.8V200.2C100.8 199.9 100.7 199.5 100.6 199.2C100.5 198.9 100.3 198.6 100.1 198.5L99.3 198.1V208.3Z" fill="white"/>
<path d="M105.1 199.3C105.8 199.7 106.3 200.4 106.7 201.2C107 202 107.1 202.9 107.1 203.9V206C107.1 207 106.9 207.8 106.4 208.2L107.3 215.1L105.9 214.3L105.1 208.4C105.1 208.4 105 208.4 105 208.3L104.3 207.9V213.4L103 212.7V198.2L105.1 199.3ZM105.9 203.2C105.9 202.4 105.7 201.8 105.2 201.5L104.4 201.1V205.8L105.2 206.2C105.4 206.3 105.6 206.3 105.7 206.1C105.8 205.9 105.9 205.7 105.9 205.3V203.2Z" fill="white"/>
<path d="M109.8 216.5L108.5 215.8V201.3L109.8 202V216.5Z" fill="white"/>
<path d="M112.3 218L110.8 202.6L112.1 203.4L113.2 215.3L114.3 204.6L115.6 205.4L114.1 219L112.3 218Z" fill="white"/>
<path d="M118 221.2L116.7 220.5V206L118 206.7V221.2Z" fill="white"/>
<path d="M120.5 208.2L122.2 218.9V209.1L123.5 209.8V224.3L122.1 223.5L120.4 213.2V222.5L119.1 221.8V207.3L120.5 208.2Z" fill="white"/>
<path d="M126.6 226.4C126 226.1 125.6 225.5 125.2 224.6C124.8 223.7 124.6 222.8 124.6 221.8V213.9C124.6 212.9 124.8 212.2 125.2 211.8C125.6 211.4 126.1 211.3 126.6 211.6C127.2 211.9 127.6 212.5 128 213.4C128.4 214.3 128.6 215.2 128.6 216.2V217.9L127.3 217.1V215.4C127.3 215.1 127.2 214.7 127.1 214.4C127 214.1 126.8 213.8 126.6 213.7C126.4 213.6 126.2 213.6 126.1 213.8C126 214 125.9 214.2 125.9 214.6V222.5C125.9 222.8 126 223.2 126.1 223.5C126.2 223.8 126.4 224 126.6 224.2C126.8 224.3 127 224.3 127.1 224.1C127.2 223.9 127.3 223.7 127.3 223.3V220.5L126.6 220.1V217.9L128.6 219.1V224.2C128.6 225.2 128.4 225.9 128 226.3C127.6 226.7 127.2 226.7 126.6 226.4Z" fill="white"/>
<path d="M143.2 232.2C143.2 233.2 143.1 234 142.7 234.5C142.5 234.9 142.2 235 141.8 235C141.6 235 141.4 234.9 141.1 234.8C140.6 234.5 140.2 234.1 139.9 233.5C139.6 233 139.4 232.4 139.3 231.7C139.1 231 139 230.3 139 229.5L140.2 230C140.3 230.9 140.4 231.6 140.6 232.1C140.8 232.5 140.9 232.7 141.1 232.8C141.4 232.9 141.6 232.8 141.8 232.5C141.9 232.3 141.9 232 141.9 231.6C141.9 231 141.7 230.3 141.4 229.5C141.2 228.9 140.8 228.1 140.3 227C139.9 226.1 139.6 225.3 139.4 224.6C139.2 223.9 139.1 223.1 139.1 222.4C139.1 221.1 139.4 220.2 139.9 219.9C140.2 219.7 140.6 219.7 141.1 220C141.5 220.3 141.9 220.7 142.3 221.2C142.5 221.6 142.8 222.1 142.9 222.7C143.1 223.3 143.1 223.9 143.2 224.5L142 224.2C142 223.6 141.9 223.1 141.7 222.6C141.6 222.3 141.4 222.1 141.2 222C141 221.9 140.8 221.9 140.7 222.2C140.6 222.4 140.6 222.8 140.6 223.2C140.6 223.9 140.8 224.6 141.1 225.5C141.2 225.8 141.4 226.2 141.7 226.7C142 227.3 142.2 227.7 142.3 227.9C142.6 228.6 142.9 229.3 143 229.9C143.1 230.2 143.1 230.5 143.2 230.7C143.2 231.3 143.2 231.8 143.2 232.2Z" fill="white"/>
<path d="M146.3 237.8C145.7 237.5 145.3 236.9 144.9 236C144.5 235.1 144.3 234.2 144.3 233.2V225.3C144.3 224.3 144.5 223.6 144.9 223.2C145.3 222.8 145.8 222.7 146.3 223C146.9 223.3 147.3 223.9 147.7 224.8C148.1 225.7 148.3 226.6 148.3 227.6V229.2L147 228.4V226.7C147 226.4 146.9 226 146.8 225.7C146.7 225.4 146.5 225.1 146.3 225C146.1 224.9 145.9 224.9 145.8 225.1C145.7 225.3 145.6 225.5 145.6 225.9V233.8C145.6 234.1 145.7 234.5 145.8 234.8C145.9 235.1 146.1 235.3 146.3 235.5C146.5 235.6 146.7 235.6 146.8 235.4C146.9 235.2 147 235 147 234.6V232.6L148.3 233.4V235.4C148.3 236.4 148.1 237.1 147.7 237.5C147.3 238 146.8 238.1 146.3 237.8Z" fill="white"/>
<path d="M150.6 234V240.1L149.3 239.4V224.9L150.6 225.6V231.7L152.1 232.6V226.5L153.4 227.2V241.6L152.1 240.9V234.8L150.6 234Z" fill="white"/>
<path d="M156.4 228.9C157 229.2 157.4 229.8 157.8 230.7C158.2 231.6 158.4 232.5 158.4 233.5V241.4C158.4 242.4 158.2 243.1 157.8 243.5C157.4 243.9 156.9 244 156.4 243.7C155.8 243.4 155.4 242.8 155 241.9C154.6 241 154.4 240.1 154.4 239.1V231.2C154.4 230.2 154.6 229.5 155 229.1C155.4 228.6 155.9 228.5 156.4 228.9ZM157.1 232.7C157.1 232.4 157 232 156.9 231.7C156.8 231.4 156.6 231.2 156.4 231C156.2 230.9 156 230.9 155.9 231.1C155.8 231.3 155.7 231.5 155.7 231.9V239.8C155.7 240.1 155.8 240.5 155.9 240.8C156 241.1 156.2 241.3 156.4 241.5C156.6 241.6 156.8 241.6 156.9 241.4C157 241.2 157.1 241 157.1 240.6V232.7Z" fill="white"/>
<path d="M161.5 231.8C162.1 232.1 162.5 232.7 162.9 233.6C163.3 234.5 163.5 235.4 163.5 236.4V244.3C163.5 245.3 163.3 246 162.9 246.4C162.5 246.8 162 246.9 161.5 246.6C160.9 246.3 160.5 245.7 160.1 244.8C159.7 243.9 159.5 243 159.5 242V234.1C159.5 233.1 159.7 232.4 160.1 232C160.5 231.5 161 231.5 161.5 231.8ZM162.2 235.6C162.2 235.3 162.1 234.9 162 234.6C161.9 234.3 161.7 234.1 161.5 233.9C161.3 233.8 161.1 233.8 161 234C160.9 234.2 160.8 234.4 160.8 234.8V242.7C160.8 243 160.9 243.4 161 243.7C161.1 244 161.3 244.2 161.5 244.4C161.7 244.5 161.9 244.5 162 244.3C162.1 244.1 162.2 243.9 162.2 243.5V235.6Z" fill="white"/>
<path d="M168 250.2L164.6 248.2V233.8L165.9 234.5V246.8L168.1 248.1V250.2H168Z" fill="white"/>
<path opacity="0.2" d="M21.9 280.254C33.7296 280.254 43.3195 274.72 43.3195 267.893C43.3195 261.066 33.7296 255.532 21.9 255.532C10.0703 255.532 0.480469 261.066 0.480469 267.893C0.480469 274.72 10.0703 280.254 21.9 280.254Z" fill="#47784A"/>
<path d="M9.00954 260.36C1.90307 264.463 1.90307 271.119 9.00954 275.248C16.116 279.352 27.6765 279.352 34.783 275.248C41.8895 271.144 41.8895 264.488 34.783 260.36C27.6515 256.256 16.116 256.256 9.00954 260.36Z" fill="#C76800"/>
<path d="M9.00954 257.933C1.90307 262.037 1.90307 268.693 9.00954 272.822C16.116 276.925 27.6765 276.925 34.783 272.822C41.8895 268.718 41.8895 262.062 34.783 257.933C27.6515 253.829 16.116 253.829 9.00954 257.933Z" fill="#FFA542"/>
<path d="M25.7285 222.626L34.8118 264.615C34.8118 266.516 33.5607 268.418 31.0334 269.895C26.0038 272.797 17.8214 272.797 12.7667 269.895C10.2394 268.443 8.98828 266.541 8.98828 264.615L18.0716 222.626H25.7285Z" fill="#F98200"/>
<path d="M19.3997 221.025C17.8483 221.876 17.523 223.452 18.9493 224.553C20.5007 225.754 23.3032 225.754 24.8547 224.553C26.2559 223.452 25.9557 221.876 24.4043 221.025C22.9529 220.224 20.826 220.224 19.3997 221.025Z" fill="#F98200"/>
<path d="M25.7324 222.625L34.8157 264.614C34.8157 266.515 33.5646 268.417 31.0373 269.894C26.0077 272.796 17.8253 272.796 12.7707 269.894C10.2434 268.442 8.99219 266.54 8.99219 264.614L18.0755 222.625H25.7324Z" fill="#F98200"/>
<path d="M81.4344 37.006C79.8579 36.1052 77.8811 35.5547 75.8292 35.3295V28.223V28.0729V15.8117V15.6616V3.40042V3.25027V-9.01089V-9.08597V-21.3471V-21.4973V-33.7584V-33.9086V-46.2949C75.8292 -46.5701 75.6541 -46.8203 75.3037 -47.0205C74.6031 -47.4209 73.4521 -47.4209 72.7514 -47.0205C72.4011 -46.8203 72.2259 -46.5451 72.2259 -46.2949V-33.9086V-33.7584V-21.4973V-21.3471V-9.08597V-8.93583V3.32535V3.47548V15.7367V15.8868V28.148V28.2981V35.4046C70.174 35.6047 68.2223 36.1553 66.6208 37.0811C64.2687 38.4323 63.3178 40.284 63.6682 42.0356C63.3178 43.8122 64.2687 45.6389 66.6208 46.9901C70.6995 49.3423 77.3306 49.3423 81.4093 46.9901C83.7614 45.6389 84.7123 43.7872 84.362 42.0356C84.7373 40.2089 83.7865 38.3823 81.4344 37.006Z" fill="#9ED9A2"/>
<path d="M42.8249 90.5033C41.2485 89.5775 39.2717 89.052 37.2198 88.8268V81.7454V81.5952V69.3341V69.1839V56.9228V56.7726V44.5114V44.3613V32.1001V31.95V19.6888V19.5387V7.1524C37.2198 6.87715 37.0447 6.62692 36.6944 6.42674C35.9937 6.02637 34.8426 6.02637 34.142 6.42674C33.7917 6.62692 33.6165 6.90217 33.6165 7.1524V19.5387V19.6888V31.95V32.1001V44.3613V44.5114V56.7726V56.9228V69.1839V69.3341V81.5952V81.7454V88.8518C31.5647 89.052 29.6129 89.6025 28.0114 90.5284C25.6593 91.8796 24.7085 93.7313 25.0588 95.4829C24.7085 97.2595 25.6593 99.0862 28.0114 100.437C32.0902 102.79 38.7212 102.79 42.7999 100.437C45.1521 99.0862 46.1029 97.2345 45.7526 95.4829C46.1279 93.7063 45.152 91.8796 42.8249 90.5033Z" fill="#9ED9A2"/>
<path d="M236.647 87.5015C236.297 87.3013 235.922 87.1511 235.571 87.001L230.442 63.3044C230.342 62.879 230.041 62.4787 229.516 62.2034C228.54 61.6529 227.064 61.6529 226.088 62.2034C225.562 62.4787 225.262 62.879 225.187 63.3044L220.057 87.001C219.682 87.1762 219.307 87.3263 218.981 87.5015C216.179 89.1279 215.028 91.3299 215.453 93.4319C215.028 95.5338 216.179 97.7358 218.981 99.3623C223.861 102.19 231.768 102.19 236.647 99.3623C239.45 97.7358 240.601 95.5338 240.176 93.4319C240.601 91.3049 239.475 89.1279 236.647 87.5015Z" fill="#9ED9A2"/>
<path d="M299.202 123.785C298.852 123.584 298.476 123.434 298.126 123.284L292.996 99.5876C292.896 99.1622 292.596 98.7619 292.071 98.4866C291.095 97.9361 289.618 97.9361 288.642 98.4866C288.117 98.7619 287.817 99.1622 287.742 99.5876L282.612 123.284C282.237 123.459 281.861 123.609 281.536 123.785C278.733 125.411 277.582 127.613 278.008 129.715C277.582 131.817 278.733 134.019 281.536 135.645C286.415 138.473 294.323 138.473 299.202 135.645C302.005 134.019 303.156 131.817 302.73 129.715C303.156 127.588 302.03 125.411 299.202 123.785Z" fill="#9ED9A2"/>
<path d="M361.761 160.067C361.41 159.867 361.035 159.717 360.685 159.566L355.555 135.87C355.455 135.444 355.155 135.044 354.629 134.769C353.653 134.218 352.177 134.218 351.201 134.769C350.676 135.044 350.375 135.444 350.3 135.87L345.171 159.566C344.795 159.742 344.42 159.892 344.095 160.067C341.292 161.693 340.141 163.895 340.566 165.997C340.141 168.099 341.292 170.301 344.095 171.928C348.974 174.755 356.881 174.755 361.761 171.928C364.563 170.301 365.714 168.099 365.289 165.997C365.714 163.87 364.588 161.693 361.761 160.067Z" fill="#9ED9A2"/>
<path d="M19.8306 17.0117C25.6072 17.0117 30.2902 14.3117 30.2902 10.9812C30.2902 7.65063 25.6072 4.95068 19.8306 4.95068C14.054 4.95068 9.37109 7.65063 9.37109 10.9812C9.37109 14.3117 14.054 17.0117 19.8306 17.0117Z" fill="#B3B3B3"/>
<path d="M19.8306 15.6123C25.6072 15.6123 30.2902 12.9123 30.2902 9.58176C30.2902 6.25121 25.6072 3.55127 19.8306 3.55127C14.054 3.55127 9.37109 6.25121 9.37109 9.58176C9.37109 12.9123 14.054 15.6123 19.8306 15.6123Z" fill="#999999"/>
<path d="M18.0312 -3.60693V8.92948C18.0312 9.20473 18.2065 9.45496 18.5568 9.65515C19.2574 10.0555 20.4084 10.0555 21.1091 9.65515C21.4594 9.45496 21.6345 9.17971 21.6345 8.92948V-3.60693H18.0312Z" fill="#808080"/>
<path d="M81.4374 38.4071C85.5161 40.7592 85.5161 44.5877 81.4374 46.9398C77.3586 49.292 70.7276 49.292 66.6489 46.9398C62.5702 44.5877 62.5702 40.7592 66.6489 38.4071C70.7276 36.0549 77.3586 36.0549 81.4374 38.4071Z" fill="#B3B3B3"/>
<path d="M81.4374 37.0048C85.5161 39.357 85.5161 43.1855 81.4374 45.5376C77.3586 47.8898 70.7276 47.8898 66.6489 45.5376C62.5702 43.1855 62.5702 39.357 66.6489 37.0048C70.7276 34.6527 77.3586 34.6527 81.4374 37.0048Z" fill="#999999"/>
<path d="M72.25 28.098V40.6344C72.25 40.9097 72.4251 41.1599 72.7755 41.3601C73.4761 41.7605 74.6272 41.7605 75.3278 41.3601C75.6782 41.1599 75.8533 40.8847 75.8533 40.6344V28.098H72.25Z" fill="#808080"/>
<path d="M75.3279 27.3712C76.0285 27.7715 76.0285 28.4221 75.3279 28.8475C74.6272 29.2479 73.4761 29.2479 72.7755 28.8475C72.0748 28.4471 72.0748 27.7966 72.7755 27.3712C73.4761 26.9458 74.6272 26.9458 75.3279 27.3712Z" fill="#808080"/>
<path d="M72.25 15.7112V28.2476C72.25 28.5229 72.4251 28.7731 72.7755 28.9733C73.4761 29.3736 74.6272 29.3736 75.3278 28.9733C75.6782 28.7731 75.8533 28.4978 75.8533 28.2476V15.7112H72.25Z" fill="#CCCCCC"/>
<path d="M75.3279 14.9608C76.0285 15.3612 76.0285 16.0118 75.3279 16.4371C74.6272 16.8375 73.4761 16.8375 72.7755 16.4371C72.0748 16.0368 72.0748 15.3862 72.7755 14.9608C73.4761 14.5604 74.6272 14.5604 75.3279 14.9608Z" fill="white"/>
<path d="M72.25 3.30029V15.8367C72.25 16.112 72.4251 16.3622 72.7755 16.5624C73.4761 16.9627 74.6272 16.9627 75.3278 16.5624C75.6782 16.3622 75.8533 16.0869 75.8533 15.8367V3.30029H72.25Z" fill="#808080"/>
<path d="M74.0516 4.35143C75.0467 4.35143 75.8533 3.88089 75.8533 3.30046C75.8533 2.72004 75.0467 2.24951 74.0516 2.24951C73.0566 2.24951 72.25 2.72004 72.25 3.30046C72.25 3.88089 73.0566 4.35143 74.0516 4.35143Z" fill="#808080"/>
<path d="M72.25 -9.08643V3.45C72.25 3.72525 72.4251 3.97548 72.7755 4.17566C73.4761 4.57603 74.6272 4.57603 75.3278 4.17566C75.6782 3.97548 75.8533 3.70023 75.8533 3.45V-9.08643H72.25Z" fill="#CCCCCC"/>
<path d="M42.828 91.9052C46.9067 94.2574 46.9067 98.0859 42.828 100.438C38.7493 102.79 32.1182 102.79 28.0395 100.438C23.9608 98.0859 23.9608 94.2574 28.0395 91.9052C32.1182 89.5531 38.7242 89.5531 42.828 91.9052Z" fill="#B3B3B3"/>
<path d="M42.828 90.503C46.9067 92.8551 46.9067 96.6836 42.828 99.0358C38.7493 101.388 32.1182 101.388 28.0395 99.0358C23.9608 96.6836 23.9608 92.8551 28.0395 90.503C32.1182 88.1509 38.7242 88.1509 42.828 90.503Z" fill="#999999"/>
<path d="M33.6211 81.5961V94.1325C33.6211 94.4077 33.7962 94.658 34.1466 94.8582C34.8472 95.2585 35.9983 95.2585 36.6989 94.8582C37.0492 94.658 37.2244 94.3827 37.2244 94.1325V81.5961H33.6211Z" fill="#808080"/>
<path d="M36.6989 80.8692C37.3996 81.2696 37.3996 81.9202 36.6989 82.3455C35.9983 82.7459 34.8472 82.7459 34.1466 82.3455C33.4459 81.9452 33.4459 81.2946 34.1466 80.8692C34.8472 80.4438 35.9983 80.4438 36.6989 80.8692Z" fill="#808080"/>
<path d="M33.6211 69.2092V81.7457C33.6211 82.0209 33.7962 82.2711 34.1466 82.4713C34.8472 82.8717 35.9983 82.8717 36.6989 82.4713C37.0492 82.2711 37.2244 81.9959 37.2244 81.7457V69.2092H33.6211Z" fill="#CCCCCC"/>
<path d="M36.6989 68.4588C37.3996 68.8592 37.3996 69.5098 36.6989 69.9352C35.9983 70.3356 34.8472 70.3356 34.1466 69.9352C33.4459 69.5348 33.4459 68.8842 34.1466 68.4588C34.8472 68.0585 35.9983 68.0585 36.6989 68.4588Z" fill="white"/>
<path d="M33.6211 56.7983V69.3348C33.6211 69.61 33.7962 69.8602 34.1466 70.0604C34.8472 70.4608 35.9983 70.4608 36.6989 70.0604C37.0492 69.8602 37.2244 69.585 37.2244 69.3348V56.7983H33.6211Z" fill="#808080"/>
<path d="M35.4227 57.8495C36.4178 57.8495 37.2244 57.3789 37.2244 56.7985C37.2244 56.2181 36.4178 55.7476 35.4227 55.7476C34.4277 55.7476 33.6211 56.2181 33.6211 56.7985C33.6211 57.3789 34.4277 57.8495 35.4227 57.8495Z" fill="#808080"/>
<path d="M33.6211 44.4116V56.948C33.6211 57.2233 33.7962 57.4735 34.1466 57.6737C34.8472 58.0741 35.9983 58.0741 36.6989 57.6737C37.0492 57.4735 37.2244 57.1983 37.2244 56.948V44.4116H33.6211Z" fill="#CCCCCC"/>
<path d="M35.4227 45.4628C36.4178 45.4628 37.2244 44.9922 37.2244 44.4118C37.2244 43.8314 36.4178 43.3608 35.4227 43.3608C34.4277 43.3608 33.6211 43.8314 33.6211 44.4118C33.6211 44.9922 34.4277 45.4628 35.4227 45.4628Z" fill="white"/>
<path d="M33.6211 32.0249V44.5613C33.6211 44.8366 33.7962 45.0868 34.1466 45.287C34.8472 45.6874 35.9983 45.6874 36.6989 45.287C37.0492 45.0868 37.2244 44.8116 37.2244 44.5613V32.0249H33.6211Z" fill="#808080"/>
<path d="M35.4227 33.076C36.4178 33.076 37.2244 32.6055 37.2244 32.0251C37.2244 31.4446 36.4178 30.9741 35.4227 30.9741C34.4277 30.9741 33.6211 31.4446 33.6211 32.0251C33.6211 32.6055 34.4277 33.076 35.4227 33.076Z" fill="#808080"/>
<path d="M33.6211 19.6138V32.1502C33.6211 32.4254 33.7962 32.6757 34.1466 32.8759C34.8472 33.2762 35.9983 33.2762 36.6989 32.8759C37.0492 32.6757 37.2244 32.4004 37.2244 32.1502V19.6138H33.6211Z" fill="#CCCCCC"/>
<path d="M36.6989 18.8877C37.3996 19.288 37.3996 19.9386 36.6989 20.364C35.9983 20.7644 34.8472 20.7644 34.1466 20.364C33.4459 19.9637 33.4459 19.3131 34.1466 18.8877C34.8472 18.4873 35.9983 18.4873 36.6989 18.8877Z" fill="white"/>
<path d="M33.6211 7.229V19.7654C33.6211 20.0407 33.7962 20.2909 34.1466 20.4911C34.8472 20.8914 35.9983 20.8914 36.6989 20.4911C37.0492 20.2909 37.2244 20.0157 37.2244 19.7654V7.229H33.6211Z" fill="#808080"/>
<path d="M36.6989 6.50215C37.3996 6.90251 37.3996 7.55309 36.6989 7.97848C35.9983 8.37885 34.8472 8.37885 34.1466 7.97848C33.4459 7.57812 33.4459 6.92753 34.1466 6.50215C34.8472 6.07676 35.9983 6.07676 36.6989 6.50215Z" fill="#949494"/>
<path d="M143.992 73.4387C148.071 75.7908 148.071 79.6193 143.992 81.9714C139.913 84.3236 133.282 84.3236 129.204 81.9714C125.125 79.6193 125.125 75.7908 129.204 73.4387C133.282 71.0865 139.913 71.0865 143.992 73.4387Z" fill="#B3B3B3"/>
<path d="M143.992 72.036C148.071 74.3881 148.071 78.2166 143.992 80.5687C139.913 82.9209 133.282 82.9209 129.204 80.5687C125.125 78.2166 125.125 74.3881 129.204 72.036C133.282 69.6838 139.913 69.6838 143.992 72.036Z" fill="#999999"/>
<path d="M134.805 63.1293V75.6657C134.805 75.941 134.98 76.1912 135.33 76.3914C136.031 76.7917 137.182 76.7917 137.883 76.3914C138.233 76.1912 138.408 75.9159 138.408 75.6657V63.1293H134.805Z" fill="#808080"/>
<path d="M137.883 62.4024C138.583 62.8028 138.583 63.4534 137.883 63.8788C137.182 64.2791 136.031 64.2791 135.33 63.8788C134.63 63.4784 134.63 62.8278 135.33 62.4024C136.031 61.977 137.182 61.977 137.883 62.4024Z" fill="#808080"/>
<path d="M134.805 50.7424V63.2788C134.805 63.5541 134.98 63.8043 135.33 64.0045C136.031 64.4049 137.182 64.4049 137.883 64.0045C138.233 63.8043 138.408 63.5291 138.408 63.2788V50.7424H134.805Z" fill="#CCCCCC"/>
<path d="M137.883 49.992C138.583 50.3924 138.583 51.043 137.883 51.4684C137.182 51.8688 136.031 51.8688 135.33 51.4684C134.63 51.068 134.63 50.4174 135.33 49.992C136.031 49.5917 137.182 49.5917 137.883 49.992Z" fill="white"/>
<path d="M134.805 38.3315V50.868C134.805 51.1432 134.98 51.3934 135.33 51.5936C136.031 51.994 137.182 51.994 137.883 51.5936C138.233 51.3934 138.408 51.1182 138.408 50.868V38.3315H134.805Z" fill="#808080"/>
<path d="M136.606 39.3827C137.601 39.3827 138.408 38.9122 138.408 38.3317C138.408 37.7513 137.601 37.2808 136.606 37.2808C135.611 37.2808 134.805 37.7513 134.805 38.3317C134.805 38.9122 135.611 39.3827 136.606 39.3827Z" fill="#808080"/>
<path d="M134.805 25.9448V38.4813C134.805 38.7565 134.98 39.0067 135.33 39.2069C136.031 39.6073 137.182 39.6073 137.883 39.2069C138.233 39.0067 138.408 38.7315 138.408 38.4813V25.9448H134.805Z" fill="#CCCCCC"/>
<path d="M137.883 25.2202C138.583 25.6205 138.583 26.2711 137.883 26.6965C137.182 27.0969 136.031 27.0969 135.33 26.6965C134.63 26.2961 134.63 25.6456 135.33 25.2202C136.031 24.7948 137.182 24.7948 137.883 25.2202Z" fill="white"/>
<path d="M134.805 13.5581V26.0945C134.805 26.3698 134.98 26.62 135.33 26.8202C136.031 27.2206 137.182 27.2206 137.883 26.8202C138.233 26.62 138.408 26.3448 138.408 26.0945V13.5581H134.805Z" fill="#808080"/>
<path d="M137.883 12.8076C138.583 13.208 138.583 13.8586 137.883 14.2839C137.182 14.6843 136.031 14.6843 135.33 14.2839C134.63 13.8836 134.63 13.233 135.33 12.8076C136.031 12.4072 137.182 12.4072 137.883 12.8076Z" fill="#808080"/>
<path d="M134.805 1.14697V13.6834C134.805 13.9587 134.98 14.2089 135.33 14.4091C136.031 14.8094 137.182 14.8094 137.883 14.4091C138.233 14.2089 138.408 13.9336 138.408 13.6834V1.14697H134.805Z" fill="#CCCCCC"/>
<path d="M137.883 0.420879C138.583 0.821244 138.583 1.47184 137.883 1.89722C137.182 2.29759 136.031 2.29759 135.33 1.89722C134.63 1.49686 134.63 0.846267 135.33 0.420879C136.031 0.0205143 137.182 0.0205143 137.883 0.420879Z" fill="white"/>
<path d="M134.805 -11.2378V1.29862C134.805 1.57388 134.98 1.82411 135.33 2.02429C136.031 2.42465 137.182 2.42465 137.883 2.02429C138.233 1.82411 138.408 1.54885 138.408 1.29862V-11.2378H134.805Z" fill="#808080"/>
<path d="M218.984 89.1542C214.104 91.9817 214.104 96.5359 218.984 99.3635C223.863 102.191 231.77 102.191 236.65 99.3635C241.529 96.5359 241.529 91.9817 236.65 89.1542C231.77 86.3516 223.863 86.3516 218.984 89.1542Z" fill="#646464"/>
<path d="M218.984 87.5011C214.104 90.3286 214.104 94.8828 218.984 97.7104C223.863 100.538 231.77 100.538 236.65 97.7104C241.529 94.8828 241.529 90.3286 236.65 87.5011C231.77 84.6735 223.863 84.6735 218.984 87.5011Z" fill="#A1A1A1"/>
<path d="M230.446 63.2798L236.677 92.081C236.677 93.3822 235.801 94.7084 234.075 95.6843C230.622 97.6861 225.016 97.6861 221.563 95.6843C219.837 94.6834 218.961 93.3822 218.961 92.081L225.192 63.2798H230.446Z" fill="#7D7D7D"/>
<path d="M226.111 62.178C225.035 62.7786 224.835 63.8545 225.786 64.6052C226.862 65.431 228.764 65.431 229.84 64.6052C230.816 63.8545 230.59 62.7786 229.514 62.178C228.563 61.6275 227.087 61.6275 226.111 62.178Z" fill="#7D7D7D"/>
<path d="M230.442 63.2808L236.673 92.082C236.673 93.3832 235.797 94.7094 234.071 95.6853C230.618 97.6871 225.013 97.6871 221.559 95.6853C219.833 94.6844 218.957 93.3832 218.957 92.082L225.188 63.2808H230.442Z" fill="#7D7D7D"/>
<path d="M281.535 125.436C276.655 128.264 276.655 132.818 281.535 135.646C286.414 138.473 294.321 138.473 299.201 135.646C304.08 132.818 304.08 128.264 299.201 125.436C294.321 122.634 286.414 122.634 281.535 125.436Z" fill="#646464"/>
<path d="M281.535 123.783C276.655 126.611 276.655 131.165 281.535 133.993C286.414 136.82 294.321 136.82 299.201 133.993C304.08 131.165 304.08 126.611 299.201 123.783C294.321 120.956 286.414 120.956 281.535 123.783Z" fill="#A1A1A1"/>
<path d="M292.997 99.562L299.228 128.363C299.228 129.664 298.352 130.991 296.626 131.967C293.172 133.968 287.567 133.968 284.114 131.967C282.388 130.966 281.512 129.664 281.512 128.363L287.742 99.562H292.997Z" fill="#7D7D7D"/>
<path d="M288.662 98.4602C287.586 99.0608 287.386 100.137 288.337 100.887C289.413 101.713 291.314 101.713 292.39 100.887C293.366 100.137 293.141 99.0608 292.065 98.4602C291.114 97.9097 289.638 97.9097 288.662 98.4602Z" fill="#7D7D7D"/>
<path d="M292.997 99.563L299.228 128.364C299.228 129.665 298.352 130.992 296.626 131.968C293.172 133.969 287.567 133.969 284.114 131.968C282.388 130.967 281.512 129.665 281.512 128.364L287.742 99.563H292.997Z" fill="#7D7D7D"/>
<path d="M344.085 161.723C339.206 164.55 339.206 169.104 344.085 171.932C348.965 174.759 356.872 174.759 361.751 171.932C366.631 169.104 366.631 164.55 361.751 161.723C356.872 158.92 348.965 158.92 344.085 161.723Z" fill="#646464"/>
<path d="M344.085 160.069C339.206 162.897 339.206 167.451 344.085 170.279C348.965 173.106 356.872 173.106 361.751 170.279C366.631 167.451 366.631 162.897 361.751 160.069C356.872 157.242 348.965 157.242 344.085 160.069Z" fill="#A1A1A1"/>
<path d="M355.552 135.848L361.783 164.649C361.783 165.951 360.907 167.277 359.18 168.253C355.727 170.255 350.122 170.255 346.669 168.253C344.942 167.252 344.066 165.951 344.066 164.649L350.297 135.848H355.552Z" fill="#7D7D7D"/>
<path d="M351.217 134.746C350.141 135.347 349.94 136.423 350.891 137.174C351.967 137.999 353.869 137.999 354.945 137.174C355.921 136.423 355.696 135.347 354.62 134.746C353.669 134.196 352.193 134.196 351.217 134.746Z" fill="#7D7D7D"/>
<path d="M355.552 135.848L361.783 164.649C361.783 165.951 360.907 167.277 359.18 168.253C355.727 170.255 350.122 170.255 346.669 168.253C344.942 167.252 344.066 165.951 344.066 164.649L350.297 135.848H355.552Z" fill="#7D7D7D"/>
</svg>
