<svg width="18" height="25" viewBox="0 0 18 25" fill="none" xmlns="http://www.w3.org/2000/svg">
<path d="M9.2516 25C9.08077 25 8.90994 25 8.73911 25C8.19928 24.8633 7.80979 24.5703 7.53646 24.0951C5.42499 20.3776 3.29302 16.6667 1.16789 12.9492C0.177071 11.2174 -0.18509 9.38151 0.0882388 7.42187C0.566565 4.0625 3.21786 1.15885 6.65497 0.299479C7.20163 0.16276 7.77562 0.0976562 8.32912 0C8.77328 0 9.21744 0 9.6616 0C10.0306 0.0520833 10.4064 0.0911458 10.7686 0.16276C14.848 0.9375 17.9093 4.44661 17.9981 8.41797C18.0323 10.0846 17.595 11.6276 16.7613 13.0859C14.684 16.6927 12.6136 20.3125 10.5567 23.9323C10.2561 24.4596 9.88026 24.8568 9.2516 25ZM9.00561 4.29688C6.98297 4.29688 5.32249 5.86588 5.31566 7.79297C5.30883 9.73958 6.95564 11.3281 8.99194 11.3281C11.0146 11.3281 12.6751 9.75911 12.6819 7.83203C12.6887 5.88542 11.0351 4.29688 9.00561 4.29688Z" fill="#F4A640"/>
</svg>
