<svg width="21" height="15" viewBox="0 0 21 15" fill="none" xmlns="http://www.w3.org/2000/svg">
<path d="M21 12.9832C20.942 13.1611 20.8892 13.3336 20.8365 13.4953C18.7944 11.4197 16.7629 9.36016 14.7262 7.29527C16.7735 5.2196 18.805 3.1601 20.847 1.09521C20.8892 1.22461 20.9473 1.40252 21 1.58044C21 5.38134 21 9.18225 21 12.9832Z" fill="#F4A640"/>
<path d="M1.79858 0.151821C2.03603 0.097907 2.24182 0.0493848 2.44232 0.0116453C2.50564 -0.00452874 2.57424 0.000862617 2.63756 0.000862617C8.13046 0.000862617 13.6286 0.000862617 19.1215 0.00625397C19.3906 0.00625397 19.6598 0.0763416 19.9289 0.114081C19.9341 0.141038 19.9341 0.162603 19.9394 0.18956C19.8919 0.238082 19.8444 0.291996 19.7969 0.340518C17.0162 3.19254 14.2407 6.04996 11.46 8.90199C11.0748 9.30095 10.7001 9.30095 10.315 8.90738C7.53421 6.04996 4.74818 3.19254 1.96743 0.335127C1.91994 0.286604 1.87773 0.238082 1.79858 0.151821Z" fill="#F4A640"/>
<path d="M13.845 8.1956C15.8818 10.2605 17.908 12.3146 19.9764 14.4118C19.7337 14.4657 19.5384 14.5143 19.3326 14.552C19.2535 14.5682 19.1743 14.5574 19.0952 14.5574C13.6181 14.5574 8.14633 14.5574 2.66926 14.5574C2.37905 14.5574 2.09939 14.5304 1.81445 14.3795C3.85648 12.3092 5.88268 10.2551 7.92471 8.18481C7.94582 8.20099 7.99331 8.24951 8.04607 8.29803C8.53152 8.79404 9.01169 9.29004 9.49713 9.78605C10.315 10.6217 11.4495 10.6217 12.2673 9.78605C12.8055 9.24691 13.3385 8.70778 13.845 8.1956Z" fill="#F4A640"/>
<path d="M0.912117 13.4952C0.869904 13.2634 0.780203 13.0154 0.780203 12.7674C0.774926 9.11204 0.774926 5.4567 0.780203 1.79597C0.780203 1.54797 0.864628 1.29996 0.912117 1.06274C2.96998 3.1492 5.00145 5.21409 7.04348 7.28437C5.00673 9.34386 2.97525 11.4034 0.912117 13.4952Z" fill="#F4A640"/>
</svg>
