<svg width="20" height="20" viewBox="0 0 20 20" fill="none" xmlns="http://www.w3.org/2000/svg">
<path d="M17.6576 19.9938C17.2312 19.9567 16.8047 19.9259 16.3783 19.8764C13.6218 19.5675 11.0631 18.684 8.70837 17.2135C6.23621 15.6688 4.23375 13.6546 2.71337 11.177C1.48347 9.18134 0.673833 7.0312 0.272106 4.72042C0.099054 3.72567 0.0125281 2.72475 0.000167288 1.71146C-0.0121935 0.691999 0.661472 0 1.68124 0C2.84316 0 3.9989 0 5.16082 0C6.14968 0 6.81099 0.630213 6.83571 1.61878C6.86661 2.80507 7.03348 3.96046 7.39195 5.09113C7.58972 5.72135 7.45993 6.26506 7.03966 6.77788C6.47725 7.46988 5.95809 8.19277 5.42657 8.90948C5.39567 8.95273 5.38949 9.04541 5.41421 9.09484C6.57613 11.3129 8.22012 13.0677 10.408 14.2972C10.6058 14.4084 10.8097 14.6061 11.0013 14.5938C11.1867 14.5814 11.3598 14.359 11.539 14.2292C12.1632 13.7597 12.7813 13.2777 13.4055 12.8143C13.7949 12.5239 14.2337 12.4498 14.7034 12.561C15.3029 12.7031 15.8962 12.8947 16.5019 12.9935C17.1076 13.0924 17.7318 13.1233 18.3436 13.1603C19.0173 13.1974 19.5365 13.4569 19.8393 14.0748C19.9073 14.2169 19.9444 14.3775 20 14.532C20 15.8974 20 17.2629 20 18.6345C19.8888 18.8817 19.8084 19.1474 19.6663 19.3698C19.4314 19.7405 19.042 19.895 18.6341 20C18.3066 19.9938 17.979 19.9938 17.6576 19.9938Z" fill="#F4A640"/>
</svg>
