<svg width="28" height="23" viewBox="0 0 28 23" fill="none" xmlns="http://www.w3.org/2000/svg">
<g clip-path="url(#clip0_1_1045)">
<path d="M7.89755 16.9015C10.1923 16.9015 12.4881 16.8993 14.7828 16.9026C15.5524 16.9037 15.7437 17.1038 15.7459 17.8792C15.7481 19.2276 15.7514 20.576 15.7437 21.9244C15.7415 22.3815 15.8552 22.7599 16.3155 22.9392C16.7571 23.1109 17.0829 22.8966 17.3836 22.5958C20.7824 19.1926 24.1835 15.7926 27.5813 12.3882C28.1432 11.825 28.1378 11.4204 27.5649 10.8474C24.1802 7.45614 20.7912 4.06929 17.4054 0.679151C17.0917 0.365289 16.7615 0.126886 16.2947 0.321546C15.8377 0.512924 15.7393 0.896776 15.7426 1.35062C15.7514 2.62575 15.7459 3.90197 15.7459 5.1771C15.7459 6.20507 15.642 6.31115 14.6221 6.31115C10.1409 6.31224 5.65969 6.31006 1.1796 6.31334C0.273309 6.31443 0.00109252 6.59002 -6.78214e-07 7.48458C-5.57991e-07 10.235 -4.3772e-07 12.9864 0.00109292 15.7379C0.00109296 16.6379 0.265657 16.8993 1.17632 16.9004C3.41746 16.9037 5.6575 16.9015 7.89755 16.9015Z" fill="white"/>
<path d="M7.89763 16.9015C5.65759 16.9015 3.41645 16.9026 1.17641 16.9004C0.264649 16.8993 0.00117823 16.6368 0.00117819 15.7379C8.48345e-05 12.9864 8.47142e-05 10.2349 0.00117783 7.48345C0.00117779 6.58889 0.274487 6.31221 1.18078 6.31221C5.66196 6.30893 10.1431 6.31112 14.6232 6.31002C15.6421 6.31002 15.746 6.20394 15.7471 5.17597C15.7471 3.90084 15.7525 2.62462 15.7438 1.34949C15.7405 0.896745 15.84 0.5118 16.2959 0.320422C16.7616 0.125762 17.0929 0.364166 17.4066 0.678027C20.7924 4.06925 24.1814 7.45611 27.5661 10.8462C28.1389 11.4204 28.1444 11.8239 27.5825 12.3871C24.1847 15.7915 20.7825 19.1914 17.3848 22.5947C17.0841 22.8954 16.7594 23.1109 16.3167 22.9381C15.8553 22.7587 15.7416 22.3804 15.7449 21.9232C15.7525 20.5748 15.7493 19.2264 15.7471 17.878C15.746 17.1027 15.5547 16.9026 14.7839 16.9015C12.4881 16.8993 10.1934 16.9015 7.89763 16.9015Z" fill="#2BC48A"/>
</g>
<defs>
<clipPath id="clip0_1_1045">
<rect width="22.75" height="28" fill="white" transform="translate(0 23.0007) rotate(-90)"/>
</clipPath>
</defs>
</svg>
