<svg width="25" height="25" viewBox="0 0 25 25" fill="none" xmlns="http://www.w3.org/2000/svg">
<path d="M11.0024 1.12383e-07C17.0743 0.00085915 22.011 4.94892 21.9998 11.024C21.9895 17.0768 17.0528 22.0008 10.9972 22C4.92538 21.9982 -0.0104787 17.051 -0.000166978 10.9759C0.0101447 4.92315 4.94686 -0.000858926 11.0024 1.12383e-07ZM12.4495 10.9845C12.3068 11.1357 12.2028 11.25 12.0937 11.3591C10.9199 12.5351 9.74007 13.7051 8.57228 14.8871C8.15207 15.3124 8.14692 15.8493 8.52158 16.2255C8.88764 16.5923 9.42471 16.6069 9.82772 16.2083C11.3556 14.6981 12.8757 13.1794 14.3846 11.6503C14.779 11.2508 14.7756 10.7457 14.3786 10.3437C12.8688 8.81545 11.3487 7.29667 9.82085 5.78648C9.42041 5.39046 8.87819 5.41022 8.51556 5.78047C8.15379 6.14985 8.16325 6.66528 8.5465 7.08878C8.68055 7.2374 8.82749 7.37484 8.96928 7.51658C10.1164 8.65825 11.2628 9.80077 12.4495 10.9845Z" fill="#2BC48A"/>
<path d="M12.4496 10.9845C11.2621 9.80076 10.1166 8.6591 8.9703 7.51657C8.82851 7.37483 8.68157 7.23739 8.54752 7.08877C8.16427 6.66527 8.15482 6.14984 8.51658 5.78046C8.87921 5.41021 9.42143 5.39046 9.82187 5.78647C11.3506 7.29666 12.8698 8.81544 14.3796 10.3437C14.7766 10.7448 14.7792 11.2508 14.3856 11.6503C12.8767 13.1794 11.3566 14.6981 9.82875 16.2083C9.42573 16.6069 8.88866 16.5923 8.5226 16.2255C8.14708 15.8501 8.1531 15.3123 8.5733 14.8871C9.7411 13.7051 10.9209 12.5351 12.0947 11.3591C12.2039 11.25 12.307 11.1348 12.4496 10.9845Z" fill="white"/>
</svg>
